<svg xmlns="http://www.w3.org/2000/svg" viewBox="0 0 160.55 94.36">
  <defs>
    <style>
      .cls-1 {
        fill: #b3e3ef;
      }

      .cls-2 {
        fill: #33a6d2;
      }

      .cls-3 {
        fill: #d2edf5;
      }

      .cls-4 {
        fill: #e9f4f0;
        opacity: 0.4;
      }

      .cls-5 {
        fill: #97cedb;
      }

      .cls-6 {
        fill: #292a75;
      }

      .cls-7 {
        fill: #0d66a2;
      }

      .cls-8 {
        fill: #ffc2a4;
      }

      .cls-9 {
        fill: #fc412d;
      }

      .cls-10 {
        fill: #e5001c;
      }

      .cls-11 {
        fill: #182142;
      }

      .cls-12 {
        fill: #f7c139;
      }

      .cls-13 {
        fill: #36477f;
      }

      .cls-14 {
        fill: #ffa283;
      }

      .cls-15 {
        fill: #0e5a98;
      }

      .cls-16 {
        fill: #fff;
      }
    </style>
  </defs>
  <title>recipient-stat</title>
  <g id="Layer_2" data-name="Layer 2">
    <g id="_ëîé_2" data-name="‘ëîé_2">
      <g>
        <path class="cls-1" d="M153,42.73a3.54,3.54,0,0,1-3.5,3.57h-26a3.54,3.54,0,0,1-3.5-3.57V29.39a3.54,3.54,0,0,1,3.5-3.57h26a3.54,3.54,0,0,1,3.5,3.57Z"/>
        <path class="cls-2" d="M153,92.47a.45.45,0,0,1-.45-.45V63.33H117.46V90.71a.45.45,0,0,1-.89,0V62.89a.45.45,0,0,1,.45-.45h36a.45.45,0,0,1,.45.45V92A.45.45,0,0,1,153,92.47Z"/>
        <path class="cls-2" d="M109.92,63A1.09,1.09,0,0,0,111,64.11L152,64a1.09,1.09,0,0,0,1.08-1.09h0A1.09,1.09,0,0,0,152,61.81l-41,.13A1.09,1.09,0,0,0,109.92,63Z"/>
        <g>
          <path class="cls-1" d="M113.54,2.7V78H12.72V2.7A1.78,1.78,0,0,1,14.51.92h97.24A1.79,1.79,0,0,1,113.54,2.7Z"/>
          <path class="cls-3" d="M109.16,14.76v57a1.79,1.79,0,0,1-1.79,1.79H18.89A1.79,1.79,0,0,1,17.1,71.8v-57A1.79,1.79,0,0,1,18.89,13h88.48A1.79,1.79,0,0,1,109.16,14.76Z"/>
          <circle class="cls-2" cx="63.13" cy="4.04" r="1.79"/>
          <path class="cls-2" d="M72.77,8.7H52.37a.45.45,0,1,1,0-.89h20.4a.45.45,0,0,1,0,.89Z"/>
          <path class="cls-4" d="M109.16,14.76v57a1.79,1.79,0,0,1-1.79,1.79H72.2l-54.64-60a1.79,1.79,0,0,1,1.33-.6h88.48A1.79,1.79,0,0,1,109.16,14.76Z"/>
          <polygon class="cls-5" points="113.54 78.04 113.54 78.04 12.73 78.04 12.72 78.04 0 91.75 126.27 91.75 113.54 78.04"/>
          <rect class="cls-1" y="91.75" width="126.27" height="2.61"/>
          <path class="cls-2" d="M106.86,77.38V78H19.4v-.65a1.79,1.79,0,0,1,1.79-1.79h83.88A1.79,1.79,0,0,1,106.86,77.38Z"/>
          <polygon class="cls-2" points="18.56 79.83 12.72 87.44 114.21 87.44 107.73 79.83 18.56 79.83"/>
        </g>
        <path class="cls-6" d="M104.2,63.28c-.5,1.22-7.67,23.66-7.67,23.66l5.35,1.12s7-12.35,8.87-15.77S115,64.39,116,63.72s24.05-2.08,24.5-1.41,3,4.32,3.72,13.48,1.49,14.93,1.49,14.93l5-.78s2.31-18.09,2.23-24.05.82-11.1-2-15.49a42.1,42.1,0,0,1-11.83.72,49.27,49.27,0,0,1-9.83-2.33S107.47,55.23,104.2,63.28Z"/>
        <path class="cls-7" d="M102.16,88.22c.6.48-.68,1.36-2.46,1.34-1,0-7.63-.45-7.93-1.79S99.92,86.41,102.16,88.22Z"/>
        <path class="cls-7" d="M145.67,90.71s.37,1.08.67,1.08,9.16.78,9-.54S149.25,89,145.67,90.71Z"/>
        <g>
          <path class="cls-8" d="M122.18,32.77s1.69.78,1.78,2.23h-2s1,2-.34,3.17a8.21,8.21,0,0,1-.16-3.64C121.78,33,122.18,32.77,122.18,32.77Z"/>
          <path class="cls-9" d="M122,28.79l4.63,5.74,6.55,15.86,0,0,4.89.67a19.82,19.82,0,0,0,5.82.56,17.93,17.93,0,0,0,7-1.27s0-8.25-.3-12.43c-.25-3.52-.42-7.71-.32-9.07h0c0-.25.05-.41.09-.44.26-.19,1.94,5.05,1.94,5.05s.3-.15.79-.37A25.16,25.16,0,0,1,156.12,32a20.51,20.51,0,0,1,3.37-.75s-1.77-7.24-2.92-9.52-3.7-3-8-3.88-9.51-2.5-9.51-2.5.26,2.54-1.08,2.69c-.47.05-.84-.31-1.13-.82a6,6,0,0,1-.5-1.17,44.32,44.32,0,0,1-5.91,1.8l-.14,0C126.49,18.75,122,21.1,122,28.79Z"/>
          <path class="cls-10" d="M130.4,17.82c3.19.56,5.45.31,6.41-.63a6,6,0,0,1-.5-1.17A44.32,44.32,0,0,1,130.4,17.82Z"/>
          <path class="cls-10" d="M150.24,28.89c0-.25.05-.41.09-.44.26-.19,1.94,5.05,1.94,5.05s.3-.15.79-.37c-.44-1.28-2.18-5.42-2.75-5.42C150.16,27.71,150.16,28.18,150.24,28.89Z"/>
          <path class="cls-8" d="M128.76,12a8.09,8.09,0,0,0,.85,1.59,5.18,5.18,0,0,0,2.06,1.83,4.75,4.75,0,0,0,4.33-.56,10,10,0,0,0,.31,1.19,5.19,5.19,0,0,0,.67,1.44,1.09,1.09,0,0,0,1,.54c1.34-.15,1.08-2.69,1.08-2.69a8.15,8.15,0,0,1-.64-2.46,18.82,18.82,0,0,1,0-2.72c2.27.93,2.54-1.57,1.87-2.58A.75.75,0,0,0,139,7.4c-.07,1-.24,1.71-.53,1.84-.81.35-1.08-.93-1.34-2.13s-1.3-2.87-2.35-2.61-3.17,2.16-5,2.37a6.82,6.82,0,0,1-1.52,0A9.65,9.65,0,0,0,128.76,12Z"/>
          <path class="cls-11" d="M131.37.4c4.86-1.34,6.35,1,7.09,2.46A12,12,0,0,1,139,7.41c-.07,1-.24,1.71-.53,1.84-.81.35-1.08-.93-1.34-2.13s-1.31-2.87-2.35-2.61-3.17,2.21-5,2.37c-2.8.24-3.63-.52-3.92-1.29C125.23,4,126.51,1.75,131.37.4Z"/>
          <path class="cls-12" d="M64.7,61.9c13.86,8.84,32.51,9.86,43.51,10.36s18.25-2.93,23.72-8.36,7.61-13.38,7-21.14-5.32-12.09-8.51-13.23-12.79-.5-15.07-.5-4.78-.35-6.82,3-.55,9.35,0,10.05,2.59.9,6.16,1.09a92.53,92.53,0,0,0,9.88-.35V44.7c.67,7.41-4.42,8.82-12.06,9.05-15.79.49-30.35-10-30.35-10l-34.18,0C47.74,47,53.66,54.86,64.7,61.9ZM124,35h-2a2.85,2.85,0,0,1-.45,3.28,9.29,9.29,0,0,1,.45-5.62A3.34,3.34,0,0,1,124,35Z"/>
          <path class="cls-8" d="M159.49,31.21s2.39,8.56,0,12.64-8.06,5.37-14.18,5-8.21-2.09-9.16-2.49-4.43-2-4.18-2.24a9.09,9.09,0,0,1,2.49.35s-3.23-1.29-3.08-1.79,3.23.25,3.23.25-3-1.49-2.89-1.84,3.73.8,3.73.8-2.44-1.24-2.14-1.49,3.18.65,3.18.65-1.14-.73-.75-1,3.63,2.4,4,2.4,5,.7,8.46-.15,4.88-3.23,4.08-8.81a9.91,9.91,0,0,1,3.58-1.59A15.92,15.92,0,0,1,159.49,31.21Z"/>
          <path class="cls-8" d="M127.2,42.51c.46.46-1.19,2.24-2.94,2.59s-2.89-1.14-2.34-2.24l3.08-.35s.65-.3.85,0-1,.9-1,.9S126.85,42.16,127.2,42.51Z"/>
          <path class="cls-6" d="M47.54,43.95c0,.29.37.53.82.53H82.3c.45,0,.82-.24.82-.53V42.56c0-.29-.37-.53-.82-.53H48.36c-.45,0-.82.24-.82.53Z"/>
          <g>
            <path class="cls-13" d="M132.72,54a.11.11,0,0,0,.07-.2,44.29,44.29,0,0,0-5.46-3.52.11.11,0,0,0-.09.2,44.09,44.09,0,0,1,5.43,3.5Z"/>
            <path class="cls-13" d="M123.32,59.91a.11.11,0,0,0,.06-.21,45.38,45.38,0,0,1-1.29-4.84.11.11,0,0,0-.13-.08.11.11,0,0,0-.08.13c1.13,4.89,1.35,5,1.42,5Z"/>
            <path class="cls-13" d="M110.77,59.16a.11.11,0,0,0,.1-.07L112.22,56a.11.11,0,1,0-.2-.09L110.67,59a.11.11,0,0,0,.06.15Z"/>
            <path class="cls-13" d="M108.09,65.13a.11.11,0,0,0,.1-.07,13.09,13.09,0,0,0,.68-2,.11.11,0,1,0-.22,0A12.94,12.94,0,0,1,108,65a.11.11,0,0,0,.06.15Z"/>
            <path class="cls-13" d="M106.08,69.91a.11.11,0,0,0,.11-.08l.6-1.94a.11.11,0,0,0-.07-.14.11.11,0,0,0-.14.07l-.6,1.94a.11.11,0,0,0,.08.14Z"/>
            <path class="cls-13" d="M99,57.6a.11.11,0,0,0,.07,0s3.29-2.84,3.65-3.13a.11.11,0,0,0-.14-.17c-.37.3-3.53,3-3.66,3.14a.11.11,0,0,0,0,.16A.11.11,0,0,0,99,57.6Z"/>
            <path class="cls-13" d="M109.29,39.39h9a.11.11,0,1,0,0-.22h-9a.11.11,0,0,0,0,.22Z"/>
            <path class="cls-13" d="M110,35.28h5.37a.11.11,0,0,0,0-.22H110a.11.11,0,0,0,0,.22Z"/>
            <path class="cls-13" d="M119.88,31.7a.11.11,0,0,0,0-.22l-2.76-.37a.11.11,0,0,0,0,.22l2.76.37Z"/>
            <path class="cls-13" d="M126.1,42.42a4.81,4.81,0,0,0,3.2-1.22c1.55-1.41,1.72-3.63.48-6.08a.11.11,0,0,0-.1-.06L122,34.88a.13.13,0,0,0-.1.05.11.11,0,0,0,0,.11,2.67,2.67,0,0,1,.25,1.76.11.11,0,0,0,.07.14.11.11,0,0,0,.14-.07,2.69,2.69,0,0,0-.19-1.77l7.46.17c1.16,2.33,1,4.43-.46,5.76a4.38,4.38,0,0,1-5,.63,5.9,5.9,0,0,1-2.66-4.82.11.11,0,0,0-.11-.11.11.11,0,0,0-.12.11,6.13,6.13,0,0,0,2.77,5A4,4,0,0,0,126.1,42.42Z"/>
          </g>
          <path class="cls-11" d="M139,9.2h0a.11.11,0,0,0,.11-.12,1.18,1.18,0,0,1,.48-.91.11.11,0,1,0-.13-.18,1.38,1.38,0,0,0-.57,1.11A.11.11,0,0,0,139,9.2Z"/>
          <path class="cls-11" d="M132.57,8.7a.11.11,0,0,0,.1-.06,2.38,2.38,0,0,1,2.53-1,.11.11,0,0,0,0-.22,2.61,2.61,0,0,0-2.77,1.16.11.11,0,0,0,0,.15Z"/>
          <path class="cls-11" d="M131,13.51a.11.11,0,0,0,.09,0l.75-1a.11.11,0,0,0-.18-.14l-.54.7a11.06,11.06,0,0,0-.37-3.61.93.93,0,0,0-.58-.52,2.11,2.11,0,0,0-1.42.27.11.11,0,1,0,.11.19,1.93,1.93,0,0,1,1.25-.25.71.71,0,0,1,.44.4,12.92,12.92,0,0,1,.34,3.85.11.11,0,0,0,.07.11Z"/>
          <path class="cls-11" d="M132.71,14a1.29,1.29,0,0,0,1.29-.85.11.11,0,0,0-.22-.06,1.11,1.11,0,0,1-1.35.67.11.11,0,0,0,0,.22Z"/>
          <circle class="cls-11" cx="133.01" cy="9.7" r="0.41"/>
          <circle class="cls-11" cx="129.6" cy="10.3" r="0.41"/>
          <circle class="cls-14" cx="135.33" cy="11.2" r="0.9"/>
          <path class="cls-14" d="M128.76,12a8.09,8.09,0,0,0,.85,1.59.9.9,0,0,0-.42-1.7A.88.88,0,0,0,128.76,12Z"/>
          <path class="cls-14" d="M136,14.83a10,10,0,0,0,.31,1.19,5.19,5.19,0,0,0,.67,1.44c.52-1.11.54-4.45.54-4.45A5.46,5.46,0,0,1,136,14.83Z"/>
          <path class="cls-11" d="M135.86,15h0a5.21,5.21,0,0,0,1.92-2.12.11.11,0,0,0-.22-.06,5.06,5.06,0,0,1-1.8,2,.11.11,0,0,0-.05.15A.11.11,0,0,0,135.86,15Z"/>
          <path class="cls-13" d="M121.35,36.84h0a.11.11,0,0,0,.11-.12,9.58,9.58,0,0,1,3.14-7.36.11.11,0,1,0-.14-.17,9.81,9.81,0,0,0-3.22,7.55A.11.11,0,0,0,121.35,36.84Z"/>
        </g>
        <path class="cls-13" d="M60.45,52.26a.11.11,0,0,1,0-.22L67.68,50a.11.11,0,0,1,.14.08.11.11,0,0,1-.08.14l-7.26,2.07Z"/>
        <path class="cls-13" d="M74.08,55.08A.11.11,0,0,1,74,55a.11.11,0,0,1,0-.15L84.07,48.8a.11.11,0,0,1,.15,0,.11.11,0,0,1,0,.15L74.14,55.07Z"/>
        <path class="cls-13" d="M82.45,65.24l-.07,0a.11.11,0,0,1,0-.16l5.14-6.51a.11.11,0,1,1,.17.14L82.54,65.2A.11.11,0,0,1,82.45,65.24Z"/>
        <path class="cls-1" d="M141.3,63.86a.11.11,0,0,1-.1-.06l-.84-1.44v0a2.82,2.82,0,0,1,2.32-3.27.11.11,0,0,1,.13.09.11.11,0,0,1-.09.13,2.56,2.56,0,0,0-2.15,3l.83,1.42a.11.11,0,0,1,0,.15Z"/>
        <g>
          <path class="cls-15" d="M82.89,36.65A1.82,1.82,0,0,1,81,38.44H49.26a1.82,1.82,0,0,1-1.85-1.79V30.39a1.82,1.82,0,0,1,1.85-1.79H81a1.82,1.82,0,0,1,1.85,1.79Z"/>
          <g>
            <path class="cls-16" d="M65.27,33.05c0,2.14-1.3,3.28-2.89,3.28a2.85,2.85,0,0,1-2.8-3.16,3,3,0,0,1,2.89-3.27C64.18,29.9,65.27,31.2,65.27,33.05Zm-4.83.1c0,1.33.72,2.52,2,2.52s2-1.17,2-2.59c0-1.24-.65-2.53-2-2.53S60.45,31.79,60.45,33.15Z"/>
            <path class="cls-16" d="M66.32,30h.8v3h0c.17-.24.33-.46.49-.67L69.54,30h1l-2.25,2.64,2.43,3.58h-1l-2-3.06-.59.68v2.37h-.8Z"/>
          </g>
        </g>
      </g>
    </g>
  </g>
</svg>
