<svg xmlns="http://www.w3.org/2000/svg" viewBox="0 0 2339.97 1750.73">
  <defs>
    <style>
      .cls-1 {
        fill: #ddc558;
      }

      .cls-2, .cls-3, .cls-6 {
        fill: #c48017;
      }

      .cls-15, .cls-2 {
        opacity: 0.4;
      }

      .cls-4 {
        fill: #595aa3;
      }

      .cls-5 {
        fill: #ced2ec;
      }

      .cls-6 {
        opacity: 0.2;
      }

      .cls-7 {
        fill: #d2a4ab;
      }

      .cls-8 {
        fill: #d4a6ad;
      }

      .cls-9 {
        fill: #b64d00;
      }

      .cls-10 {
        fill: #a53c00;
      }

      .cls-11 {
        fill: #c38b95;
      }

      .cls-12 {
        fill: #53529e;
      }

      .cls-13 {
        fill: #3a3582;
      }

      .cls-14 {
        fill: #c88412;
      }

      .cls-16 {
        fill: #8b5a2a;
      }

      .cls-17, .cls-24 {
        fill: #b66c0c;
      }

      .cls-18 {
        fill: #3a3583;
      }

      .cls-19 {
        fill: #2b2555;
      }

      .cls-20 {
        fill: #9a6a38;
      }

      .cls-21 {
        fill: #332e62;
      }

      .cls-22 {
        fill: #c68216;
      }

      .cls-23 {
        fill: #dbdff0;
      }

      .cls-24 {
        opacity: 0.6;
      }

      .cls-25 {
        fill: #54519e;
      }

      .cls-26 {
        fill: #5a59a3;
      }

      .cls-27 {
        fill: #cca1aa;
      }

      .cls-28 {
        fill: #dde1f4;
      }
    </style>
  </defs>
  <title>recipients_1</title>
  <g id="Layer_2" data-name="Layer 2">
    <g id="Слой_2" data-name="Слой 2">
      <g>
        <g>
          <path class="cls-1" d="M807.39,1711.5v25.38a13.89,13.89,0,0,1-13.85,13.85H275.74a13.89,13.89,0,0,1-13.86-13.85V1711.5a13.89,13.89,0,0,1,13.86-13.85h517.8A13.89,13.89,0,0,1,807.39,1711.5Z"/>
          <path class="cls-1" d="M892.87,1658.43v25.38A13.89,13.89,0,0,1,879,1697.65H361.22a13.89,13.89,0,0,1-13.85-13.85v-25.38a13.89,13.89,0,0,1,13.85-13.85H879A13.89,13.89,0,0,1,892.87,1658.43Z"/>
          <path class="cls-1" d="M915.76,1552.52v25.37a13.89,13.89,0,0,1-13.85,13.85H384.11a13.89,13.89,0,0,1-13.85-13.85v-25.37a13.89,13.89,0,0,1,13.85-13.86h517.8A13.89,13.89,0,0,1,915.76,1552.52Z"/>
          <path class="cls-1" d="M836.26,1605.35v25.37a13.89,13.89,0,0,1-13.85,13.86H304.61a13.89,13.89,0,0,1-13.85-13.86v-25.37a13.88,13.88,0,0,1,13.85-13.85h517.8A13.89,13.89,0,0,1,836.26,1605.35Z"/>
          <path class="cls-2" d="M807.39,1711.5v25.38a13.89,13.89,0,0,1-13.85,13.85h-71c-23.93-34.46-104.83-48.18-184-53.07h255A13.89,13.89,0,0,1,807.39,1711.5Z"/>
          <path class="cls-2" d="M685.68,1644.58c-148.33,0-223.73,36.21-250.81,53.07H361.22a13.89,13.89,0,0,1-13.85-13.85v-25.38a13.89,13.89,0,0,1,13.85-13.85Z"/>
          <path class="cls-2" d="M384.11,1538.66H663.89c-93,.49-220.74,47.81-225.19,52.85l-.26.23H384.11a13.89,13.89,0,0,1-13.85-13.85v-25.37A13.89,13.89,0,0,1,384.11,1538.66Z"/>
          <path class="cls-1" d="M915.76,1449v25.37a13.89,13.89,0,0,1-13.85,13.85H384.11a13.88,13.88,0,0,1-13.85-13.85V1449a13.89,13.89,0,0,1,13.85-13.86h517.8A13.89,13.89,0,0,1,915.76,1449Z"/>
          <path class="cls-1" d="M916.94,1501.88v25.37a13.89,13.89,0,0,1-13.85,13.86H385.29a13.89,13.89,0,0,1-13.85-13.86v-25.37A13.88,13.88,0,0,1,385.29,1488h517.8A13.88,13.88,0,0,1,916.94,1501.88Z"/>
          <path class="cls-2" d="M384.11,1435.19H663.89c-93,.49-220.74,47.81-225.19,52.85l-.26.23H384.11a13.88,13.88,0,0,1-13.85-13.85V1449A13.89,13.89,0,0,1,384.11,1435.19Z"/>
        </g>
        <g>
          <circle class="cls-1" cx="571.05" cy="1294.21" r="140.97" transform="translate(-781.43 1708.79) rotate(-83.23)"/>
          <path class="cls-3" d="M571.31,1424.14a133.06,133.06,0,0,1-15.56-.91,129.71,129.71,0,1,1,15.56.91Zm-.51-253.93a124.44,124.44,0,1,0,14.86.89A126.13,126.13,0,0,0,570.8,1170.21Z"/>
          <path class="cls-3" d="M587.85,1333a22,22,0,0,0-.32-7.76,16.09,16.09,0,0,0-3.28-6.44,30.41,30.41,0,0,0-6.56-5.79,80.35,80.35,0,0,0-10.16-5.69A210.36,210.36,0,0,1,548.77,1297a66.49,66.49,0,0,1-14-11.42,39.11,39.11,0,0,1-8.29-13.92,44.14,44.14,0,0,1,3.57-33.38,37.11,37.11,0,0,1,10.35-11.5,46.33,46.33,0,0,1,14.82-7.06,61.81,61.81,0,0,1,18.5-2.13l2.61-22,17.72,2.1L591.38,1220a55.4,55.4,0,0,1,16.68,7.09,41.89,41.89,0,0,1,18.67,26.78,55.74,55.74,0,0,1,.73,18.92l-32-3.8q1.46-12.34-3.29-19.12t-13.95-7.86a24,24,0,0,0-8.75.37,16.25,16.25,0,0,0-6.38,3.1,15.15,15.15,0,0,0-4.11,5.3,22.28,22.28,0,0,0-1.95,7,20.42,20.42,0,0,0,.29,7,15.09,15.09,0,0,0,3.14,6.16,30.49,30.49,0,0,0,6.61,5.79,103,103,0,0,0,10.56,6.11q10.26,5.29,18.57,10.55a67.24,67.24,0,0,1,14,11.51,37.76,37.76,0,0,1,9.72,31.67,40.37,40.37,0,0,1-5.08,15.88,36.68,36.68,0,0,1-10.39,11.39,44.76,44.76,0,0,1-14.9,6.79,66.75,66.75,0,0,1-18.59,2l-2.43,20.47L550.87,1391l2.42-20.37a74.84,74.84,0,0,1-17.3-6.12,47.44,47.44,0,0,1-14.17-10.71,42.44,42.44,0,0,1-8.89-15.92q-2.94-9.32-1.47-21.66l32,3.8a31.85,31.85,0,0,0,.6,12.43,20.59,20.59,0,0,0,4.55,8.47,20,20,0,0,0,7.32,5,34.22,34.22,0,0,0,8.78,2.24A28.58,28.58,0,0,0,574,1348a19.07,19.07,0,0,0,7-2.92,15.18,15.18,0,0,0,4.65-5.13A18.5,18.5,0,0,0,587.85,1333Z"/>
        </g>
        <g>
          <polygon class="cls-4" points="2026.73 93.94 1869.09 683.82 1863.58 669.61 1851.38 679.09 1845.75 664.85 1832.36 674 1826.58 659.73 1814.31 669.18 1805.97 654.22 1793.68 663.67 1785.78 648.82 1770.41 657.45 1762.85 642.69 1749.26 651.8 1745 637.92 1731.14 646.95 1726.51 632.98 1715.28 642.72 1709.68 628.49 1696.75 637.76 1687.24 622.49 1673.42 631.53 1666.56 616.96 1653.33 626.16 1648.21 612.06 1636.74 621.73 1630.65 607.37 1618.21 616.77 1612.6 602.54 1598.79 611.58 1593.09 597.33 1579.18 606.34 1573.68 592.14 1561.2 601.54 1553.09 586.64 1540.16 595.91 1533.58 581.42 1517.57 589.88 1675.2 0 2026.73 93.94"/>
          <path class="cls-5" d="M1960.57,159.75,1707.09,92a9,9,0,0,1-6.35-11h0a9,9,0,0,1,11-6.35l253.48,67.74a9,9,0,0,1,6.35,11h0A9,9,0,0,1,1960.57,159.75Z"/>
          <path class="cls-5" d="M1945.7,215.37l-253.48-67.74a9,9,0,0,1-6.35-11h0a9,9,0,0,1,11-6.35L1950.33,198a9,9,0,0,1,6.35,11h0A9,9,0,0,1,1945.7,215.37Z"/>
          <path class="cls-5" d="M1930.84,271l-253.48-67.74a9,9,0,0,1-6.35-11h0a9,9,0,0,1,11-6.35l253.48,67.74a9,9,0,0,1,6.35,11h0A9,9,0,0,1,1930.84,271Z"/>
          <path class="cls-5" d="M1916,326.62l-253.48-67.74a9,9,0,0,1-6.35-11h0a9,9,0,0,1,11-6.35L1920.6,309.3a9,9,0,0,1,6.35,11h0A9,9,0,0,1,1916,326.62Z"/>
          <path class="cls-5" d="M1901.11,382.24,1647.63,314.5a9,9,0,0,1-6.35-11h0a9,9,0,0,1,11-6.35l253.48,67.74a9,9,0,0,1,6.35,11h0A9,9,0,0,1,1901.11,382.24Z"/>
          <path class="cls-5" d="M1750.84,487.19a10.64,10.64,0,0,0,.38-3.72,7.76,7.76,0,0,0-1.12-3.3,14.66,14.66,0,0,0-2.73-3.21,38.8,38.8,0,0,0-4.46-3.41,101.36,101.36,0,0,1-8.25-6.21,32.06,32.06,0,0,1-5.91-6.41,18.85,18.85,0,0,1-3-7.21,21.28,21.28,0,0,1,4-15.68,17.89,17.89,0,0,1,5.73-4.78,22.35,22.35,0,0,1,7.56-2.35,29.8,29.8,0,0,1,9,.25l2.76-10.33,8.31,2.22-2.8,10.47a26.71,26.71,0,0,1,7.47,4.53,20.19,20.19,0,0,1,7.07,14.06,26.87,26.87,0,0,1-.95,9.08l-15-4q1.55-5.79-.26-9.35a9.1,9.1,0,0,0-6.12-4.71,11.56,11.56,0,0,0-4.2-.42,7.83,7.83,0,0,0-3.26,1,7.31,7.31,0,0,0-2.33,2.25,10.74,10.74,0,0,0-1.41,3.19,9.85,9.85,0,0,0-.34,3.37,7.28,7.28,0,0,0,1.08,3.16,14.7,14.7,0,0,0,2.76,3.22,49.69,49.69,0,0,0,4.62,3.64q4.53,3.23,8.14,6.31a32.44,32.44,0,0,1,5.87,6.45,18.2,18.2,0,0,1,2.46,15.78,19.44,19.44,0,0,1-3.51,7.23,17.69,17.69,0,0,1-5.74,4.72,21.59,21.59,0,0,1-7.58,2.22,32.18,32.18,0,0,1-9-.34l-2.56,9.6-8.26-2.21,2.55-9.55a36.07,36.07,0,0,1-7.84-4.11,22.86,22.86,0,0,1-6-6.08,20.46,20.46,0,0,1-3.15-8.21,24.9,24.9,0,0,1,.78-10.44l15,4a15.36,15.36,0,0,0-.57,6,9.93,9.93,0,0,0,1.59,4.35,9.64,9.64,0,0,0,3.15,2.91,16.49,16.49,0,0,0,4,1.67,13.79,13.79,0,0,0,4.45.52,9.18,9.18,0,0,0,3.55-.91,7.31,7.31,0,0,0,2.57-2.13A8.93,8.93,0,0,0,1750.84,487.19Z"/>
          <path class="cls-5" d="M1744.88,535.83a68.85,68.85,0,0,1-17.79-2.35,68.48,68.48,0,0,1-48.48-83.83h0a68.45,68.45,0,1,1,66.27,86.18Zm-.22-134.29a65.84,65.84,0,0,0-63.42,48.81h0a65.76,65.76,0,1,0,80.5-46.55A66.13,66.13,0,0,0,1744.66,401.54Z"/>
        </g>
        <g>
          <path class="cls-1" d="M883,853.29,357.4,473.12a22.47,22.47,0,0,1-5-31.29L561,153.35a22.47,22.47,0,0,1,31.29-5l525.62,380.16a22.47,22.47,0,0,1,5,31.29L914.3,848.26A22.47,22.47,0,0,1,883,853.29Z"/>
          <rect class="cls-2" x="450.2" y="379.17" width="693.5" height="79.32" transform="translate(396.66 -387.59) rotate(35.88)"/>
          <rect class="cls-6" x="463.54" y="414.72" width="424.32" height="62.37" transform="translate(389.52 -311.39) rotate(35.88)"/>
          <path class="cls-6" d="M466.32,492.19l-42.7-30.88a16.93,16.93,0,0,1-3.8-23.64l26.64-36.83a16.93,16.93,0,0,1,23.64-3.8l42.7,30.88a16.93,16.93,0,0,1,3.8,23.64L490,488.39A16.93,16.93,0,0,1,466.32,492.19Z"/>
          <g>
            <path class="cls-6" d="M925.46,736.25,584.2,489.43a4.39,4.39,0,0,1-1-6.13h0a4.39,4.39,0,0,1,6.13-1L930.61,729.14a4.39,4.39,0,0,1,1,6.13h0A4.39,4.39,0,0,1,925.46,736.25Z"/>
            <path class="cls-6" d="M904,765.92,562.74,519.1a4.39,4.39,0,0,1-1-6.13h0a4.39,4.39,0,0,1,6.13-1L909.15,758.81a4.39,4.39,0,0,1,1,6.13h0A4.39,4.39,0,0,1,904,765.92Z"/>
            <path class="cls-6" d="M883.21,794.67,542,547.85a4.39,4.39,0,0,1-1-6.13h0a4.39,4.39,0,0,1,6.13-1L888.36,787.55a4.39,4.39,0,0,1,1,6.13h0A4.39,4.39,0,0,1,883.21,794.67Z"/>
          </g>
        </g>
        <g>
          <path class="cls-7" d="M599.39,773.85c-39.17-5-49.06,30.6-49.06,30.6s-48.64,20.06-65.08,27.48c-15.23,6.87-61.59,29.7-61.59,29.7S337.42,759.17,304.83,756.51l5.58,78.28s38.4,41.91,53.7,55.4c10.28,9.07,48.64,34.84,48.64,34.84s36.27-12,85.43-48c15.43-11.31,59.47-48.14,59.47-48.14,12.07,1.67,22.64-1.48,32.37-15.41s12.41-8.58,18.6-18.95C617,780.5,603.88,775.26,599.39,773.85Z"/>
          <polygon class="cls-8" points="160.81 1644.81 179.97 1725.52 208.67 1725.35 209.72 1644.81 160.81 1644.81"/>
          <path class="cls-9" d="M194.52,1718.4c-32.47-1.4-33.71,31.62-33.71,31.62h66.38S227,1717,194.52,1718.4Z"/>
          <polygon class="cls-8" points="409.92 1648.25 456.76 1725.52 485.46 1725.35 462.35 1637.63 409.92 1648.25"/>
          <path class="cls-9" d="M471.31,1718.4C438.84,1717,437.6,1750,437.6,1750H504S503.78,1717,471.31,1718.4Z"/>
          <path class="cls-10" d="M260.49,584.29c-9.91-5.63-21.78-6.25-30.09-5.76,2.14-2.21,6.35-3,6.35-3-5.15-.77-16.65,4.34-16.65,4.34-71.64-27.61-82.9,77.88-81.39,102.39s-24.07,32.51-61.35,51.81C6.25,770.91,0,820.24,0,820.24c.55.33,1.13.7,1.75,1.12,3.53-6,10.79-17.2,16.92-18.9-.23.54-7.24,15.45-9.85,24,21,16,60.23,51.32,87.58,76.39-.12-4.9.07-11.86,1.86-15.53l3.38,20.35c14.64,13.46,24.73,22.92,24.73,22.92C124.56,910.8,215.93,806.29,263.6,775c11.6-17.09,15.73-47.27,16-49.64-2,23.93-6.1,37.35-9.76,44.91C310.25,733.11,286.75,599.22,260.49,584.29Z"/>
          <path class="cls-11" d="M260.78,776.55c-6.62-3.09-2.54-59.46-2.54-59.46L202.12,706c-3.9,18.46-1.86,50.73-8.83,52.11-.23,0,10.53,21.39,27,25.88C237.77,788.73,261,776.66,260.78,776.55Z"/>
          <path class="cls-4" d="M203.49,599.64s30.21-27.9,60,1.89C263.46,601.53,243.61,599.25,203.49,599.64Z"/>
          <path class="cls-9" d="M199.8,700.82s-15.53-24.54-19.26-45.53c-2.66-15,5-70.52,60.78-62.52a75.82,75.82,0,0,1,31.45,11.89c12.12,8.18,29.6,25.85,10.05,74.31l-5.08,16.37Z"/>
          <path class="cls-4" d="M303.88,1069.53H168.69c0,.24.06.49.09.73l-59,.71s-11,21.84-15.8,84c-6.61,85.88-1.75,245.94,58.85,521.36h77c1.7,0,1.2-219.93.53-395l.81,2.14c69.77,184.29,171.92,393.74,171.92,393.74h80C466.43,1586.39,303.88,1069.53,303.88,1069.53Z"/>
          <path class="cls-8" d="M153.13,851.32l-52.05-5.59s-3.4,18.72-9.35,134.64c0,0-17,103.78-21.37,153.7,0,0-26,18-12.6,50.06,0,0,6.45,12.71,13.05,4.41s3-6.11,12.57-17.6S97,1144.4,92.8,1134.56c0,0,39.89-138.65,41.18-149.67S153.13,851.32,153.13,851.32Z"/>
          <path class="cls-12" d="M403.07,1677.25s-102.15-209.45-171.92-393.74c-2-25.54-5.32-62.23,10.7-75C241.85,1208.52,412,1523.64,403.07,1677.25Z"/>
          <path class="cls-1" d="M314.93,1008.78c-.47,94,1.42,100.25,1.42,100.25s-74.89,3-123.83-7.94c-1.06-.23-2.25-.59-3.43-.83-16.36-4-47.4-13.74-66.13-19.67-9.36-3-15.64-5-15.64-5,1.42-3.8,2.85-7.47,4.27-10.91,18.25-45.62,32.11-65.53,34.24-79.51.15-1,.29-2,.43-2.93q.42-2.94.78-5.88l.33-2.9c0-.31.07-.63.1-.94a360.48,360.48,0,0,0,.5-66.15c-.76-10.06-1.87-19.87-3.19-29.29l-1.65-.8L96,853.43c9.61-46.2,26.86-71.25,26.86-71.25l.2-.1c18-13.69,48.4-25.22,73.33-27.7,5.68,8.18,15.73,16.22,30.66,15.75,17.3-.36,24.91-9.12,30-17.18,37.33,1.07,47.85,2.84,47.85,2.84l0,.05c1-.14,15.51-1.54,59.22,35.59,0,0-25.61,58.8-25.92,73l-.68-.51c1,7.48,1.71,15,2.07,22.43C340,898.22,314.93,1006.18,314.93,1008.78Z"/>
          <path class="cls-12" d="M202.9,1676.37H152.82C92.22,1400.95,87.36,1240.89,94,1155,109,1231.54,194.91,1667.67,202.9,1676.37Z"/>
          <path class="cls-2" d="M123,1080.59c-9.36-3-15.64-5-15.64-5,1.42-3.8,2.85-7.47,4.27-10.91,18.25-45.62,32.11-65.53,34.24-79.51.15-1,.29-1.94.43-2.93q.42-2.89.78-5.88c.12-1,.23-1.93.33-2.9,0-.31.07-.63.1-.94a360.48,360.48,0,0,0,.5-66.15c-.76-10.06-1.87-19.87-3.19-29.29,0,0,4.51-.18,6.23,3.44C197.34,978.31,167.28,1040.78,123,1080.59Z"/>
          <path class="cls-7" d="M268.14,731.95S198,733.11,198,689.42s-9.13-73,35.64-75.54,53.49,14.07,57.05,28.65S286.38,730.52,268.14,731.95Z"/>
          <path class="cls-9" d="M288.57,618.24c-10.82-13.12-19-10.27-23.6-6.33-6.65-9.94-19.62-9.21-32.07-5.25-16.37,5.2-33.15,11.56-36,33.48-2.8,21.49-22.27,31.18-22.27,31.18s12.78,7.89,42.25.32c23.19-6,40-39,46.14-52.76,4.17,3.71,13,12.27,15.61,20.66,3.5,11.12,5.07,34,11.74,33.24C290.36,672.78,304.83,637.95,288.57,618.24Z"/>
          <g>
            <path class="cls-13" d="M611.33,771.54,585.2,753.6a2.84,2.84,0,0,0-.7-.35h0L580,751.43l-24.52,75.71,20.59,16.93,4.22,1.73h0l.05,0h0c1.71.69,3.88-.4,4.79-2.63l27.21-66.69A4.1,4.1,0,0,0,611.33,771.54Z"/>
            <path class="cls-4" d="M550.15,822.65l24.93,20.87c1.76,1.47,4.5.39,5.55-2.18l27.21-66.69a4.11,4.11,0,0,0-1.05-5l-26.13-17.94c-1.78-1.22-4.33-.1-5.33,2.35l-26,63.76A4.2,4.2,0,0,0,550.15,822.65Z"/>
            <polygon class="cls-1" points="554.2 814.47 578.75 835.03 603.43 774.54 577.7 756.87 554.2 814.47"/>
            <path class="cls-13" d="M563.88,828.38a2.4,2.4,0,0,0-1.09-2.9c-.94-.38-2,.29-2.32,1.5a2.41,2.41,0,0,0,1.09,2.9C562.5,830.27,563.54,829.6,563.88,828.38Z"/>
            <path class="cls-14" d="M578.59,802.14a6.18,6.18,0,0,0,.52-1.64,2.45,2.45,0,0,0-.14-1.29,2.94,2.94,0,0,0-.81-1.08,7.55,7.55,0,0,0-1.5-1,19.94,19.94,0,0,1-2.78-1.77,6.27,6.27,0,0,1-1.8-2.11,5.38,5.38,0,0,1-.52-2.77,10.73,10.73,0,0,1,1.07-3.75,15.4,15.4,0,0,1,2.12-3.42,15.18,15.18,0,0,1,2.82-2.67,14.94,14.94,0,0,1,3.34-1.83,13.24,13.24,0,0,1,3.66-.86l2.15-4.73,3.2.05-2.18,4.8a5.69,5.69,0,0,1,2.62,1.14,4.28,4.28,0,0,1,1.41,2.16,7.17,7.17,0,0,1,.11,3.11,15.68,15.68,0,0,1-1.28,4l-5.77-.1q1.21-2.65.81-4a1.91,1.91,0,0,0-2-1.36,4.62,4.62,0,0,0-1.68.27,5.25,5.25,0,0,0-1.44.8,6.25,6.25,0,0,0-1.18,1.22,8.36,8.36,0,0,0-.89,1.52,5.71,5.71,0,0,0-.47,1.48,2.3,2.3,0,0,0,.13,1.24,3,3,0,0,0,.82,1.08,9.66,9.66,0,0,0,1.54,1.06,22.66,22.66,0,0,1,2.72,1.83,6.36,6.36,0,0,1,1.78,2.13,5.47,5.47,0,0,1,.52,2.78,10.64,10.64,0,0,1-1.06,3.72,15.45,15.45,0,0,1-2.16,3.48,14.94,14.94,0,0,1-2.82,2.65,14.19,14.19,0,0,1-7,2.6l-2,4.4-3.18-.05,2-4.38a8.19,8.19,0,0,1-2.81-.92,4.46,4.46,0,0,1-1.88-2,6.07,6.07,0,0,1-.49-3.18,14,14,0,0,1,1.35-4.57l5.77.1a8.82,8.82,0,0,0-.82,2.63,3,3,0,0,0,.23,1.7,1.88,1.88,0,0,0,1,.91,4.2,4.2,0,0,0,1.49.28,5.37,5.37,0,0,0,1.78-.26,5.82,5.82,0,0,0,1.55-.78,6.19,6.19,0,0,0,1.27-1.19A7.06,7.06,0,0,0,578.59,802.14Z"/>
          </g>
        </g>
        <path class="cls-4" d="M1478.79,1750.68l-479-.63c-89.4-.11-162.44-73.35-162.32-162.73L838.9,493.24c.1-71.48,46.93-132.5,111.38-154a160.9,160.9,0,0,1,51.36-8.3h2.46l105.52.14,261.4.34h.15l109.46.15c89.4.11,162.44,73.35,162.32,162.73l-1.42,1094.08C1641.41,1677.76,1568.19,1750.79,1478.79,1750.68Z"/>
        <path class="cls-1" d="M1460.27,1722.21l-441.89-.57c-75.92-.11-138-62.31-137.87-138.24l.74-576.1.11-80,.08-64.09.3-232.09.15-114.65,0-19.24c.1-75.93,62.31-138,138.23-137.88l89.73.12,137.08.18L1462,360a137.46,137.46,0,0,1,94.83,38.13,138.87,138.87,0,0,1,26.07,33.83,136.7,136.7,0,0,1,17,66.27l-1.42,1086.14C1598.4,1660.27,1536.21,1722.3,1460.27,1722.21Z"/>
        <path class="cls-4" d="M1371,388.21l-261.4-.34a28.49,28.49,0,0,1-28.37-28.44h0a28.49,28.49,0,0,1,28.44-28.37l261.4.34a28.49,28.49,0,0,1,28.37,28.44h0A28.49,28.49,0,0,1,1371,388.21Z"/>
        <g class="cls-15">
          <path class="cls-3" d="M1466.9,1068.7l-445.93-.83a23.54,23.54,0,0,1-23.43-23.51h0a23.54,23.54,0,0,1,23.51-23.43l445.93.83a23.54,23.54,0,0,1,23.43,23.51h0A23.54,23.54,0,0,1,1466.9,1068.7Z"/>
          <path class="cls-3" d="M1466.68,1190l-445.93-.83a23.54,23.54,0,0,1-23.43-23.51h0a23.54,23.54,0,0,1,23.51-23.43l445.93.83a23.54,23.54,0,0,1,23.43,23.51h0A23.54,23.54,0,0,1,1466.68,1190Z"/>
          <path class="cls-3" d="M1466.43,1323l-445.93-.83a23.54,23.54,0,0,1-23.43-23.51h0a23.54,23.54,0,0,1,23.51-23.43l445.93.83a23.54,23.54,0,0,1,23.43,23.51h0A23.54,23.54,0,0,1,1466.43,1323Z"/>
          <path class="cls-3" d="M1119.81,1557l-99.75-.19a23.54,23.54,0,0,1-23.43-23.51h0a23.54,23.54,0,0,1,23.51-23.43l99.75.19a23.54,23.54,0,0,1,23.43,23.51h0A23.54,23.54,0,0,1,1119.81,1557Z"/>
          <path class="cls-3" d="M1466,1557.66l-99.75-.19a23.54,23.54,0,0,1-23.43-23.51h0a23.54,23.54,0,0,1,23.51-23.43l99.75.19a23.54,23.54,0,0,1,23.43,23.51h0A23.54,23.54,0,0,1,1466,1557.66Z"/>
        </g>
        <path class="cls-3" d="M1240.29,922.46c-98.33,0-178.33-80-178.33-178.33s80-178.33,178.33-178.33,178.33,80,178.33,178.33S1338.62,922.46,1240.29,922.46Zm0-346.5c-92.73,0-168.17,75.44-168.17,168.17s75.44,168.17,168.17,168.17,168.17-75.44,168.17-168.17S1333,576,1240.29,576Z"/>
        <path class="cls-4" d="M1120.52,680.34s70.53,124.46,108.24,198.28c0,0,102.48-257,165.16-343.08,0,0-117.26,100.59-180.28,203C1213.65,738.54,1171.48,711.68,1120.52,680.34Z"/>
        <g id="man">
          <path class="cls-16" d="M1644.33,1164.43l-17.42-12.4s-7.19-40.87-52.67-42.55c0,0-18.68.68-12.43,13.11s5.6,7,14,24.65,24.08,30.84,38.13,31.23l15,6.56Z"/>
          <path class="cls-17" d="M1626.91,1152l-12.13,22.24s168.62,155.28,194.36,133.38c0,0,145.27-185.37,126.78-283-16.71-88.26-52.69-91-59.42-90.7a10.56,10.56,0,0,0-1.1.09S1855,918.9,1783,1224.18C1752.14,1201.83,1715.34,1196.09,1626.91,1152Z"/>
          <g>
            <path class="cls-4" d="M2087.91,1424.6l.29,100.84a13.48,13.48,0,0,0,13.52,13.44l184.11-.53a13.48,13.48,0,0,0,13.44-13.52L2299,1424a13.48,13.48,0,0,0-13.52-13.44l-48.57.14,0-13.3a11.86,11.86,0,0,0-11.88-11.81l-63.28.18a11.86,11.86,0,0,0-11.81,11.88l0,13.3-48.57.14A13.48,13.48,0,0,0,2087.91,1424.6Zm137.24-13.87-63.49.18,0-13.3a.11.11,0,0,1,.11-.11l63.28-.18a.11.11,0,0,1,.11.11Z"/>
            <rect class="cls-18" x="2088.01" y="1458.2" width="211.07" height="3.95" transform="translate(4391.25 2914.08) rotate(179.84)"/>
          </g>
          <path class="cls-19" d="M1413.14,1715.29l-11.69,34.94h-116S1315.15,1703.1,1413.14,1715.29Z"/>
          <path class="cls-16" d="M1826.06,959.51c-11.48-29.93-15.33-48.26-15.33-48.26l50.18-60.3C1872,917.75,1921,941.11,1921,941.11s-71.9,55.33-121,50.06A112.66,112.66,0,0,1,1826.06,959.51Z"/>
          <path class="cls-20" d="M1796.4,913s78.73-2.67,76.31-51.67,6.12-82.35-44.25-82.72-59.21,18.81-62.38,35.36S1775.86,912.42,1796.4,913Z"/>
          <path class="cls-21" d="M1872.87,864.7s-14.35-63.4-85.82-59.67c-49,2.56-28.15-43-24-50.35,0,0,37.74-.37,76.58.31C1921.18,756.43,1879.22,853.57,1872.87,864.7Z"/>
          <path class="cls-21" d="M1465.88,1715.29l-11.69,34.94h-116S1367.89,1703.1,1465.88,1715.29Z"/>
          <path class="cls-21" d="M2015.09,1342.15s-197.06,32.2-262.83,45c-96.92,18.87-149.83,34-149.83,34l-267.18,296.2h99.4s221.92-143.24,250.28-178.71h244.36S2086.62,1511.73,2015.09,1342.15Z"/>
          <path class="cls-22" d="M2048,1360c-82.42,40.15-174.4,65-205.83,72.55a8,8,0,0,1-9.76-8.62c.45-4,.89-9.73,1-17.12.37-20.47-1.86-53.79-14.35-99.23,0-.09,0-.16-.07-.25-5.5-20-13.26-45.32-20.92-72.61l-.18-.67c-5.51-19.63-10.95-40.25-15.43-60.59l0-.09c-8-36-12.95-71.16-10.07-98.22,4.14-38.72,16.28-68.26,31.6-90.51.12,0,12.48-17.68,12.57-17.7,16.7-.28,33.07-5,48-17.07,16.28-13.2,33.79-27.47,37.36-25.88,50,22.15,92.08,120.73,110.83,231.87,15.34,90.89,34.52,167,41,191.73A10.76,10.76,0,0,1,2048,1360Z"/>
          <g>
            <path class="cls-13" d="M1550.76,1088.82,1578,1070.1a3,3,0,0,1,.73-.37l4.61-1.89,25.64,79-21.94,17.76-3.94,1.71h0l-.05,0h0c-1.78.72-4-.42-5-2.75l-28.4-69.59A4.28,4.28,0,0,1,1550.76,1088.82Z"/>
            <path class="cls-4" d="M1614.6,1142.15l-26,21.78c-1.83,1.54-4.69.41-5.79-2.28l-28.4-69.59a4.28,4.28,0,0,1,1.1-5.17l27.26-18.72c1.86-1.28,4.52-.1,5.56,2.45l27.15,66.54A4.38,4.38,0,0,1,1614.6,1142.15Z"/>
            <polygon class="cls-23" points="1610.38 1133.62 1584.75 1155.07 1559 1091.95 1585.85 1073.51 1610.38 1133.62"/>
            <path class="cls-13" d="M1600.27,1148.13a2.51,2.51,0,0,1,1.13-3c1-.4,2.07.3,2.42,1.57a2.51,2.51,0,0,1-1.13,3C1601.71,1150.1,1600.63,1149.4,1600.27,1148.13Z"/>
            <path class="cls-14" d="M1585.89,1122.33a6.46,6.46,0,0,0,1.32,1.24,6.07,6.07,0,0,0,1.62.81,5.62,5.62,0,0,0,1.86.27,4.39,4.39,0,0,0,1.56-.29,2,2,0,0,0,1.05-.95,3.14,3.14,0,0,0,.23-1.77,9.17,9.17,0,0,0-.86-2.74l6-.1a14.59,14.59,0,0,1,1.41,4.76,6.34,6.34,0,0,1-.51,3.32,4.66,4.66,0,0,1-2,2,8.53,8.53,0,0,1-2.94,1l2.08,4.57-3.31.06-2.09-4.59a14.81,14.81,0,0,1-7.3-2.71,15.59,15.59,0,0,1-2.95-2.76,16.12,16.12,0,0,1-2.25-3.63,11.12,11.12,0,0,1-1.1-3.89,5.71,5.71,0,0,1,.54-2.9,6.64,6.64,0,0,1,1.86-2.23,23.63,23.63,0,0,1,2.84-1.91,10.14,10.14,0,0,0,1.61-1.11,3.06,3.06,0,0,0,.85-1.13,2.4,2.4,0,0,0,.14-1.29,6,6,0,0,0-.49-1.55,8.79,8.79,0,0,0-.93-1.59,6.57,6.57,0,0,0-1.23-1.27,5.49,5.49,0,0,0-1.5-.83,4.83,4.83,0,0,0-1.76-.28,2,2,0,0,0-2.14,1.42q-.41,1.39.85,4.16l-6,.1a16.39,16.39,0,0,1-1.34-4.17,7.46,7.46,0,0,1,.11-3.24,4.47,4.47,0,0,1,1.47-2.26,5.94,5.94,0,0,1,2.74-1.18l-2.28-5,3.34-.06,2.24,4.94a13.83,13.83,0,0,1,3.82.9,15.62,15.62,0,0,1,3.48,1.91,15.85,15.85,0,0,1,2.95,2.79,16,16,0,0,1,2.21,3.57,11.19,11.19,0,0,1,1.12,3.91,5.61,5.61,0,0,1-.55,2.89,6.54,6.54,0,0,1-1.88,2.2,20.74,20.74,0,0,1-2.9,1.85,7.88,7.88,0,0,0-1.56,1,3.06,3.06,0,0,0-.84,1.13,2.57,2.57,0,0,0-.14,1.35,6.45,6.45,0,0,0,.55,1.71A7.38,7.38,0,0,0,1585.89,1122.33Z"/>
          </g>
          <path class="cls-20" d="M1644.33,1190.5l-17.42-12.4s-7.19-40.87-52.67-42.56c0,0-18.68.68-12.43,13.12s5.6,7,14,24.65,24.08,30.84,38.13,31.23l15,6.56Z"/>
          <path class="cls-24" d="M1907.69,1293.8c-.92,31.25-29.17,95.67-74.26,113,.37-20.47-1.86-53.79-14.35-99.23,0-.09,0-.16-.07-.25-5.5-20-13.26-45.32-20.92-72.61l82.78-120.38S1908.67,1260,1907.69,1293.8Z"/>
          <path class="cls-18" d="M2048,1360s-114.91,1.46-263.47,35.14c-54.42,12.34-169.87,37.63-169.87,37.63L1369.8,1717.37h99.4s221.92-143.24,250.28-178.71h244.36S2119.53,1529.54,2048,1360Z"/>
          <path class="cls-24" d="M1903.22,1091.69s-59.59,119.68-66.05,126.13c-5.15,5.15-29.6,13.15-39.25,16.18-5.51-19.63-10.95-40.25-15.43-60.59l0-.09s15.48-25.52,22.93-51.48,47.51-86.76,47.51-86.76l31,20.36Z"/>
          <path class="cls-22" d="M1629.61,1178.28l-14.83,28.38S1783.4,1361.93,1809.13,1340c0,0,145.27-185.37,126.78-283-16.71-88.26-52.69-91-59.42-90.7a10.9,10.9,0,0,0-1.1.09S1855,951.28,1783,1256.56C1752.14,1234.21,1718,1222.33,1629.61,1178.28Z"/>
        </g>
        <g id="girl_2" data-name="girl 2">
          <path class="cls-25" d="M494.74,1510.78l.77-.23C495.37,1510.6,495.11,1510.69,494.74,1510.78Z"/>
          <g>
            <path class="cls-18" d="M930.08,1646.23c-18-16.87-43.46-64.16-43.46-64.16s-25.9,10-88.7,11.62-96.66-8-96.66-8c-17.94,26.62-23.87,53.7-41.79,69-15,12.75-69.54,13.46-69.54,13.46s64,80.64,129.43,81.75c67.37,1.14,126.78,0,126.78,0s73.8-24.11,125.27-67.25C971.42,1682.64,934.4,1650.28,930.08,1646.23Z"/>
            <path class="cls-21" d="M824.72,1108.72c-10.44-5-22.5-4.73-30.87-3.63,2-2.39,6.2-3.51,6.2-3.51-5.27-.4-16.53,5.61-16.53,5.61-74.51-22.71-78.21,84.86-74.9,109.55s-22,34.65-58.3,56.91c-69.28,42.47-72,92.85-72,92.85.58.29,1.2.63,1.85,1,3.13-6.31,9.67-18.2,15.74-20.36-.19.57-6.2,16.17-8.22,25,22.4,14.62,64.69,47.54,94.2,70.92-.48-4.95-.79-12,.75-15.85l4.9,20.35c15.79,12.55,26.7,21.39,26.7,21.39C711,1449,795.83,1336.63,841.79,1301.48c10.5-18.14,12.47-49,12.61-51.41-.28,24.36-3.45,38.25-6.6,46.16C885.94,1255.69,852.39,1121.91,824.72,1108.72Z"/>
            <path class="cls-26" d="M750.93,1135.64s27.52-27.24,59.81.73C810.74,1136.37,791.5,1132.31,750.93,1135.64Z"/>
            <path class="cls-18" d="M740.45,1236.11a235.31,235.31,0,0,1-13.94-39c-3.79-15-.11-71.73,56.95-67.7a76.94,76.94,0,0,1,32.69,9.74c12.86,7.4,31.84,24,15.59,74.47l-3.95,16.94Z"/>
            <path class="cls-11" d="M863.18,1550.82c15.29-167.62,8.61-235.64,8.61-235.64s-24.13-5.82-56.11-15.66c-3.41-14.92-1.8-45.84-1.8-45.84l-55.79,1.25c-1.83,13.36-1,33.46-2.81,44.85-22.3,7.88-48.26,7.65-73.6,19.44,0,0,31.34,128.74,42.6,235.77C725.51,1566.61,861.84,1565.56,863.18,1550.82Z"/>
            <path class="cls-27" d="M820.22,1260.19c-14.77,14-33.13,32.76-72.48-2.07-7.7-6.81-7.14-17.25-7.55-32.25-.49-17.75-4.73-28.63-2.72-38.86,2.39-12.23,12.88-17.73,34.61-19.56,39.9-3.35,60,5.7,57.3,25.49C823.27,1237.09,835.25,1245.91,820.22,1260.19Z"/>
            <g>
              <path class="cls-18" d="M737,1176c-12.32,23.23-34.38,21.49-34.38,21.49s21.54,20.12,45.47,12.09,41-45,41-45C775.64,1145.21,743.23,1164.17,737,1176Z"/>
              <path class="cls-18" d="M801.43,1163.22c-3.39.75-13.44,3.54-13.44,3.54s23.65-.43,29,7.49,6.1,16.77,8.81,21.24a17.18,17.18,0,0,1,2.25,9.47S848.42,1152.84,801.43,1163.22Z"/>
            </g>
            <path class="cls-4" d="M963.19,1471.16s-39.74,7.95-57.9,30.09c0,0-19-42.32-21.06-42h0c-1.9.76-19.49,88.56-17.22,94.8s20.15,27.53,22.42,32.07c1,2-10.62,10.42-27.24,19.16-20.91,11-49.74,22.56-71.26,22.56-38.11,0-98.91-17.89-98.07-30a3.51,3.51,0,0,1,.06-.47c.85-4.25,26.49-32,27.62-45s-19.27-93.77-21.88-93.51a.1.1,0,0,0-.07,0c-2.27,1.88-20.63,46.16-20.63,46.16s-37.27-28.19-53.74-29.89c0,0,36.51-135.68,56.67-157.25,0,0,9.65-2.75,43.14-11.83,0,0,23.18,72,65.19,102.66,0,0,47.12-36.9,56-101.53,0,0,44.38,11,48.16,15.52S963.19,1471.16,963.19,1471.16Z"/>
            <path class="cls-12" d="M748.13,1559.15c-4.18,6.61-41.67,41.43-55.3,38.69a3.51,3.51,0,0,1,.06-.47c.85-4.25,26.49-32,27.62-45s-19.27-93.77-21.88-93.51a21.6,21.6,0,0,1,7.49-9.43C715.59,1442.58,752.67,1552,748.13,1559.15Z"/>
            <path class="cls-12" d="M862.15,1605.28c-11.55-19-19.9-46.31-21-49.82-1.7-5.39,22.71-94,34.63-98.49,4.79-1.83,7.24-.26,8.46,2.26h0c-1.9.76-19.49,88.56-17.22,94.8s20.15,27.53,22.42,32.07C890.4,1588.12,878.78,1596.54,862.15,1605.28Z"/>
            <path class="cls-11" d="M984,1672.36q-2.58,2.69-5.51,5.23c-15.29,13.22-59.79,27.73-102.58,39.38-13.44,3.66-26.7,7-38.84,10-10,3.13-30.42,9.59-52.25,17.19-30.82,10.73-44.29,5.6-59.56,2.9s-32.5,8-55.12-.28S653.28,1694,653.28,1694c7.66-5,37.44-6.47,57.6,8s47.18,11.78,47.18,11.78c1,.11,3.49-1.13,6.86-3.24,0,0,26.09-15.27,73.55-54.75q10.38-8.63,22.11-18.85c18-15.74,34.52-34.62,51.4-47.89,9.78-7.69,19.69-13.5,30.12-15.71,48.41-10.27,65.62,8.54,65.62,8.54S1018.56,1636.43,984,1672.36Z"/>
            <path class="cls-27" d="M756.39,1671.72v64.7c-13.93-4.67-26.08-8.55-33.84-11-11.77-3.16-24.47-6.73-37.17-10.56-34.77-10.49-69.45-23-84.79-34.7q-1.7-1.3-3.07-2.58c-38-35.59-23.47-98.76-23.47-98.76s12.38-15.79,57.15-5.51c11.24,2.57,22.65,8.83,34.07,17.07,15.27,11,30.57,25.58,45.59,39.72q7.62,7.18,14.83,13.83C736.87,1654.27,747.22,1663.6,756.39,1671.72Z"/>
            <path class="cls-11" d="M775.57,1743q3.36,1.18,6.45,2.13c-28.82,9.46-41.93,4.56-56.72,1.95-15.27-2.69-32.5,8-55.12-.28S653.28,1694,653.28,1694c6.52-4.27,29.06-6,48.05,2.55-4.75,7.12-10.09,13.59-16,18.35,12.7,3.84,25.4,7.4,37.17,10.56C733.72,1728.95,754,1735.44,775.57,1743Z"/>
            <path class="cls-22" d="M785.38,1696.9c-13.42,9.5-20.46,13.62-20.46,13.62-3.38,2.11-5.84,3.34-6.86,3.24,0,0-27,2.69-47.18-11.78a54.61,54.61,0,0,0-9.54-5.45c2.77-4.14,5.33-8.51,7.66-12.88a249,249,0,0,0,16.69-39.71c22.58,20.85,41.79,37.66,54.59,48.61Z"/>
            <path class="cls-17" d="M903.41,1709.12c-.77,10.35-3.77,35.28-15,38.92-19.56,6.34-34.93-3.82-51.07-.86-15,2.76-27.42,6.6-55.3-2.06q1.39-.45,2.83-1c21.83-7.6,42.21-14.07,52.25-17.19,12.13-3,25.4-6.34,38.84-10C885.12,1714.47,894.38,1711.84,903.41,1709.12Z"/>
            <path class="cls-11" d="M756.39,1570.25l-5.46,35c-51.24.63-139.37-42.4-139.37-42.4-12.5-19.35,10.89-83.47,13-89,20.52,1.67,38.29,21,49.95,28.67l-13.41,28.22C665.76,1532.49,756.39,1570.25,756.39,1570.25Z"/>
            <path class="cls-11" d="M829.42,1570.25l5.46,35c51.24.63,139.37-42.4,139.37-42.4,12.5-19.35-12-85.45-14.11-91-20.52,1.67-41.49,16.14-51.89,26.09l16.47,32.77C920,1532.49,829.42,1570.25,829.42,1570.25Z"/>
            <rect class="cls-22" x="692.82" y="1488.78" width="200.91" height="127.07"/>
            <circle class="cls-17" cx="793.28" cy="1552.32" r="8.67"/>
            <path class="cls-26" d="M665.27,1590.39a18.6,18.6,0,0,1-7.63,3.68c-31.95,8.46-50.08,60.86-57.06,86.1q-1.7-1.3-3.07-2.58c-38-35.59-23.47-98.76-23.47-98.76s12.38-15.79,57.15-5.51C642.44,1575.89,653.85,1582.14,665.27,1590.39Z"/>
            <path class="cls-26" d="M984,1672.36C971.9,1642.6,930,1604.48,912,1589c9.78-7.69,19.69-13.5,30.12-15.71,48.41-10.27,65.62,8.54,65.62,8.54S1018.56,1636.43,984,1672.36Z"/>
            <path class="cls-22" d="M875.94,1717c-13.44,3.66-26.7,7-38.84,10-10,3.13-30.42,9.59-52.25,17.19-30.82,10.73-44.29,5.6-59.56,2.9s-32.5,8-55.12-.28S653.28,1694,653.28,1694c7.66-5,37.44-6.47,57.6,8s47.18,11.78,47.18,11.78c1,.11,3.49-1.13,6.86-3.24,0,0,26.09-15.27,73.55-54.75C843.2,1669.29,856,1701.38,875.94,1717Z"/>
            <path class="cls-17" d="M785.38,1696.9c-13.42,9.5-20.46,13.62-20.46,13.62-3.38,2.11-5.84,3.34-6.86,3.24,0,0-27,2.69-47.18-11.78a54.61,54.61,0,0,0-9.54-5.45c2.77-4.14,5.33-8.51,7.66-12.88,14.75,5,44.55,13.08,71.28,8.9Z"/>
          </g>
        </g>
        <path class="cls-3" d="M1912.76,1591.51h4.44c-3.83.12-5.92.23-5.92.23Z"/>
        <g>
          <path class="cls-1" d="M2231.59,1711v25.27a13.86,13.86,0,0,1-13.85,13.79h-517.8a13.87,13.87,0,0,1-13.86-13.79V1711a13.87,13.87,0,0,1,13.86-13.79h517.8A13.86,13.86,0,0,1,2231.59,1711Z"/>
          <path class="cls-1" d="M2317.07,1658.14v25.27a13.85,13.85,0,0,1-13.85,13.79h-517.8a13.86,13.86,0,0,1-13.85-13.79v-25.27a13.86,13.86,0,0,1,13.85-13.79h517.8A13.85,13.85,0,0,1,2317.07,1658.14Z"/>
          <path class="cls-1" d="M2340,1552.69v25.26a13.86,13.86,0,0,1-13.85,13.79h-517.8a13.85,13.85,0,0,1-13.85-13.79v-25.26a13.86,13.86,0,0,1,13.85-13.8h517.8A13.87,13.87,0,0,1,2340,1552.69Z"/>
          <path class="cls-1" d="M2260.46,1605.3v25.26a13.86,13.86,0,0,1-13.85,13.8h-517.8a13.86,13.86,0,0,1-13.85-13.8V1605.3a13.85,13.85,0,0,1,13.85-13.79h517.8A13.85,13.85,0,0,1,2260.46,1605.3Z"/>
          <path class="cls-2" d="M2231.59,1711v25.27a13.86,13.86,0,0,1-13.85,13.79h-71c-23.93-34.31-104.83-48-184-52.85h255A13.86,13.86,0,0,1,2231.59,1711Z"/>
          <path class="cls-2" d="M2109.88,1644.35c-148.33,0-223.73,36.06-250.81,52.85h-73.65a13.86,13.86,0,0,1-13.85-13.79v-25.27a13.86,13.86,0,0,1,13.85-13.79Z"/>
          <path class="cls-2" d="M1808.32,1538.89H2088.1c-93,.48-220.74,47.6-225.19,52.62l-.26.22h-54.33a13.85,13.85,0,0,1-13.85-13.79v-25.26A13.86,13.86,0,0,1,1808.32,1538.89Z"/>
        </g>
        <path class="cls-28" d="M2198.75,1538.66c-1,0-2.1,0-3.23,0Z"/>
        <path class="cls-4" d="M1036.76,410.25H973.62a9.76,9.76,0,0,1-9.73-9.73h0a9.76,9.76,0,0,1,9.73-9.73h63.13a9.76,9.76,0,0,1,9.73,9.73h0A9.76,9.76,0,0,1,1036.76,410.25Z"/>
        <path class="cls-4" d="M1502.09,410.25H1439a9.76,9.76,0,0,1-9.73-9.73h0a9.76,9.76,0,0,1,9.73-9.73h63.13a9.76,9.76,0,0,1,9.73,9.73h0A9.76,9.76,0,0,1,1502.09,410.25Z"/>
      </g>
    </g>
  </g>
</svg>
