<svg xmlns="http://www.w3.org/2000/svg" viewBox="0 0 119.52 118.94">
  <defs>
    <style>
      .cls-1 {
        isolation: isolate;
      }

      .cls-2, .cls-4 {
        fill: #b3e3ef;
      }

      .cls-3 {
        fill: #8dc9d6;
      }

      .cls-15, .cls-4, .cls-6 {
        opacity: 0.4;
      }

      .cls-13, .cls-4 {
        mix-blend-mode: multiply;
      }

      .cls-5 {
        fill: #d2edf5;
      }

      .cls-6 {
        fill: #e9f4f0;
      }

      .cls-7 {
        fill: #f7c139;
      }

      .cls-8 {
        fill: #4757b5;
      }

      .cls-9 {
        fill: #ffc2a4;
      }

      .cls-10 {
        fill: #ffa283;
      }

      .cls-11 {
        fill: #f80919;
      }

      .cls-12 {
        fill: #e5281a;
      }

      .cls-13 {
        fill: #224099;
      }

      .cls-13, .cls-27, .cls-28 {
        opacity: 0.2;
      }

      .cls-14, .cls-15 {
        fill: #f7ab48;
      }

      .cls-15, .cls-28 {
        mix-blend-mode: screen;
      }

      .cls-16, .cls-28 {
        fill: #fff;
      }

      .cls-17 {
        fill: #292a75;
      }

      .cls-18 {
        fill: #1d2063;
      }

      .cls-19 {
        fill: #f9f3f6;
      }

      .cls-20 {
        fill: #13173c;
      }

      .cls-21 {
        fill: #f70b11;
      }

      .cls-22 {
        fill: #ffa1ad;
      }

      .cls-23 {
        fill: #9bd2f1;
      }

      .cls-24 {
        fill: #0e5a98;
      }

      .cls-25 {
        fill: #33a6d2;
      }

      .cls-26 {
        fill: #39437c;
      }

      .cls-27 {
        fill: #80b8fa;
      }
    </style>
  </defs>
  <title>recipient-stat_2</title>
  <g class="cls-1">
    <g id="Layer_2" data-name="Layer 2">
      <g id="_ëîé_2" data-name="‘ëîé_2">
        <g>
          <g>
            <g>
              <path class="cls-2" d="M71,115.25H27.68s2.86-12.91,5.4-24.21c2-8.66,3.72-16.38,3.87-16.62h23l7.34,27.19Z"/>
              <rect class="cls-3" x="24.37" y="115.25" width="49.92" height="3.69" rx="1.43" ry="1.43"/>
              <path class="cls-4" d="M67.29,101.61,33.08,91c2-8.66,3.72-16.38,3.87-16.62h23Z"/>
            </g>
            <rect class="cls-2" y="11.57" width="98.65" height="73.84" rx="1.43" ry="1.43"/>
            <path class="cls-5" d="M95.56,16.87V80.11a1.43,1.43,0,0,1-1.42,1.43H4.52a1.43,1.43,0,0,1-1.43-1.43V16.87a1.43,1.43,0,0,1,1.43-1.43H94.14A1.43,1.43,0,0,1,95.56,16.87Z"/>
            <path class="cls-6" d="M95.56,16.87V80.11a1.43,1.43,0,0,1-1.42,1.43H73.23L15.59,15.44H94.14A1.43,1.43,0,0,1,95.56,16.87Z"/>
          </g>
          <g>
            <g>
              <path class="cls-7" d="M104.61,83.93a132.14,132.14,0,0,0-.21,21.24,88.06,88.06,0,0,1,0,11.88h-3.35a154.16,154.16,0,0,1-4.92-16.39c-1-5.1-2.88-19.64-3.56-25.15l-.26-2.16c0,.15,0,.33,0,.54-.44,4.55-2.84,21.92-3.23,26.16-.41,4.44-2,17-2,17H83.91c-1.78-4.71-5.08-29.89-5.3-38.17s-.55-19.76-.55-19.76l24.14.58h.2l1.11,0C105.63,65.31,105.29,76.35,104.61,83.93Z"/>
              <path class="cls-8" d="M92.67,75.4a.1.1,0,1,1-.2,0c0-.33-.11-.88-.2-1.53-.21-1.65-.52-4-.68-5.09-.57,3.6-3.17,20.27-4,27.5-.73,6.71-.95,16.73-1,20.5,0,.08,0,.17,0,.25h-.21c0-.08,0-.16,0-.25.08-3.77.3-13.8,1-20.52.88-8.1,4-28,4.06-28.21a.11.11,0,0,1,.1-.09.11.11,0,0,1,.1.09C91.71,68.13,92.48,73.92,92.67,75.4Z"/>
              <path class="cls-8" d="M103.66,117.05h-.2c-.84-5.78-1.43-25.72-.45-34.77.9-8.33-.35-19.16-.8-22.58h.2c.46,3.47,1.7,14.28.8,22.6C102.22,91.38,102.82,111.4,103.66,117.05Z"/>
            </g>
            <path class="cls-9" d="M95.73,14.72a2.21,2.21,0,0,1-2.19.34,4.52,4.52,0,0,1-1.4,2.46,7.32,7.32,0,0,0-.89,2.15l-.1.46c-.19.87-.39,1.68-1.23,1.65s-.84-.64-.89-1.22c0-.08,0-.16,0-.24s0-.3,0-.42a3.39,3.39,0,0,0-.54-1.25h0a3.86,3.86,0,0,1-3-2.81,9.91,9.91,0,0,1-.52-2.31,11.81,11.81,0,0,1,.31-4.74A5.64,5.64,0,0,0,85.9,9l.2.07a1.94,1.94,0,0,0,.65,0c3.33.18,4.47-1.49,5.74.22A5.69,5.69,0,0,1,93.88,13a11.43,11.43,0,0,0,1.64-1.34c.45-.23.74,0,1,.49A2.45,2.45,0,0,1,95.73,14.72Z"/>
            <path class="cls-10" d="M86,14.77a1.24,1.24,0,0,1-.62,1.08,9.91,9.91,0,0,1-.52-2.31A1.24,1.24,0,0,1,86,14.77Z"/>
            <g>
              <path class="cls-11" d="M119.52,36.61v22a1.38,1.38,0,0,1-1.4,1.37H81.18a1.38,1.38,0,0,1-1.4-1.37v-22a1.38,1.38,0,0,1,1.4-1.37h36.95A1.38,1.38,0,0,1,119.52,36.61Z"/>
              <g>
                <path class="cls-12" d="M119.52,36.61V48.43C100,49.88,91,40,87.86,35.24h30.27A1.38,1.38,0,0,1,119.52,36.61Z"/>
                <path class="cls-13" d="M103.12,60H81.18a1.38,1.38,0,0,1-1.4-1.37V46.87C84.19,48.76,95.68,54,103.12,60Z"/>
                <g>
                  <path class="cls-14" d="M88.47,40.38v3.17a1.38,1.38,0,0,1-1.39,1.37H83.85a1.38,1.38,0,0,1-1.39-1.37V40.38A1.38,1.38,0,0,1,83.85,39H87.1A1.38,1.38,0,0,1,88.47,40.38Z"/>
                  <path class="cls-15" d="M88.47,40.38v3.17a1.38,1.38,0,0,1-1.39,1.37H85.45c.51-2,1.25-4.53,1.65-5.9A1.38,1.38,0,0,1,88.47,40.38Z"/>
                </g>
                <g>
                  <path class="cls-16" d="M84,52.51V52a.12.12,0,0,1,.24,0v.6a.11.11,0,0,1-.12.12h-1a.11.11,0,0,1-.12-.12.11.11,0,0,1,.12-.12h.36V51.13h-.36a.12.12,0,1,1,0-.24h.6v1.62Z"/>
                  <path class="cls-16" d="M85.74,52.51V52a.11.11,0,0,1,.12-.12A.11.11,0,0,1,86,52v.6a.11.11,0,0,1-.12.12h-1a.11.11,0,0,1-.12-.12.11.11,0,0,1,.12-.12h.36V51.13H84.9a.12.12,0,1,1,0-.24h.6v1.62Z"/>
                  <path class="cls-16" d="M86.78,52.51h.84a.11.11,0,0,1,.12.12.11.11,0,0,1-.12.12H86.53V52a.24.24,0,0,1,.28-.27h.68v-.57h-.84a.12.12,0,1,1,0-.24h.81a.26.26,0,0,1,.2.07.25.25,0,0,1,.08.21v.49a.25.25,0,0,1-.08.21.26.26,0,0,1-.2.07h-.69Z"/>
                  <path class="cls-16" d="M88.41,51.13a.12.12,0,1,1,0-.24h.84a.24.24,0,0,1,.24.24v.46a.33.33,0,0,0,0,.46v.46a.24.24,0,0,1-.24.24h-.84a.11.11,0,0,1-.12-.12.11.11,0,0,1,.12-.12h.84v-.4c0-.13-.05-.18-.12-.18h-.48a.12.12,0,1,1,0-.24h.48c.07,0,.12,0,.12-.17v-.4Z"/>
                  <path class="cls-16" d="M92.64,51.9v-.69a.11.11,0,0,1,.12-.12.11.11,0,0,1,.12.12v.69A.11.11,0,0,1,93,52a.11.11,0,0,1-.12.12v.49c0,.08,0,.12-.12.12s-.12,0-.12-.12v-.49h-.72V51a.12.12,0,0,1,.24,0v.89Z"/>
                  <path class="cls-16" d="M94,51.7h.45a.25.25,0,0,1,.2.07.23.23,0,0,1,.07.2v.51a.25.25,0,0,1-.06.19.24.24,0,0,1-.21.08H94a.38.38,0,0,1-.16,0l-.09,0c-.07,0-.14,0-.14-.13a.12.12,0,0,1,.12-.12l.08,0,.07,0a.48.48,0,0,0,.13,0h.56v-.57H93.8v-1h.84a.12.12,0,1,1,0,.24H94Z"/>
                  <path class="cls-16" d="M95.56,51.9h.81c.12,0,.15.05.15.16v.54c0,.11,0,.15-.16.15h-.89c-.11,0-.16,0-.16-.15V51c0-.06,0-.12.11-.12h.15a.12.12,0,0,1,.11.12.11.11,0,0,1-.12.12Zm0,.24v.37h.72v-.37Z"/>
                  <path class="cls-16" d="M97.32,51.13a.12.12,0,0,1-.25,0V51a.12.12,0,0,1,.12-.12h1.08v.69c0,.08,0,.09-.07.15l-.34.29c-.06.05-.07.06-.07.14v.47c0,.08,0,.12-.12.12s-.12,0-.12-.12v-.58a.13.13,0,0,1,.06-.14l.34-.28c.08-.07.08-.07.08-.17v-.33Z"/>
                  <path class="cls-16" d="M101.07,51.7h.45a.25.25,0,0,1,.2.07.23.23,0,0,1,.07.2v.51a.25.25,0,0,1-.06.19.24.24,0,0,1-.21.08H101a.37.37,0,0,1-.16,0l-.09,0c-.07,0-.14,0-.14-.13a.12.12,0,0,1,.12-.12l.08,0,.07,0a.48.48,0,0,0,.13,0h.56v-.57h-.72v-1h.84a.12.12,0,1,1,0,.24h-.6Z"/>
                  <path class="cls-16" d="M102.59,51.9h.82c.12,0,.15.05.15.16v.54c0,.11,0,.15-.16.15h-.89c-.11,0-.16,0-.16-.15V51c0-.06,0-.12.1-.12h.15a.12.12,0,0,1,.12.12.11.11,0,0,1-.12.12Zm0,.24v.37h.72v-.37Z"/>
                  <path class="cls-16" d="M104.35,51.13a.12.12,0,0,1-.25,0V51a.12.12,0,0,1,.12-.12h1.08v.69c0,.08,0,.09-.06.15l-.34.29c-.06.05-.07.06-.07.14v.47c0,.08,0,.12-.12.12a.11.11,0,0,1-.12-.12v-.58c0-.08,0-.09.06-.14l.34-.28c.08-.07.07-.07.07-.17v-.33Z"/>
                  <path class="cls-16" d="M106.7,50.89a.11.11,0,0,1,.12.12v.69a.25.25,0,0,1,.18.07.23.23,0,0,1,.07.17v.57a.23.23,0,0,1-.25.24h-.72a.23.23,0,0,1-.25-.24v-.57a.22.22,0,0,1,.07-.17.24.24,0,0,1,.18-.07V51a.11.11,0,0,1,.12-.12Zm.12,1.62v-.57h-.72v.57Zm-.24-.81v-.57h-.23v.57Z"/>
                  <path class="cls-16" d="M110.21,50.89a.11.11,0,0,1,.12.12v.69a.25.25,0,0,1,.18.07.23.23,0,0,1,.06.17v.57a.22.22,0,0,1-.24.24h-.72a.22.22,0,0,1-.24-.24v-.57a.23.23,0,0,1,.06-.17.25.25,0,0,1,.18-.07V51a.11.11,0,0,1,.12-.12Zm.12,1.62v-.57h-.72v.57Zm-.25-.81v-.57h-.23v.57Z"/>
                  <path class="cls-16" d="M111.37,51.9h.81c.12,0,.15.05.15.16v.54c0,.11,0,.15-.16.15h-.89c-.11,0-.16,0-.16-.15V51c0-.06,0-.12.1-.12h.15a.12.12,0,0,1,.11.12.11.11,0,0,1-.12.12Zm0,.24v.37h.72v-.37Z"/>
                  <path class="cls-16" d="M113.13,51.13a.12.12,0,0,1-.25,0V51a.12.12,0,0,1,.12-.12h1.08v.69c0,.08,0,.09-.07.15l-.34.29c-.06.05-.07.06-.07.14v.47c0,.08,0,.12-.12.12s-.12,0-.12-.12v-.58c0-.08,0-.09.06-.14l.34-.28c.08-.07.07-.07.07-.17v-.33Z"/>
                  <path class="cls-16" d="M115.13,51.7h.45a.25.25,0,0,1,.19.07.23.23,0,0,1,.08.2v.51a.26.26,0,0,1-.06.19.24.24,0,0,1-.21.08H115a.37.37,0,0,1-.16,0l-.09,0c-.06,0-.14,0-.14-.13a.12.12,0,0,1,.12-.12l.08,0,.07,0a.46.46,0,0,0,.13,0h.56v-.57h-.72v-1h.84a.12.12,0,1,1,0,.24h-.6Z"/>
                </g>
                <g>
                  <path class="cls-16" d="M109.65,56.62v-.41a.09.09,0,0,1,.1-.1.09.09,0,0,1,.11.1v.52a.1.1,0,0,1-.11.1h-.82a.1.1,0,1,1,0-.2h.31V55.44h-.31a.1.1,0,1,1,0-.21h.52v1.39Z"/>
                  <path class="cls-16" d="M111.16,56.62v-.41a.1.1,0,0,1,.21,0v.52a.1.1,0,0,1-.1.1h-.82a.1.1,0,1,1,0-.2h.31V55.44h-.31a.1.1,0,1,1,0-.21H111v1.39Z"/>
                  <path class="cls-16" d="M112,56.76s-.05.07-.1.07a.1.1,0,0,1-.1-.1.21.21,0,0,1,0-.11l.78-1.31s0-.08.1-.08a.1.1,0,0,1,.1.1.16.16,0,0,1,0,.08Z"/>
                  <path class="cls-16" d="M113.56,56.62h.72a.1.1,0,1,1,0,.2h-.93v-.67a.21.21,0,0,1,.24-.23h.59v-.49h-.72a.1.1,0,1,1,0-.21h.69a.22.22,0,0,1,.17.06.21.21,0,0,1,.07.18v.42a.21.21,0,0,1-.07.18.22.22,0,0,1-.17.06h-.59Z"/>
                  <path class="cls-16" d="M115.68,55.23a.21.21,0,0,1,.21.21v1.18a.2.2,0,0,1-.21.2h-.61a.2.2,0,0,1-.21-.2V55.44a.21.21,0,0,1,.21-.21Zm0,1.39V55.44h-.61v1.18Z"/>
                </g>
                <g>
                  <path class="cls-16" d="M83.45,55.95s0-.07.07-.07.07,0,.07.07v1h-.18L83,56.12h0v.75s0,.07-.07.07-.07,0-.07-.07v-1h.18l.36.83h0Z"/>
                  <path class="cls-16" d="M84.18,55.95s0-.07.07-.07.06,0,.07.07l.27.92s0,.07-.07.07a.08.08,0,0,1-.08-.07l-.05-.16h-.3l-.05.16a.08.08,0,0,1-.08.07s-.08,0-.07-.07Zm.07.25h0l-.11.37h.22Z"/>
                  <path class="cls-16" d="M85.42,55.88h.18v1s0,.07-.07.07-.07,0-.07-.07v-.8h0l-.13.19v0s0,.08-.07.08-.07,0-.07-.08v0l-.13-.19h0v.8s0,.07-.07.07-.07,0-.07-.07v-1h.17l.17.24Z"/>
                  <path class="cls-16" d="M86.53,56.8a.06.06,0,0,1,.07.07.06.06,0,0,1-.07.07h-.62V55.88h.62a.06.06,0,0,1,.07.07.06.06,0,0,1-.07.07h-.48v.33h.21a.07.07,0,1,1,0,.14h-.21v.33Z"/>
                  <path class="cls-16" d="M88.56,56.67a.17.17,0,0,1,0,.11.16.16,0,0,1-.17.15h-.31a.2.2,0,0,1-.14,0,.17.17,0,0,1-.06-.13.07.07,0,0,1,.08-.08.07.07,0,0,1,.07.07s0,0,.06,0h.3s0,0,0,0,0,0,0,0l-.48-.6a.16.16,0,0,1,0-.11A.15.15,0,0,1,88,55.9a.18.18,0,0,1,.11,0h.3a.2.2,0,0,1,.14,0,.19.19,0,0,1,.07.13.07.07,0,0,1-.07.08.06.06,0,0,1-.07-.06s0-.05-.07-.05h-.3s0,0,0,0a.06.06,0,0,0,0,0Z"/>
                  <path class="cls-16" d="M89.15,56.94a.21.21,0,0,1-.23-.23v-.76s0-.07.07-.07.07,0,.07.07v.76c0,.08,0,.1.09.1h.24c.06,0,.09,0,.09-.1v-.76s0-.07.07-.07.07,0,.07.07v.76a.21.21,0,0,1-.23.23Z"/>
                  <path class="cls-16" d="M90.07,56.87s0,.07-.07.07-.07,0-.07-.07v-1h.47a.21.21,0,0,1,.22.2v.1a.2.2,0,0,1-.22.19h-.13l.31.44a.13.13,0,0,1,0,.07.07.07,0,0,1-.07.06.08.08,0,0,1-.06,0l-.38-.54h0Zm0-.64h.31s.1,0,.1-.06v-.1c0-.05-.06-.06-.1-.06h-.31Z"/>
                  <path class="cls-16" d="M91.48,55.95s0-.07.07-.07.07,0,.07.07v1h-.18l-.36-.82h0v.75a.06.06,0,0,1-.07.07c-.05,0-.07,0-.07-.07v-1h.18l.36.83h0Z"/>
                  <path class="cls-16" d="M92.21,55.95s0-.07.07-.07.06,0,.07.07l.27.92s0,.07-.06.07a.08.08,0,0,1-.08-.07l-.05-.16h-.3l-.05.16a.08.08,0,0,1-.08.07s-.08,0-.07-.07Zm.07.25h0l-.11.37h.22Z"/>
                  <path class="cls-16" d="M93.46,55.88h.17v1s0,.07-.07.07a.06.06,0,0,1-.07-.07v-.8h0l-.13.19v0s0,.08-.07.08-.07,0-.07-.08v0l-.13-.19h0v.8s0,.07-.07.07a.06.06,0,0,1-.07-.07v-1h.18l.17.24Z"/>
                  <path class="cls-16" d="M94.56,56.8a.06.06,0,0,1,.07.07.06.06,0,0,1-.07.07h-.62V55.88h.62a.06.06,0,0,1,.07.07.06.06,0,0,1-.07.07h-.48v.33h.2a.07.07,0,1,1,0,.14h-.2v.33Z"/>
                </g>
              </g>
            </g>
            <path class="cls-10" d="M91.43,17.84A4.15,4.15,0,0,1,89,20.57c0-.08,0-.16,0-.24s0-.3,0-.42a3.39,3.39,0,0,0-.54-1.25A8,8,0,0,0,90,18.58,3.47,3.47,0,0,0,91.43,17.84Z"/>
            <path class="cls-17" d="M111.57,36.54l-6.49,2.87a43.72,43.72,0,0,0-1.64-4.17,7,7,0,0,0-.39-.71,15.89,15.89,0,0,0-1.63-2.38c-.22-.2-.41-.25-.55-.08-.41.49-.12,2.74-.05,3.16H81.09a1.44,1.44,0,0,0-1.31,1.37l0,22.58a.28.28,0,0,0,0,0,3.88,3.88,0,0,1-1.76-.11s.23-11.93.32-15.3.18-3.82.18-3.82l-.07,0-1.13-.37h0a25.42,25.42,0,0,0-2.57-.68,26,26,0,0,0-3.52-.41s.54-4.22,1-6.94c.64-3.78,1.83-7.21,3.55-8.33,1.45-.95,5.22-1.65,8.57-2.18,1.79-.29,3.47-.53,4.61-.73,0,.52.09,1.14.54,1.37h0a.85.85,0,0,0,.37.09,1,1,0,0,0,.45-.09c.47-.23.63-.88.78-1.57,0,0,1.94.38,4.33.9,2.11.46,4.57,1,6.34,1.57,3.59,1.08,8.41,4.71,9.59,12.63C111.48,35.66,111.53,36.1,111.57,36.54Z"/>
            <path class="cls-18" d="M89.55,21.7a24.36,24.36,0,0,1-5.15-.63c1.79-.29,3.47-.53,4.61-.73C89.05,20.86,89.1,21.47,89.55,21.7Z"/>
            <path class="cls-18" d="M95.49,21a22.2,22.2,0,0,1-5.11.67c.47-.23.63-.88.78-1.57C91.15,20.14,93.1,20.51,95.49,21Z"/>
            <path class="cls-18" d="M78.67,35.24s-.13,3.13-.18,4.73l-1.13-.37C77.57,38.4,78.14,35.26,78.67,35.24Z"/>
            <path class="cls-18" d="M101.43,32.16c-.22-.2-.41-.25-.55-.08-.41.49-.12,2.74-.05,3.16H99.44c.34-1.53,1-3.8,2-3.16Z"/>
            <g>
              <path class="cls-7" d="M93.86,35.24H84.34a4.9,4.9,0,1,1,9.52,0Z"/>
              <g>
                <path class="cls-19" d="M87,35.17a.4.4,0,0,0,0,.08h-.23v0a.11.11,0,0,1,.1-.12A.11.11,0,0,1,87,35.17Z"/>
                <path class="cls-19" d="M90.73,35.24H90.5c0-.75-.7-1.25-1.41-1.72L89,33.45l-.09-.06c-.54-.36-1-.7-1.13-1.14a.85.85,0,0,1,.17-.65.9.9,0,0,1,.77-.46,1,1,0,0,1,.47.14l.21.14a4,4,0,0,1,.87,1,.11.11,0,0,1,0,.15.1.1,0,0,1-.15,0,4.24,4.24,0,0,0-.71-.86l-.2-.16a.89.89,0,0,0-.44-.16.69.69,0,0,0-.58.37.63.63,0,0,0-.13.48c.06.33.47.63.94.94l.17.11,0,0C89.88,33.79,90.72,34.34,90.73,35.24Z"/>
              </g>
              <path class="cls-19" d="M89.52,30.31l-.15,1.11,0,.26-.21,1.61,0,.24-.23,1.72h-.22l.24-1.85,0-.24.22-1.63,0-.24.13-1a.11.11,0,0,1,.12-.1A.11.11,0,0,1,89.52,30.31Z"/>
              <path class="cls-19" d="M90.93,30.07a4.42,4.42,0,0,0-6.09,5.18h.23a4.19,4.19,0,1,1,8.05,0h.24A4.43,4.43,0,0,0,90.93,30.07Z"/>
            </g>
            <path class="cls-17" d="M87.06,117.05s-5.05-1-6.28,0,.48,1.43,2.39,1.37,3.89-.27,3.89-.27Z"/>
            <path class="cls-17" d="M104.4,117.05s-4.15-.51-5.4,0-.86,1.35,1,1.4,4.89-.17,4.89-.17Z"/>
            <path class="cls-9" d="M71.28,38.52s-1.09,12.29,0,19.39a97,97,0,0,0,2,9.56c.2,1.5.34,3.14.89,3.07s.48-2.73.48-2.73.14,4.3.89,4.17,0-3.41,0-3.41,1.3,3.28,1.84,2.94-.68-4.3-.68-4.3,1.3,2.87,1.71,2.19-.68-3.14-.68-3.14,1,.75,1.09.21-1.85-2.19-1.85-2.19,0-5.67.34-11.74A120.83,120.83,0,0,1,78.8,40a31.09,31.09,0,0,0-4-1A21.61,21.61,0,0,0,71.28,38.52Z"/>
            <path class="cls-20" d="M85.21,8.71l0,.07A5.78,5.78,0,0,0,85.9,9Z"/>
            <path class="cls-20" d="M94.18,4.22c-2.37-1-4,0-4.46-1S88.72-.48,86,.07c-2.21.44-4.05,2.14-3.83,4.46.19,1.91.92,3.61,3,4.25l0-.07L85.9,9a7.15,7.15,0,0,0,.85.1c3.33.17,4.47-1.49,5.74.22A5.67,5.67,0,0,1,93.88,13s.65-.51,1.3-1.09a1.65,1.65,0,0,1,.35-.25,3.42,3.42,0,0,0,1.12-1.87C96.78,8.27,96.55,5.22,94.18,4.22Z"/>
            <path class="cls-20" d="M93.88,13a11.49,11.49,0,0,0,1.64-1.34,1.65,1.65,0,0,0-.35.25C94.53,12.47,93.88,13,93.88,13Z"/>
            <path class="cls-9" d="M111.57,36.54l-6.49,2.87s1.3,7.31,1,12a28.94,28.94,0,0,1-1.57,8.31s-2.39.5-2.25,1.18,2.32,0,2.32,0-2.81,1.64-2.33,2,2.53-.82,2.53-.82-1.84,1.71-1.57,2S105.61,63,105.61,63s-1.55,1.62-.66,1.69,3.35-2.46,5.46-7.58S113.07,40.43,111.57,36.54Z"/>
            <path class="cls-20" d="M86.5,15.67l-.13,0a.24.24,0,0,1-.15-.19,28.89,28.89,0,0,1,.86-4c-.37-.77-1.88-.59-1.9-.59a.1.1,0,0,1-.11-.09.1.1,0,0,1,.09-.11c.07,0,1.72-.2,2.12.75a.12.12,0,0,1,0,.07,28.32,28.32,0,0,0-.86,3.92s0,0,0,0,.6-.16,1-.4a.1.1,0,0,1,.11.17A2.55,2.55,0,0,1,86.5,15.67Z"/>
            <path class="cls-20" d="M89.17,11.41a.1.1,0,0,1-.08,0,.1.1,0,0,1,0-.14,4.37,4.37,0,0,1,2.91-.7.1.1,0,0,1,0,.2,4.22,4.22,0,0,0-2.76.67Z"/>
            <path class="cls-20" d="M94.16,13.9h0a.1.1,0,0,1-.05-.13,2.29,2.29,0,0,1,1.61-1.15.1.1,0,0,1,0,.2,2.11,2.11,0,0,0-1.46,1A.1.1,0,0,1,94.16,13.9Z"/>
            <path class="cls-20" d="M94.93,13.9a.1.1,0,0,1-.1-.1.52.52,0,0,0-.3-.46.1.1,0,0,1-.06-.13.1.1,0,0,1,.13-.06.72.72,0,0,1,.43.64.1.1,0,0,1-.1.11Z"/>
            <path class="cls-20" d="M86.75,16.91a.1.1,0,1,1,0-.21,2.91,2.91,0,0,0,1.63-.42.1.1,0,1,1,.14.15A3,3,0,0,1,86.75,16.91Z"/>
            <path class="cls-20" d="M88.89,18.68a5.18,5.18,0,0,1-1.32-.16.1.1,0,0,1,.06-.2,5.22,5.22,0,0,0,4.66-1.12.1.1,0,1,1,.14.15A5.22,5.22,0,0,1,88.89,18.68Z"/>
            <path class="cls-20" d="M105.08,39.51a.1.1,0,0,1-.1-.07s-1.29-3.4-2.25-5.23c-1.21-2.29-1.6-2.14-1.6-2.14a.1.1,0,1,1-.09-.18c.36-.17,1,.58,1.87,2.23,1,1.84,2.25,5.22,2.27,5.26a.1.1,0,0,1-.06.13Z"/>
            <path class="cls-20" d="M78,45.59h0a.1.1,0,0,1-.09-.11l0-.12A44.84,44.84,0,0,0,78.46,40c0-2,0-5.25.28-5.43a.1.1,0,1,1,.11.17A36.53,36.53,0,0,0,78.67,40a44.84,44.84,0,0,1-.58,5.39l0,.11A.1.1,0,0,1,78,45.59Z"/>
            <circle class="cls-20" cx="86.11" cy="12.09" r="0.45"/>
            <circle class="cls-20" cx="89.55" cy="12.09" r="0.45"/>
            <circle class="cls-10" cx="90.71" cy="14.77" r="1.24"/>
            <g>
              <path class="cls-21" d="M27.84,41.74,32.26,47s8.15-1.56,11.88-4.18l-3.78-4.59Z"/>
              <path class="cls-22" d="M28.55,42l11.66-3.22,3.33,4c-3.39,2.15-9.83,3.55-11.13,3.82Z"/>
              <g>
                <circle class="cls-21" cx="36.47" cy="42.42" r="1.93" transform="translate(-15.46 21.62) rotate(-27.49)"/>
                <g>
                  <path class="cls-23" d="M36.88,41.76a.56.56,0,0,0-.16-.17.61.61,0,0,0-.21-.09.69.69,0,0,0-.24,0,.77.77,0,0,0-.26.09l-.21.14a.68.68,0,0,0-.15.17.41.41,0,0,0-.06.19.4.4,0,0,0,0,.21.26.26,0,0,0,.13.13.48.48,0,0,0,.2,0l.23,0,.25-.05.21,0,.22,0h.2l.19,0a.54.54,0,0,1,.16.09.59.59,0,0,1,.13.16.54.54,0,0,1,.06.25.57.57,0,0,1-.08.25,1,1,0,0,1-.19.23,1.55,1.55,0,0,1-.29.2,1.36,1.36,0,0,1-.28.11,1,1,0,0,1-.24,0,.68.68,0,0,1-.2,0l-.16-.08a.57.57,0,0,1-.13-.11l-.1-.12.25-.13a.52.52,0,0,0,.15.15.49.49,0,0,0,.19.07.62.62,0,0,0,.21,0,.92.92,0,0,0,.22-.08l.18-.12a.7.7,0,0,0,.14-.14.36.36,0,0,0,.07-.16.26.26,0,0,0,0-.18.27.27,0,0,0-.13-.13.54.54,0,0,0-.19,0l-.24,0-.26.05-.22,0-.21,0h-.2a.61.61,0,0,1-.18,0,.46.46,0,0,1-.16-.09.52.52,0,0,1-.13-.16.6.6,0,0,1-.07-.29.62.62,0,0,1,.08-.28.85.85,0,0,1,.2-.25,1.51,1.51,0,0,1,.31-.21,1.29,1.29,0,0,1,.35-.12,1.05,1.05,0,0,1,.35,0,.75.75,0,0,1,.31.12.64.64,0,0,1,.23.24Z"/>
                  <g>
                    <path class="cls-23" d="M35.85,40.82a.1.1,0,0,1,.13,0l1.46,2.81a.1.1,0,0,1-.18.09L35.8,40.95A.09.09,0,0,1,35.85,40.82Z"/>
                    <path class="cls-23" d="M35.51,41a.1.1,0,0,1,.13,0l1.46,2.81a.1.1,0,0,1-.05.13.09.09,0,0,1-.13,0l-1.46-2.81A.1.1,0,0,1,35.51,41Z"/>
                  </g>
                </g>
              </g>
              <circle class="cls-21" cx="32.83" cy="43.57" r="0.53" transform="translate(-13.23 72.82) rotate(-85.43)"/>
              <circle class="cls-21" cx="40.58" cy="41.44" r="0.53" transform="translate(-3.9 78.65) rotate(-85.51)"/>
            </g>
            <g>
              <path class="cls-24" d="M58.11,18.69,52.27,15s-7.27,4-10,7.64l5,3.2Z"/>
              <path class="cls-25" d="M57.36,18.7l-10.1,6.66-4.42-2.82c2.56-3.09,8.25-6.41,9.41-7.07Z"/>
              <g>
                <circle class="cls-26" cx="49.69" cy="20.7" r="1.93" transform="translate(0.08 41.6) rotate(-45.46)"/>
                <g>
                  <path class="cls-23" d="M49.5,21.46a.59.59,0,0,0,.21.11.62.62,0,0,0,.23,0,.76.76,0,0,0,.23-.07.84.84,0,0,0,.22-.16,1.29,1.29,0,0,0,.16-.2.64.64,0,0,0,.09-.21.4.4,0,0,0,0-.2.41.41,0,0,0-.11-.19.27.27,0,0,0-.16-.08.48.48,0,0,0-.2,0l-.22.09-.23.13-.19.11-.2.1-.19.07L49,21a.56.56,0,0,1-.18,0,.58.58,0,0,1-.17-.11.51.51,0,0,1-.13-.22.55.55,0,0,1,0-.26.9.9,0,0,1,.11-.28,1.47,1.47,0,0,1,.22-.28,1.31,1.31,0,0,1,.23-.2,1,1,0,0,1,.22-.11.59.59,0,0,1,.2,0l.18,0,.16.06.13.09-.2.2a.5.5,0,0,0-.19-.1.48.48,0,0,0-.2,0,.63.63,0,0,0-.2.07A.9.9,0,0,0,49,20l-.14.17a.77.77,0,0,0-.09.18.38.38,0,0,0,0,.18.27.27,0,0,0,.09.16.29.29,0,0,0,.17.09.56.56,0,0,0,.2,0l.22-.09.23-.13.19-.11.19-.1.19-.07.19,0a.48.48,0,0,1,.18,0,.52.52,0,0,1,.17.11.57.57,0,0,1,.16.26.63.63,0,0,1,0,.29.9.9,0,0,1-.12.3,1.55,1.55,0,0,1-.23.3,1.18,1.18,0,0,1-.29.22,1,1,0,0,1-.33.11.75.75,0,0,1-.33,0,.65.65,0,0,1-.29-.16Z"/>
                  <g>
                    <path class="cls-23" d="M50.78,22a.1.1,0,0,1-.14,0l-2.26-2.22a.09.09,0,0,1,0-.13.1.1,0,0,1,.14,0l2.25,2.22A.1.1,0,0,1,50.78,22Z"/>
                    <path class="cls-23" d="M51,21.77a.1.1,0,0,1-.14,0l-2.26-2.22a.1.1,0,0,1,0-.14.09.09,0,0,1,.14,0l2.26,2.22A.1.1,0,0,1,51,21.77Z"/>
                  </g>
                </g>
              </g>
              <circle class="cls-26" cx="52.8" cy="18.48" r="0.53" transform="translate(-2.84 12.7) rotate(-13.36)"/>
              <circle class="cls-26" cx="46.08" cy="22.91" r="0.53" transform="translate(-4.09 11.45) rotate(-13.56)"/>
            </g>
            <g>
              <path class="cls-22" d="M35.91,31.48s8.35,5.14,11.91,5.75L50.63,32s-8.68-3.5-12.25-6.15Z"/>
              <path class="cls-21" d="M36.57,31.38s8,4.76,11,5.26L50,32.16s-8.23-3.32-11.17-5.51Z"/>
              <g>
                <circle class="cls-22" cx="42.84" cy="32.04" r="1.95" transform="translate(-1 62.69) rotate(-71.75)"/>
                <g>
                  <path class="cls-21" d="M42.07,32.21a.6.6,0,0,0,.07.45.71.71,0,0,0,.17.18.82.82,0,0,0,.25.12l.25.06A.65.65,0,0,0,43,33a.4.4,0,0,0,.3-.28.25.25,0,0,0,0-.18.46.46,0,0,0-.11-.17,1.15,1.15,0,0,0-.18-.16l-.22-.15L42.64,32l-.17-.13-.15-.14a.62.62,0,0,1-.1-.16.52.52,0,0,1,0-.18.54.54,0,0,1,0-.21.52.52,0,0,1,.14-.22.57.57,0,0,1,.23-.12.9.9,0,0,1,.3,0,1.52,1.52,0,0,1,.35.08,1.35,1.35,0,0,1,.28.12,1,1,0,0,1,.19.15.68.68,0,0,1,.12.17.65.65,0,0,1,.07.34,1,1,0,0,1,0,.16l-.27-.09a.48.48,0,0,0-.08-.4.63.63,0,0,0-.15-.14.89.89,0,0,0-.21-.1l-.22,0a.61.61,0,0,0-.2,0,.36.36,0,0,0-.16.07.32.32,0,0,0-.11.34.54.54,0,0,0,.11.17,1.26,1.26,0,0,0,.19.16l.22.15.19.12.17.13.15.14a.63.63,0,0,1,.1.16.47.47,0,0,1,0,.18.52.52,0,0,1,0,.2.58.58,0,0,1-.16.26.62.62,0,0,1-.25.14.9.9,0,0,1-.33,0,1.49,1.49,0,0,1-.37-.08,1.18,1.18,0,0,1-.33-.16,1,1,0,0,1-.25-.25.76.76,0,0,1-.13-.3.66.66,0,0,1,0-.34Z"/>
                  <g>
                    <path class="cls-21" d="M42.12,33.62A.1.1,0,0,1,42,33.5l1-3a.1.1,0,0,1,.2.06l-1,3A.1.1,0,0,1,42.12,33.62Z"/>
                    <path class="cls-21" d="M42.48,33.73a.1.1,0,0,1-.07-.12l1-3a.1.1,0,0,1,.2.07l-1,3A.1.1,0,0,1,42.48,33.73Z"/>
                  </g>
                </g>
              </g>
              <circle class="cls-22" cx="39.4" cy="30.37" r="0.69" transform="translate(-10.31 32.18) rotate(-39.72)"/>
              <circle class="cls-22" cx="46.54" cy="33.44" r="0.69" transform="translate(-10.63 37.42) rotate(-39.68)"/>
            </g>
            <g>
              <circle class="cls-7" cx="60.21" cy="33.61" r="4.78" transform="translate(-4.2 58.22) rotate(-50.08)"/>
              <path class="cls-19" d="M62,31.87a1.58,1.58,0,0,1,.69,1.3.11.11,0,1,1-.22,0c.08-.63-.78-1.38-1.6-1.66-.34-.12-1.19-.32-1.57.33-.52.89.17,1.67.84,2.43.44.5.86,1,.83,1.44a.83.83,0,0,1-.33.57.87.87,0,0,1-.84.24c-.73-.23-1.11-1.55-1.13-1.6a.11.11,0,0,1,.08-.14.11.11,0,0,1,.13.08s.36,1.26,1,1.45a.67.67,0,0,0,.64-.19.61.61,0,0,0,.25-.42c0-.37-.36-.81-.77-1.28-.69-.78-1.46-1.66-.86-2.68A1.44,1.44,0,0,1,61,31.27,3.41,3.41,0,0,1,62,31.87Z"/>
              <path class="cls-19" d="M61.75,30.54a.11.11,0,0,1,0,.13L59,37.14a.11.11,0,0,1-.14.06.11.11,0,0,1-.06-.14l2.74-6.47a.11.11,0,0,1,.14-.06Z"/>
              <path class="cls-19" d="M63,30.3a4.31,4.31,0,1,1-6.07.54A4.32,4.32,0,0,1,63,30.3Zm-5.39,6.45A4.09,4.09,0,1,0,57.07,31,4.1,4.1,0,0,0,57.58,36.75Z"/>
            </g>
            <g>
              <circle class="cls-7" cx="62.83" cy="11.57" r="4.78" transform="translate(27.86 65.03) rotate(-67.25)"/>
              <path class="cls-19" d="M60.63,10.34a1.58,1.58,0,0,1,1-1,.11.11,0,0,1,.13.09.11.11,0,0,1-.09.13c-.63.11-1.09,1.15-1.12,2,0,.36,0,1.23.78,1.41,1,.24,1.55-.66,2.07-1.52.35-.57.68-1.11,1.13-1.22a.83.83,0,0,1,.64.14.88.88,0,0,1,.47.74c0,.76-1.15,1.52-1.2,1.55a.11.11,0,0,1-.15,0,.1.1,0,0,1,0-.15s1.1-.72,1.1-1.37a.67.67,0,0,0-.37-.56.61.61,0,0,0-.48-.11c-.36.08-.67.59-1,1.12-.54.88-1.16,1.89-2.31,1.62-.62-.14-1-.75-.95-1.62A3.41,3.41,0,0,1,60.63,10.34Z"/>
              <path class="cls-19" d="M59.44,11a.11.11,0,0,1,.11-.07l7,.71a.11.11,0,0,1,.1.12.11.11,0,0,1-.12.1l-7-.71a.11.11,0,0,1-.1-.12Z"/>
              <path class="cls-19" d="M58.85,9.9a4.31,4.31,0,1,1,2.31,5.64A4.32,4.32,0,0,1,58.85,9.9Zm7.75,3.25a4.09,4.09,0,1,0-5.36,2.19A4.1,4.1,0,0,0,66.61,13.15Z"/>
            </g>
            <g>
              <circle class="cls-7" cx="75.27" cy="24.56" r="4.78" transform="translate(21.66 82.83) rotate(-65.46)"/>
              <path class="cls-19" d="M74,26.72a1.58,1.58,0,0,1-1-1.07.11.11,0,0,1,.22,0c.09.63,1.12,1.13,2,1.18.36,0,1.24,0,1.43-.74.27-1-.61-1.57-1.45-2.12-.56-.37-1.09-.71-1.18-1.17a.83.83,0,0,1,.16-.64.88.88,0,0,1,.75-.45c.76,0,1.48,1.2,1.51,1.25a.11.11,0,0,1,0,.15.11.11,0,0,1-.15,0s-.69-1.12-1.33-1.14a.66.66,0,0,0-.57.36.61.61,0,0,0-.13.47c.07.36.56.69,1.09,1,.87.57,1.85,1.21,1.54,2.36-.17.61-.78.95-1.65.9A3.4,3.4,0,0,1,74,26.72Z"/>
              <path class="cls-19" d="M74.6,27.92a.11.11,0,0,1-.06-.11l.93-7a.11.11,0,0,1,.22,0l-.93,7a.11.11,0,0,1-.12.09Z"/>
              <path class="cls-19" d="M73.48,28.48a4.31,4.31,0,1,1,5.71-2.13A4.32,4.32,0,0,1,73.48,28.48ZM77,20.83a4.09,4.09,0,1,0,2,5.42A4.1,4.1,0,0,0,77,20.83Z"/>
            </g>
            <g>
              <circle class="cls-7" cx="22.1" cy="43.51" r="4.78" transform="translate(-12.12 8.72) rotate(-17.6)"/>
              <path class="cls-19" d="M21.61,41a1.58,1.58,0,0,1,1.47.12.11.11,0,0,1,0,.15.11.11,0,0,1-.15,0c-.49-.41-1.58-.09-2.26.45-.28.23-.91.83-.57,1.51.47.92,1.5.75,2.5.6a2.39,2.39,0,0,1,1.66.07.83.83,0,0,1,.31.58.87.87,0,0,1-.26.84c-.58.49-1.9.1-2,.09a.11.11,0,0,1-.07-.14.11.11,0,0,1,.14-.07s1.26.37,1.75,0a.66.66,0,0,0,.18-.64.62.62,0,0,0-.22-.43c-.29-.22-.88-.13-1.5,0-1,.16-2.19.34-2.73-.72-.29-.57-.05-1.23.62-1.77A3.39,3.39,0,0,1,21.61,41Z"/>
              <path class="cls-19" d="M20.34,40.56a.11.11,0,0,1,.12,0l4,5.79a.11.11,0,1,1-.18.12l-4-5.79a.11.11,0,0,1,0-.15Z"/>
              <path class="cls-19" d="M20.8,39.4A4.31,4.31,0,1,1,18,44.81,4.32,4.32,0,0,1,20.8,39.4Zm2.54,8a4.09,4.09,0,1,0-5.14-2.66A4.1,4.1,0,0,0,23.34,47.41Z"/>
            </g>
            <g>
              <path class="cls-25" d="M18.32,45.9h41a1.55,1.55,0,0,1,1.55,1.55V72.37a1.55,1.55,0,0,1-1.55,1.55h-41a1.54,1.54,0,0,1-1.54-1.54V47.45A1.55,1.55,0,0,1,18.32,45.9Z"/>
              <g>
                <path class="cls-27" d="M60.82,47.45V60.81C39.2,62.45,29.23,51.28,25.72,45.9H59.27A1.55,1.55,0,0,1,60.82,47.45Z"/>
                <path class="cls-27" d="M60.82,64.47v7.9a1.55,1.55,0,0,1-1.55,1.55H40.17C46.08,72.67,55,70,60.82,64.47Z"/>
                <path class="cls-13" d="M42.64,73.91H18.32a1.54,1.54,0,0,1-1.55-1.55V59.05C21.65,61.19,34.4,67.1,42.64,73.91Z"/>
                <path class="cls-17" d="M50.13,51.37h5a1.54,1.54,0,0,1,1.54,1.54v1.16a1.54,1.54,0,0,1-1.54,1.54h-5a1.55,1.55,0,0,1-1.55-1.55V52.92A1.55,1.55,0,0,1,50.13,51.37Z"/>
                <g>
                  <path class="cls-14" d="M26.41,51.71v3.58a1.55,1.55,0,0,1-1.55,1.55H21.28a1.54,1.54,0,0,1-1.54-1.55V51.71a1.54,1.54,0,0,1,1.54-1.54h3.61A1.54,1.54,0,0,1,26.41,51.71Z"/>
                  <path class="cls-15" d="M26.41,51.71v3.58a1.55,1.55,0,0,1-1.55,1.55h-1.8c.56-2.23,1.38-5.12,1.83-6.67A1.54,1.54,0,0,1,26.41,51.71Z"/>
                </g>
                <g>
                  <path class="cls-16" d="M21.43,65.42v-.55a.13.13,0,1,1,.27,0v.68a.12.12,0,0,1-.13.14H20.49a.14.14,0,0,1,0-.27h.4V63.86h-.4a.14.14,0,0,1,0-.27h.67v1.83Z"/>
                  <path class="cls-16" d="M23.37,65.42v-.55a.12.12,0,0,1,.13-.13.12.12,0,0,1,.14.13v.68a.13.13,0,0,1-.14.14H22.44a.14.14,0,0,1,0-.27h.4V63.86h-.4a.14.14,0,1,1,0-.27h.67v1.83Z"/>
                  <path class="cls-16" d="M24.52,65.42h.93a.14.14,0,0,1,0,.27h-1.2v-.88a.27.27,0,0,1,.31-.31h.76v-.65h-.93a.14.14,0,1,1,0-.27h.9a.28.28,0,0,1,.3.32v.56a.29.29,0,0,1-.08.24.28.28,0,0,1-.22.08h-.76Z"/>
                  <path class="cls-16" d="M26.34,63.86a.14.14,0,1,1,0-.27h.93a.27.27,0,0,1,.27.27v.52a.38.38,0,0,0,0,.53v.52a.27.27,0,0,1-.27.27h-.93a.14.14,0,0,1,0-.27h.93V65c0-.15-.06-.2-.13-.2H26.6a.12.12,0,0,1-.14-.13.13.13,0,0,1,.14-.14h.53c.08,0,.13,0,.13-.2v-.45Z"/>
                  <path class="cls-16" d="M31,64.74V64a.13.13,0,0,1,.27,0v.78a.13.13,0,0,1,.14.14.12.12,0,0,1-.14.13v.55a.12.12,0,0,1-.14.14c-.1,0-.13,0-.13-.14V65h-.8V63.72a.12.12,0,0,1,.14-.13.12.12,0,0,1,.13.13v1Z"/>
                  <path class="cls-16" d="M32.58,64.51h.5a.28.28,0,0,1,.22.08.26.26,0,0,1,.08.23v.58a.27.27,0,0,1-.07.21.26.26,0,0,1-.23.09h-.6a.42.42,0,0,1-.18,0l-.1,0c-.07,0-.15-.06-.15-.15a.14.14,0,0,1,.13-.14l.09,0,.08,0a.51.51,0,0,0,.14.05h.62v-.65h-.8V63.59h.93a.14.14,0,0,1,0,.27h-.66Z"/>
                  <path class="cls-16" d="M34.26,64.74h.9c.14,0,.16.06.16.18v.61c0,.13-.05.17-.18.17h-1c-.13,0-.18,0-.18-.17v-1.8c0-.06,0-.13.12-.13h.16a.13.13,0,0,1,.13.13.13.13,0,0,1-.14.14Zm0,.27v.42h.8V65Z"/>
                  <path class="cls-16" d="M36.21,63.86a.14.14,0,0,1-.14.13.14.14,0,0,1-.14-.13v-.14a.14.14,0,0,1,.14-.13h1.2v.78c0,.1,0,.11-.07.17l-.38.33c-.07.06-.07.07-.07.16v.53c0,.09,0,.14-.13.14a.12.12,0,0,1-.14-.14v-.65c0-.09,0-.1.07-.16l.37-.32c.09-.08.09-.08.09-.19v-.37Z"/>
                  <path class="cls-16" d="M40.37,64.51h.5a.28.28,0,0,1,.22.08.27.27,0,0,1,.08.23v.58a.29.29,0,0,1-.06.21.27.27,0,0,1-.24.09h-.6a.41.41,0,0,1-.18,0l-.1,0c-.07,0-.15-.06-.15-.15a.14.14,0,0,1,.13-.14l.09,0,.08,0a.5.5,0,0,0,.14.05h.62v-.65h-.8V63.59H41a.14.14,0,1,1,0,.27h-.66Z"/>
                  <path class="cls-16" d="M42,64.74H43c.14,0,.16.06.16.18v.61c0,.13-.05.17-.17.17H42c-.13,0-.18,0-.18-.17v-1.8c0-.06,0-.13.11-.13h.16a.13.13,0,0,1,.13.13.13.13,0,0,1-.14.14ZM42,65v.42h.8V65Z"/>
                  <path class="cls-16" d="M44,63.86a.14.14,0,0,1-.27,0v-.14a.14.14,0,0,1,.14-.13h1.2v.78c0,.1,0,.11-.07.17l-.38.33c-.07.06-.08.07-.08.16v.53a.14.14,0,1,1-.27,0v-.65a.15.15,0,0,1,.07-.16l.37-.32c.09-.08.08-.08.08-.19v-.37Z"/>
                  <path class="cls-16" d="M46.6,63.59a.13.13,0,0,1,.14.13v.78a.28.28,0,0,1,.2.08.26.26,0,0,1,.07.2v.64a.25.25,0,0,1-.27.27h-.8a.25.25,0,0,1-.27-.27v-.64a.26.26,0,0,1,.07-.2.28.28,0,0,1,.2-.08v-.78a.13.13,0,0,1,.14-.13Zm.14,1.83v-.65h-.8v.65Zm-.27-.92v-.65h-.25v.65Z"/>
                  <path class="cls-16" d="M50.5,63.59a.13.13,0,0,1,.14.13v.78a.28.28,0,0,1,.2.08.26.26,0,0,1,.07.2v.64a.25.25,0,0,1-.27.27h-.8a.25.25,0,0,1-.27-.27v-.64a.26.26,0,0,1,.07-.2.28.28,0,0,1,.2-.08v-.78a.13.13,0,0,1,.14-.13Zm.14,1.83v-.65h-.8v.65Zm-.27-.92v-.65h-.25v.65Z"/>
                  <path class="cls-16" d="M51.79,64.74h.91c.13,0,.16.06.16.18v.61c0,.13-.06.17-.18.17h-1c-.13,0-.18,0-.18-.17v-1.8c0-.06,0-.13.12-.13h.16a.13.13,0,0,1,.13.13.13.13,0,0,1-.14.14Zm0,.27v.42h.79V65Z"/>
                  <path class="cls-16" d="M53.73,63.86a.14.14,0,0,1-.27,0v-.14a.14.14,0,0,1,.14-.13h1.2v.78c0,.1,0,.11-.07.17l-.38.33c-.07.06-.08.07-.08.16v.53c0,.09,0,.14-.13.14s-.14,0-.14-.14v-.65a.15.15,0,0,1,.07-.16l.37-.32c.09-.08.08-.08.08-.19v-.37Z"/>
                  <path class="cls-16" d="M56,64.51h.5a.28.28,0,0,1,.22.08.27.27,0,0,1,.08.23v.58a.29.29,0,0,1-.06.21.26.26,0,0,1-.23.09h-.6a.4.4,0,0,1-.18,0l-.1,0c-.07,0-.15-.06-.15-.15a.14.14,0,0,1,.13-.14l.08,0,.08,0a.45.45,0,0,0,.14.05h.62v-.65h-.8V63.59h.93a.14.14,0,0,1,0,.27H56Z"/>
                </g>
                <g>
                  <path class="cls-16" d="M49.88,70.08v-.47a.1.1,0,0,1,.12-.12.1.1,0,0,1,.12.12v.58a.11.11,0,0,1-.12.12h-.91a.12.12,0,1,1,0-.23h.34V68.74h-.34a.12.12,0,1,1,0-.23h.57v1.57Z"/>
                  <path class="cls-16" d="M51.55,70.08v-.47a.1.1,0,0,1,.11-.12.1.1,0,0,1,.12.12v.58a.11.11,0,0,1-.12.12h-.91a.12.12,0,1,1,0-.23h.34V68.74h-.34a.12.12,0,1,1,0-.23h.57v1.57Z"/>
                  <path class="cls-16" d="M52.54,70.23s-.06.08-.11.08a.12.12,0,0,1-.11-.11.25.25,0,0,1,0-.12l.87-1.49s.05-.09.11-.09a.11.11,0,0,1,.12.11.18.18,0,0,1,0,.09Z"/>
                  <path class="cls-16" d="M54.21,70.08H55a.12.12,0,0,1,0,.23H54v-.76a.23.23,0,0,1,.26-.26h.65v-.55h-.8a.12.12,0,1,1,0-.23h.77a.24.24,0,0,1,.19.06.24.24,0,0,1,.07.21v.47a.24.24,0,0,1-.07.21.23.23,0,0,1-.19.06h-.65Z"/>
                  <path class="cls-16" d="M56.56,68.5a.23.23,0,0,1,.23.23v1.34a.23.23,0,0,1-.23.23h-.68a.23.23,0,0,1-.23-.23V68.74a.23.23,0,0,1,.23-.23Zm0,1.57V68.74h-.68v1.34Z"/>
                </g>
                <g>
                  <path class="cls-16" d="M20.84,69.31s0-.08.08-.08.08,0,.08.08v1.12h-.2l-.4-.93h0v.85s0,.08-.08.08-.08,0-.08-.08V69.23h.2l.4.94h0Z"/>
                  <path class="cls-16" d="M21.64,69.31s0-.08.08-.08.07,0,.08.08l.3,1s0,.08-.07.08-.07,0-.08-.08l-.06-.19h-.33l-.06.19a.09.09,0,0,1-.08.08s-.08,0-.08-.08Zm.08.29h0L21.6,70h.24Z"/>
                  <path class="cls-16" d="M23,69.23h.19v1.12s0,.08-.08.08-.08,0-.08-.08v-.91h0l-.15.22v0s0,.09-.08.09-.08,0-.08-.09v0l-.15-.22h0v.91a.08.08,0,0,1-.16,0V69.23h.19l.19.27Z"/>
                  <path class="cls-16" d="M24.25,70.28a.07.07,0,0,1,.08.08.07.07,0,0,1-.08.08h-.69v-1.2h.69a.07.07,0,0,1,.08.08.07.07,0,0,1-.08.08h-.53v.37h.23a.07.07,0,0,1,.08.08.07.07,0,0,1-.08.08h-.23v.37Z"/>
                  <path class="cls-16" d="M26.5,70.13a.19.19,0,0,1,.05.13.17.17,0,0,1-.19.17H26a.22.22,0,0,1-.16-.05.19.19,0,0,1-.07-.14.08.08,0,0,1,.08-.09.07.07,0,0,1,.07.08s0,.05.07.05h.33s.05,0,.05,0,0,0,0,0l-.53-.68a.18.18,0,0,1-.05-.13.17.17,0,0,1,.08-.15.21.21,0,0,1,.13,0h.33a.22.22,0,0,1,.15,0,.22.22,0,0,1,.07.15c0,.05,0,.09-.08.09a.07.07,0,0,1-.07-.07c0-.05,0-.06-.07-.06H26s-.05,0-.05,0a.08.08,0,0,0,0,0Z"/>
                  <path class="cls-16" d="M27.15,70.43a.24.24,0,0,1-.19-.08.25.25,0,0,1-.06-.18v-.86s0-.08.07-.08.08,0,.08.08v.86c0,.09,0,.11.1.11h.26c.07,0,.1,0,.1-.11v-.86a.07.07,0,0,1,.08-.08c.05,0,.08,0,.08.08v.86a.25.25,0,0,1-.06.18.24.24,0,0,1-.19.08Z"/>
                  <path class="cls-16" d="M28.17,70.36a.07.07,0,0,1-.08.08.07.07,0,0,1-.08-.08V69.23h.52a.23.23,0,0,1,.24.22v.11a.22.22,0,0,1-.24.22h-.14l.35.5a.15.15,0,0,1,0,.08.07.07,0,0,1-.08.07.09.09,0,0,1-.07,0l-.43-.61h0Zm0-.73h.34s.11,0,.11-.06v-.11c0-.06-.07-.07-.11-.07h-.34Z"/>
                  <path class="cls-16" d="M29.74,69.31s0-.08.08-.08.07,0,.07.08v1.12h-.2l-.4-.93h0v.85s0,.08-.08.08-.08,0-.08-.08V69.23h.2l.4.94h0Z"/>
                  <path class="cls-16" d="M30.55,69.31s0-.08.08-.08.07,0,.08.08l.29,1s0,.08-.07.08a.09.09,0,0,1-.08-.08l-.06-.19h-.33l-.06.19a.09.09,0,0,1-.08.08s-.08,0-.07-.08Zm.08.29h0L30.5,70h.24Z"/>
                  <path class="cls-16" d="M31.93,69.23h.19v1.12a.08.08,0,0,1-.15,0v-.91h0l-.15.22v0s0,.09-.08.09-.08,0-.08-.09v0l-.15-.22h0v.91a.08.08,0,0,1-.15,0V69.23h.19l.19.27Z"/>
                  <path class="cls-16" d="M33.15,70.28a.07.07,0,0,1,.08.08.07.07,0,0,1-.08.08h-.69v-1.2h.69a.07.07,0,0,1,.08.08.07.07,0,0,1-.08.08h-.53v.37h.23a.07.07,0,0,1,.08.08.07.07,0,0,1-.08.08h-.23v.37Z"/>
                </g>
                <polygon class="cls-28" points="42.24 73.92 29.01 73.92 21.26 45.9 32.5 45.9 42.24 73.92"/>
              </g>
            </g>
          </g>
        </g>
      </g>
    </g>
  </g>
</svg>
