<svg xmlns="http://www.w3.org/2000/svg" viewBox="0 0 138.93 121.32">
  <defs>
    <style>
      .cls-1 {
        fill: #b3e3ef;
      }

      .cls-2 {
        fill: #d2edf5;
      }

      .cls-3 {
        fill: #e9f4f0;
        opacity: 0.4;
      }

      .cls-4 {
        fill: #33a6d2;
      }

      .cls-5 {
        fill: #292a75;
      }

      .cls-6 {
        fill: #0e5a98;
      }

      .cls-7 {
        fill: #f7c139;
      }

      .cls-8 {
        fill: #f9f3f6;
      }

      .cls-9 {
        fill: #39437c;
      }

      .cls-10 {
        fill: #9bd2f1;
      }

      .cls-11 {
        fill: #f7b82d;
      }

      .cls-12 {
        fill: #fc412d;
      }

      .cls-13 {
        fill: #fff;
      }

      .cls-14 {
        fill: #fb2;
      }

      .cls-15 {
        fill: #ffc2a4;
      }

      .cls-16 {
        fill: #ffa283;
      }

      .cls-17 {
        fill: #ca071c;
      }

      .cls-18 {
        fill: #fdbc8e;
      }

      .cls-19 {
        fill: #141e3f;
      }
    </style>
  </defs>
  <title>recipient-stat_1</title>
  <g id="Layer_2" data-name="Layer 2">
    <g id="_ëîé_2" data-name="‘ëîé_2">
      <g>
        <rect class="cls-1" x="53.8" width="85.13" height="121.32" rx="1.74" ry="1.74"/>
        <rect class="cls-2" x="58.48" y="6.68" width="75.76" height="107.95" rx="1.55" ry="1.55"/>
        <path class="cls-3" d="M134.25,8.23V113.09a1.55,1.55,0,0,1-1.56,1.55h-7.42L58.48,18V8.23A1.55,1.55,0,0,1,60,6.68h72.66A1.55,1.55,0,0,1,134.25,8.23Z"/>
        <path class="cls-4" d="M105.16,5.39H87.57a.43.43,0,0,1,0-.87h17.59a.43.43,0,1,1,0,.87Z"/>
        <circle class="cls-4" cx="96.36" cy="2.28" r="1.41"/>
        <circle class="cls-4" cx="96.36" cy="117.72" r="2.24"/>
        <g>
          <path class="cls-5" d="M76.3,70.27c0-4.6,7.11-3.1,7.11-3.1v-5H108.8v5s7.11-1.51,7.11,3.1-1.64,35.14-1.64,35.14.41,6.16-6,6.16H83.91c-6.38,0-6-6.16-6-6.16S76.3,74.87,76.3,70.27Z"/>
          <path class="cls-6" d="M82.81,60.31H109.4a.71.71,0,0,1,.71.71v.41a.71.71,0,0,1-.71.71H82.81a.7.7,0,0,1-.7-.7V61A.71.71,0,0,1,82.81,60.31Z"/>
          <g>
            <circle class="cls-7" cx="96.54" cy="74.43" r="3.87"/>
            <path class="cls-8" d="M96.76,76.46A1.28,1.28,0,0,0,97.87,76a.09.09,0,0,0-.15-.1c-.28.43-1.2.46-1.86.2-.28-.11-.91-.42-.81-1,.14-.82,1-1,1.78-1.08.54-.08,1-.16,1.26-.46A.67.67,0,0,0,98.2,73a.71.71,0,0,0-.4-.59c-.57-.24-1.49.39-1.53.41a.09.09,0,0,0,0,.12.09.09,0,0,0,.12,0s.88-.6,1.36-.39a.54.54,0,0,1,.3.45.5.5,0,0,1-.06.39c-.17.24-.65.32-1.15.39-.83.13-1.77.27-1.93,1.22-.08.51.26,1,.92,1.22A2.76,2.76,0,0,0,96.76,76.46Z"/>
            <path class="cls-8" d="M95.9,77.14a.09.09,0,0,0,.08-.06l1.66-5.44a.09.09,0,1,0-.17-.05L95.82,77a.09.09,0,0,0,.06.11Z"/>
            <path class="cls-8" d="M93,74.43a3.49,3.49,0,1,1,3.49,3.49A3.5,3.5,0,0,1,93,74.43Zm.18,0a3.32,3.32,0,1,0,3.32-3.31A3.32,3.32,0,0,0,93.22,74.43Z"/>
          </g>
          <g>
            <circle class="cls-7" cx="107.11" cy="104.42" r="4.58"/>
            <path class="cls-8" d="M107.38,106.82a1.51,1.51,0,0,0,1.31-.53.1.1,0,1,0-.17-.11c-.33.51-1.42.54-2.2.24-.33-.13-1.07-.5-1-1.21.16-1,1.15-1.12,2.11-1.27.63-.1,1.23-.19,1.49-.55a.79.79,0,0,0,.11-.62.84.84,0,0,0-.48-.69c-.67-.28-1.77.45-1.81.48a.1.1,0,1,0,.12.17s1-.7,1.61-.46a.64.64,0,0,1,.35.54.58.58,0,0,1-.08.46c-.21.29-.76.37-1.36.46-1,.15-2.09.32-2.28,1.44-.1.6.31,1.14,1.08,1.44A3.2,3.2,0,0,0,107.38,106.82Z"/>
            <path class="cls-8" d="M106.36,107.62a.11.11,0,0,0,.1-.07l2-6.43a.1.1,0,0,0-.07-.13.11.11,0,0,0-.13.07l-2,6.43a.1.1,0,0,0,.07.13Z"/>
            <path class="cls-8" d="M103,104.42a4.13,4.13,0,1,1,4.13,4.13A4.13,4.13,0,0,1,103,104.42Zm.21,0a3.92,3.92,0,1,0,3.92-3.92A3.92,3.92,0,0,0,103.19,104.42Z"/>
          </g>
          <g>
            <circle class="cls-7" cx="82" cy="104.42" r="3.95" transform="translate(-35.97 43.5) rotate(-24.55)"/>
            <path class="cls-8" d="M83.07,106.21a1.3,1.3,0,0,0,.84-.89.09.09,0,0,0-.08-.1.09.09,0,0,0-.1.08c-.08.52-.92.93-1.64,1-.3,0-1,0-1.18-.61-.22-.82.5-1.3,1.2-1.75.46-.3.9-.59,1-1a.68.68,0,0,0-.13-.53.73.73,0,0,0-.62-.37c-.63,0-1.22,1-1.25,1a.09.09,0,0,0,0,.12.09.09,0,0,0,.12,0s.57-.93,1.1-.94a.55.55,0,0,1,.47.29.51.51,0,0,1,.1.39c-.06.3-.47.57-.9.85-.72.47-1.53,1-1.27,2,.14.51.65.78,1.37.74A2.8,2.8,0,0,0,83.07,106.21Z"/>
            <path class="cls-8" d="M82.55,107.2a.09.09,0,0,0,.05-.09l-.77-5.76a.09.09,0,0,0-.1-.08.09.09,0,0,0-.08.1l.77,5.76a.09.09,0,0,0,.1.08Z"/>
            <path class="cls-8" d="M78.76,105.9a3.56,3.56,0,1,1,4.72,1.76A3.57,3.57,0,0,1,78.76,105.9Zm.16-.07a3.38,3.38,0,1,0,1.67-4.48A3.39,3.39,0,0,0,78.92,105.82Z"/>
          </g>
        </g>
        <g>
          <path class="cls-6" d="M94,51.39l6.33-.72s2.92-7.09,2.79-11.29L97.7,40Z"/>
          <path class="cls-4" d="M94.57,50.95,98,40.31l4.81-.53c-.05,3.71-2.23,9.39-2.68,10.53Z"/>
          <g>
            <circle class="cls-9" cx="98.93" cy="45.07" r="1.78" transform="translate(44.17 138.98) rotate(-84.24)"/>
            <g>
              <path class="cls-8" d="M98.63,44.41a.55.55,0,0,0-.21,0,.58.58,0,0,0-.18.12.7.7,0,0,0-.13.19A.77.77,0,0,0,98,45a1.21,1.21,0,0,0,0,.23.59.59,0,0,0,.05.2.37.37,0,0,0,.12.15.38.38,0,0,0,.19.07.25.25,0,0,0,.16,0,.43.43,0,0,0,.13-.13,1.08,1.08,0,0,0,.11-.19l.09-.22.07-.19.08-.18a1,1,0,0,1,.1-.16.63.63,0,0,1,.12-.13.55.55,0,0,1,.16-.08.54.54,0,0,1,.19,0,.47.47,0,0,1,.23.08.51.51,0,0,1,.15.18.83.83,0,0,1,.08.26,1.37,1.37,0,0,1,0,.33,1.18,1.18,0,0,1-.05.27.94.94,0,0,1-.09.2.56.56,0,0,1-.13.14l-.14.09-.15,0h-.15l0-.26a.47.47,0,0,0,.19,0,.44.44,0,0,0,.15-.11.57.57,0,0,0,.1-.17.84.84,0,0,0,0-.21,1.18,1.18,0,0,0,0-.2.68.68,0,0,0,0-.18.35.35,0,0,0-.09-.14.25.25,0,0,0-.15-.06.27.27,0,0,0-.17,0,.54.54,0,0,0-.13.13,1,1,0,0,0-.1.19l-.09.23-.08.19-.08.18-.1.16a.66.66,0,0,1-.12.12.42.42,0,0,1-.15.07.47.47,0,0,1-.19,0,.52.52,0,0,1-.26-.09.57.57,0,0,1-.18-.2.83.83,0,0,1-.09-.28,1.41,1.41,0,0,1,0-.35,1.09,1.09,0,0,1,.08-.33.89.89,0,0,1,.17-.27.69.69,0,0,1,.24-.18.6.6,0,0,1,.3-.05Z"/>
              <g>
                <path class="cls-10" d="M97.38,44.74a.09.09,0,0,1,.09-.08l2.91.29a.09.09,0,0,1,.07.1.09.09,0,0,1-.09.09l-2.91-.29A.09.09,0,0,1,97.38,44.74Z"/>
                <path class="cls-8" d="M97.34,45.09a.09.09,0,0,1,.09-.09l2.91.29a.09.09,0,0,1,.07.1.09.09,0,0,1-.09.09l-2.91-.29A.09.09,0,0,1,97.34,45.09Z"/>
              </g>
            </g>
          </g>
          <circle class="cls-9" cx="97.98" cy="48.47" r="0.49" transform="translate(-0.4 96.11) rotate(-52.16)"/>
          <circle class="cls-9" cx="100.25" cy="41.39" r="0.49" transform="translate(6.24 95.49) rotate(-52.35)"/>
        </g>
        <g>
          <rect class="cls-7" x="68.7" y="10.64" width="54.62" height="34.74" rx="1.92" ry="1.92"/>
          <g>
            <path class="cls-11" d="M123.33,12.56V29.12c-26.81,2-39.18-11.82-43.52-18.48h41.6A1.92,1.92,0,0,1,123.33,12.56Z"/>
            <path class="cls-11" d="M123.33,33.67v9.79a1.92,1.92,0,0,1-1.92,1.92H97.72C105,43.83,116.16,40.49,123.33,33.67Z"/>
            <rect class="cls-5" x="108.15" y="17.43" width="9.98" height="5.27" rx="1.92" ry="1.92"/>
            <path class="cls-12" d="M80.65,17.84v4.44a1.92,1.92,0,0,1-1.92,1.92H74.3a1.92,1.92,0,0,1-1.92-1.92V17.84a1.91,1.91,0,0,1,1.92-1.91h4.47A1.91,1.91,0,0,1,80.65,17.84Z"/>
            <g>
              <path class="cls-13" d="M74.48,34.85v-.68a.17.17,0,1,1,.33,0V35a.15.15,0,0,1-.17.17H73.32a.17.17,0,0,1,0-.34h.49V32.91h-.49a.17.17,0,0,1,0-.34h.83v2.27Z"/>
              <path class="cls-13" d="M76.89,34.85v-.68a.15.15,0,0,1,.17-.17.15.15,0,0,1,.17.17V35a.16.16,0,0,1-.17.17H75.74a.17.17,0,0,1,0-.34h.49V32.91h-.49a.17.17,0,1,1,0-.34h.83v2.27Z"/>
              <path class="cls-13" d="M78.32,34.85h1.15a.17.17,0,0,1,0,.34H78v-1.1a.34.34,0,0,1,.38-.38h.94v-.8H78.15a.17.17,0,1,1,0-.34h1.11a.34.34,0,0,1,.38.39v.69a.36.36,0,0,1-.1.3.34.34,0,0,1-.27.09h-.95Z"/>
              <path class="cls-13" d="M80.57,32.91a.17.17,0,1,1,0-.34h1.15a.33.33,0,0,1,.34.34v.64a.4.4,0,0,1-.13.33.4.4,0,0,1,.13.33v.64a.33.33,0,0,1-.34.34H80.57a.17.17,0,0,1,0-.34h1.15v-.56c0-.19-.07-.25-.17-.25H80.9a.15.15,0,0,1-.17-.17.16.16,0,0,1,.17-.17h.66c.09,0,.17-.05.17-.24v-.56Z"/>
              <path class="cls-13" d="M86.38,34V33a.15.15,0,0,1,.17-.16.15.15,0,0,1,.17.16v1a.16.16,0,0,1,.17.17.15.15,0,0,1-.17.17V35a.15.15,0,0,1-.17.17c-.12,0-.17-.06-.17-.17v-.69h-1V32.74a.15.15,0,0,1,.17-.17.15.15,0,0,1,.17.17V34Z"/>
              <path class="cls-13" d="M88.31,33.71h.62a.35.35,0,0,1,.27.1.33.33,0,0,1,.1.29v.72a.34.34,0,0,1-.08.26.32.32,0,0,1-.29.12h-.75a.52.52,0,0,1-.22-.06l-.13-.06c-.09,0-.19-.07-.19-.19a.17.17,0,0,1,.16-.17.25.25,0,0,1,.11,0l.1,0a.63.63,0,0,0,.18.07H89V34H88V32.57h1.16a.17.17,0,0,1,0,.34h-.82Z"/>
              <path class="cls-13" d="M90.39,34h1.12c.17,0,.2.07.2.23V35c0,.16-.07.21-.22.21H90.27c-.16,0-.22-.06-.22-.21V32.74c0-.08,0-.17.14-.17h.2a.17.17,0,0,1,.16.17.16.16,0,0,1-.17.17Zm0,.34v.52h1v-.52Z"/>
              <path class="cls-13" d="M92.81,32.91a.17.17,0,0,1-.17.17.17.17,0,0,1-.17-.17v-.17a.17.17,0,0,1,.17-.17h1.49v1c0,.12,0,.13-.09.21l-.47.41c-.09.08-.09.08-.09.2V35c0,.11,0,.17-.17.17a.15.15,0,0,1-.17-.17v-.81c0-.11,0-.12.09-.19l.46-.4c.11-.1.11-.09.11-.24v-.46Z"/>
              <path class="cls-13" d="M98,33.71h.62a.34.34,0,0,1,.27.1.33.33,0,0,1,.1.29v.72a.36.36,0,0,1-.08.26.33.33,0,0,1-.29.12h-.74a.5.5,0,0,1-.22-.06l-.13-.06c-.09,0-.19-.07-.19-.19a.17.17,0,0,1,.16-.17.23.23,0,0,1,.11,0l.1,0a.62.62,0,0,0,.18.07h.77V34h-1V32.57h1.16a.17.17,0,1,1,0,.34H98Z"/>
              <path class="cls-13" d="M100.05,34h1.12c.17,0,.2.07.2.23V35c0,.16-.07.21-.22.21H99.94c-.16,0-.22-.06-.22-.21V32.74c0-.08,0-.17.14-.17h.2a.17.17,0,0,1,.16.17.16.16,0,0,1-.17.17Zm0,.34v.52h1v-.52Z"/>
              <path class="cls-13" d="M102.47,32.91a.17.17,0,0,1-.34,0v-.17a.17.17,0,0,1,.17-.17h1.49v1c0,.12,0,.13-.09.21l-.47.41c-.09.08-.1.08-.1.2V35a.17.17,0,1,1-.34,0v-.81a.18.18,0,0,1,.09-.19l.46-.4c.11-.1.1-.09.1-.24v-.46Z"/>
              <path class="cls-13" d="M105.7,32.57a.16.16,0,0,1,.17.17v1a.35.35,0,0,1,.24.1.32.32,0,0,1,.09.24v.8a.31.31,0,0,1-.33.34h-1a.31.31,0,0,1-.33-.34v-.8a.32.32,0,0,1,.09-.24.35.35,0,0,1,.24-.1v-1a.16.16,0,0,1,.17-.17Zm.17,2.27V34h-1v.8Zm-.34-1.14v-.8h-.31v.8Z"/>
              <path class="cls-13" d="M110.53,32.57a.16.16,0,0,1,.17.17v1a.35.35,0,0,1,.25.1.33.33,0,0,1,.09.24v.8a.31.31,0,0,1-.34.34h-1a.31.31,0,0,1-.34-.34v-.8a.32.32,0,0,1,.09-.24.35.35,0,0,1,.25-.1v-1a.16.16,0,0,1,.17-.17Zm.17,2.27V34h-1v.8Zm-.34-1.14v-.8H110v.8Z"/>
              <path class="cls-13" d="M112.13,34h1.12c.17,0,.2.07.2.23V35c0,.16-.07.21-.22.21H112c-.16,0-.22-.06-.22-.21V32.74c0-.08,0-.17.15-.17h.2a.16.16,0,0,1,.16.17.16.16,0,0,1-.17.17Zm0,.34v.52h1v-.52Z"/>
              <path class="cls-13" d="M114.54,32.91a.17.17,0,0,1-.34,0v-.17a.17.17,0,0,1,.17-.17h1.49v1c0,.12,0,.13-.09.21l-.47.41c-.09.08-.1.08-.1.2V35c0,.11,0,.17-.17.17s-.17-.06-.17-.17v-.81A.18.18,0,0,1,115,34l.46-.4c.11-.1.11-.09.11-.24v-.46Z"/>
              <path class="cls-13" d="M117.29,33.71h.62a.34.34,0,0,1,.27.1.33.33,0,0,1,.1.29v.72a.35.35,0,0,1-.08.26.33.33,0,0,1-.29.12h-.74a.5.5,0,0,1-.22-.06l-.13-.06c-.09,0-.19-.07-.19-.19a.17.17,0,0,1,.16-.17.23.23,0,0,1,.11,0l.1,0a.56.56,0,0,0,.18.07h.77V34h-1V32.57h1.16a.17.17,0,0,1,0,.34h-.82Z"/>
            </g>
            <g>
              <path class="cls-13" d="M109.76,40.62V40a.13.13,0,0,1,.14-.14.13.13,0,0,1,.14.14v.72a.13.13,0,0,1-.14.14h-1.13a.14.14,0,1,1,0-.29h.42V39h-.42a.14.14,0,1,1,0-.29h.71v1.95Z"/>
              <path class="cls-13" d="M111.83,40.62V40a.13.13,0,0,1,.14-.14.13.13,0,0,1,.15.14v.72a.13.13,0,0,1-.15.14h-1.13a.14.14,0,1,1,0-.29h.42V39h-.42a.14.14,0,1,1,0-.29h.71v1.95Z"/>
              <path class="cls-13" d="M113.06,40.8c0,.06-.07.1-.14.1a.14.14,0,0,1-.14-.14.31.31,0,0,1,.06-.15l1.08-1.84c0-.06.07-.11.14-.11a.14.14,0,0,1,.14.13.23.23,0,0,1,0,.11Z"/>
              <path class="cls-13" d="M115.13,40.62h1a.14.14,0,0,1,0,.29h-1.28V40a.29.29,0,0,1,.33-.32h.8V39h-1a.14.14,0,1,1,0-.29h1a.3.3,0,0,1,.23.08.3.3,0,0,1,.09.26v.59a.29.29,0,0,1-.09.25.29.29,0,0,1-.23.08h-.81Z"/>
              <path class="cls-13" d="M118,38.67a.29.29,0,0,1,.28.29v1.66a.28.28,0,0,1-.28.29h-.85a.29.29,0,0,1-.29-.29V39a.29.29,0,0,1,.29-.29Zm0,1.95V39h-.85v1.66Z"/>
            </g>
            <g>
              <path class="cls-13" d="M73.75,39.67c0-.06,0-.1.1-.1s.09,0,.09.1v1.39h-.25l-.5-1.15h0V41c0,.06,0,.1-.09.1S73,41,73,41V39.57h.25l.5,1.16h0Z"/>
              <path class="cls-13" d="M74.75,39.67c0-.05,0-.1.1-.1s.09,0,.1.1l.37,1.3s0,.1-.09.1-.09,0-.1-.1L75,40.73h-.41l-.07.23a.11.11,0,0,1-.1.1c-.05,0-.11,0-.09-.1Zm.1.36h0l-.15.52H75Z"/>
              <path class="cls-13" d="M76.46,39.57h.24V41c0,.06,0,.1-.09.1s-.1,0-.1-.1V39.84h0l-.18.27v0c0,.06,0,.11-.09.11s-.1-.06-.1-.11v0l-.18-.27h0V41a.08.08,0,0,1-.1.1c-.07,0-.1,0-.1-.1V39.57H76l.24.34Z"/>
              <path class="cls-13" d="M78,40.87a.09.09,0,0,1,.09.1.09.09,0,0,1-.09.1h-.85V39.57H78a.09.09,0,0,1,.09.09.09.09,0,0,1-.09.1h-.66v.46h.28a.09.09,0,0,1,.1.1.09.09,0,0,1-.1.1h-.28v.46Z"/>
              <path class="cls-13" d="M80.77,40.69a.23.23,0,0,1,.07.16.21.21,0,0,1-.24.22h-.42A.28.28,0,0,1,80,41a.24.24,0,0,1-.09-.18.1.1,0,0,1,.1-.11.09.09,0,0,1,.09.1c0,.06,0,.06.09.06h.41s.06,0,.06,0,0,0,0-.06L80,39.94a.22.22,0,0,1-.06-.16.21.21,0,0,1,.1-.18.26.26,0,0,1,.16,0h.4a.27.27,0,0,1,.19.06.27.27,0,0,1,.09.18c0,.06,0,.11-.1.11a.09.09,0,0,1-.09-.09c0-.06,0-.07-.09-.07h-.41s-.06,0-.06,0a.1.1,0,0,0,0,.05Z"/>
              <path class="cls-13" d="M81.58,41.06a.29.29,0,0,1-.24-.1.31.31,0,0,1-.07-.23V39.66c0-.06,0-.09.09-.09s.1,0,.1.09v1.07c0,.11,0,.14.12.14h.32c.09,0,.12,0,.12-.14V39.66a.08.08,0,0,1,.1-.09c.07,0,.1,0,.1.09v1.07a.31.31,0,0,1-.07.23.3.3,0,0,1-.24.1Z"/>
              <path class="cls-13" d="M82.84,41a.08.08,0,0,1-.09.1.08.08,0,0,1-.1-.1V39.57h.64a.29.29,0,0,1,.3.28V40a.28.28,0,0,1-.3.27h-.18l.43.62a.18.18,0,0,1,0,.1.09.09,0,0,1-.1.09.11.11,0,0,1-.09-.05l-.53-.76h0Zm0-.9h.42c.05,0,.14,0,.14-.08v-.14c0-.08-.08-.09-.14-.09h-.43Z"/>
              <path class="cls-13" d="M84.79,39.67c0-.06,0-.1.1-.1s.09,0,.09.1v1.39h-.25l-.5-1.15h0V41a.08.08,0,0,1-.09.1c-.07,0-.1,0-.1-.1V39.57h.25l.5,1.16h0Z"/>
              <path class="cls-13" d="M85.79,39.67c0-.05,0-.1.1-.1s.09,0,.1.1l.37,1.3s0,.1-.09.1a.11.11,0,0,1-.1-.1l-.07-.23h-.41L85.6,41a.11.11,0,0,1-.11.1c-.05,0-.11,0-.09-.1Zm.1.36h0l-.15.52H86Z"/>
              <path class="cls-13" d="M87.5,39.57h.24V41a.1.1,0,0,1-.19,0V39.84h0l-.18.27v0c0,.06,0,.11-.1.11s-.1-.06-.1-.11v0L87,39.84h0V41a.08.08,0,0,1-.1.1c-.07,0-.1,0-.1-.1V39.57H87l.23.34Z"/>
              <path class="cls-13" d="M89,40.87a.09.09,0,0,1,.1.1.09.09,0,0,1-.1.1h-.85V39.57H89a.09.09,0,0,1,.1.09.09.09,0,0,1-.1.1h-.66v.46h.28a.09.09,0,0,1,.1.1.09.09,0,0,1-.1.1h-.28v.46Z"/>
            </g>
          </g>
        </g>
        <g>
          <g>
            <circle class="cls-14" cx="81.35" cy="9.61" r="1.95" transform="translate(5.14 39.65) rotate(-28.25)"/>
            <path class="cls-8" d="M82.2,9a.64.64,0,0,0-.46-.38,0,0,0,0,0,0,0,0,0,0,0,0,0,0c.26,0,.49.42.53.77,0,.15,0,.5-.26.6s-.65-.21-.9-.53-.32-.43-.51-.45a.34.34,0,0,0-.25.08.36.36,0,0,0-.16.32c0,.31.53.57.55.58a0,0,0,1,0,0-.08s-.47-.25-.5-.51a.27.27,0,0,1,.13-.24.25.25,0,0,1,.19-.06c.15,0,.29.21.45.42s.54.72,1,.57c.25-.08.36-.34.32-.7A1.36,1.36,0,0,0,82.2,9Z"/>
            <path class="cls-8" d="M82.7,9.25a0,0,0,0,0,0,0l-2.81.56a0,0,0,0,0,0,.05,0,0,0,0,0,.05,0l2.81-.56a0,0,0,0,0,0-.05Z"/>
            <path class="cls-8" d="M82.18,11.16a1.76,1.76,0,1,1,.72-2.38A1.76,1.76,0,0,1,82.18,11.16Zm0-.08a1.67,1.67,0,1,0-2.26-.68A1.67,1.67,0,0,0,82.14,11.08Z"/>
          </g>
          <path class="cls-15" d="M38.85,21.37c0,.2.05.45.11.72.18.88.58,1.93,1.41,1.78.49-.09.88-1,1.17-1.87.07-.22.13-.44.18-.66A13.69,13.69,0,0,0,42,19.76h0A4.85,4.85,0,0,1,39.81,19a4.23,4.23,0,0,1-1-.95A28.14,28.14,0,0,0,38.85,21.37Z"/>
          <path class="cls-16" d="M39.81,19a5.39,5.39,0,0,0,1.9,2.35A13.69,13.69,0,0,0,42,19.76h0A4.85,4.85,0,0,1,39.81,19Z"/>
          <path class="cls-12" d="M2.53,75.93a49.94,49.94,0,0,0,5.09,8c2.5,2.89,8,9.79,11.85,9.84s5.68-4.41,7.15-8C28,82.3,32.88,67.88,33.5,65.94h0l.06-.2s.07.54.16,1.32c.3,2.63,1,8.4,1.06,10C34.93,79.23,36.65,90.34,37,92s-.15,3.82,0,10.18c.14,6.11,3.17,14.84,3.41,15.52a2.87,2.87,0,0,1,.76-.53l.13-.06.2-.08a5.13,5.13,0,0,1,2.06-.35l.66,0c.11-1.73.52-8.62.56-12,.05-3.91.15-24.43.24-29.18.06-2.75.26-9.44.42-14.57q0-.15,0-.31c.12-3.57.21-6.32.21-6.32L42,54.36h-.23l-4.09.1h-.23l-1.73,0h-.23c-1.68,0-3.36,0-4.79-.06h-.22c-2.16-.09-3.69-.23-3.69-.23s-1,2.75-2,6l-.08.22c-1,3.09-2.19,6.58-2.78,8.6-1.23,4.21-2.79,13.46-4,13.85S3.57,71.3,3.17,70.93a1.53,1.53,0,0,1,.3,1.39c0,.09,0,.19,0,.29,0,.32-.13.71-.25,1.2A16.89,16.89,0,0,1,2.53,75.93Z"/>
          <path class="cls-17" d="M33.5,65.93l.06-.2c0,.14,1.08,9.24,1.22,11.36S36.65,90.34,37,92s-.15,3.82,0,10.18c.14,6.11,3.17,14.84,3.41,15.52a2.87,2.87,0,0,1,.76-.53c-.63-4.31-1.73-11.7-2.37-15.18-.94-5.09-.23-10.57-1.06-16s-4.16-21.25-4.16-21.25Z"/>
          <path class="cls-15" d="M57.65,35.52c1.57.83,6.36,2.35,8.81,1.42s4.6-4.16,6.32-8.15,6.17-14,6.17-14a15.28,15.28,0,0,0,2.84-3.29,2.09,2.09,0,0,1-.35,0l-.3,0-.26-.05a2,2,0,0,1-.56-.26l-.18-.14a1.92,1.92,0,0,1-.49-.62,1.09,1.09,0,0,1-.09-.21,1.79,1.79,0,0,1-.12-.57.67.67,0,0,1,0-.13A1.52,1.52,0,0,0,80,9.35.37.37,0,0,0,80.17,9c0-.22-.25-.3-.54-.3A4.52,4.52,0,0,0,77,10c-.68.83-3,4-4.21,5.73s-8.37,12.82-9.16,13.07-5.19-1.57-5.19-1.57a10.16,10.16,0,0,0-.84,3.33A24.85,24.85,0,0,0,57.65,35.52Z"/>
          <path class="cls-18" d="M11.48,65a4.27,4.27,0,0,1,0,.64A2.62,2.62,0,0,1,11.48,65Z"/>
          <path class="cls-15" d="M9.87,61.07c.83-2,9.94-23.21,10.53-24.09a37.75,37.75,0,0,1,5.06,5.76c-.84,1.47-3.59,6.54-5.21,9.22C18.53,54.8,13.1,62.73,13,63.47s.74,2,.24,2.25-1-1.27-1-1.27,0,3.38-.44,3.43-.54-1.38-.53-2.25c0-.36,0-.41,0,0-.12,1.17-.76,3.14-1.21,3.07s-.05-2.21.39-3.41c.12-.33,0-.36,0,0-.12.86-1.05,2.38-1.35,2.2s.29-2.69.29-2.69-.64,1.18-1,.83S9,63,9.87,61.07Z"/>
          <path class="cls-18" d="M10.43,65.28c0-.36.07-.59.07-.59S10.48,64.94,10.43,65.28Z"/>
          <path class="cls-15" d="M34.84,14.85c.68,1.32,3.18,1.67,3.18,1.67a5.7,5.7,0,0,0,.8,1.52A4.46,4.46,0,0,0,42,19.76a7.68,7.68,0,0,0,1,0c2.28,0,3.79-1.64,4.05-4.33v-.08A9,9,0,0,0,47,13.48,19.09,19.09,0,0,0,45.38,8a7.24,7.24,0,0,1-5,1.3A3.26,3.26,0,0,0,38,10.38l0,0a1.94,1.94,0,0,0-.44.8,5.51,5.51,0,0,0,0,3.21,6.89,6.89,0,0,0-.39-.59,4.17,4.17,0,0,0-1.28-1C35.23,12.55,34.15,13.53,34.84,14.85Z"/>
          <path class="cls-19" d="M36.15,12.92a6.18,6.18,0,0,1,1,.9,7,7,0,0,1,.39.6,5.48,5.48,0,0,1,0-3.21h0a1.87,1.87,0,0,1,.46-.81A3.27,3.27,0,0,1,40.4,9.32a7.24,7.24,0,0,0,5-1.31h0c.76-.65,1.94-3.07-.12-3.91C42,2.79,36.87,5.9,36.15,7,34.78,9.18,36.15,12.92,36.15,12.92Zm1.3,1.21s0,.07,0,0Z"/>
          <path class="cls-19" d="M37.48,14.17l0,0S37.51,14.2,37.48,14.17Z"/>
          <path class="cls-5" d="M40.4,117.66a4.35,4.35,0,0,1,3.15-1l.66,0a6.52,6.52,0,0,1,4.09,1.48H40.19C40.13,118.05,40.21,117.87,40.4,117.66Z"/>
          <path class="cls-6" d="M20.4,37a37.8,37.8,0,0,1,5.06,5.76l1-1.41.14-.19,2.49-3.42s-.35,3.18-.74,6.26-1.62,10.24-1.62,10.24,4.41.39,8.78.29l10.11-.24c.34-2.11,3-14,3.33-15.76s1.23-5.68,2.79-5c.88.39,2.64,1,4,1.42L56,35l1.64.52a19.74,19.74,0,0,1,0-4.51,20,20,0,0,1,.84-3.82c-.06,0-.65-.3-1.6-.71l-.2-.09c-3.14-1.36-9.69-4-14-4.34l-.23,0h-.22l-.74,0c-.28.91-.67,1.78-1.17,1.87-.83.15-1.23-.9-1.41-1.78-.56,0-1.13.11-1.7.2l-.22,0c-4.11.64-8.08,2.17-10.38,4.14C24.2,28.56,22,33.19,21,35.54h0l-.09.2h0C20.57,36.51,20.4,37,20.4,37Z"/>
          <path class="cls-5" d="M2.72,70.47c.17.18.31.32.44.45.4.46.5.91,0,2.89a17.2,17.2,0,0,1-.66,2.11C1.8,77.82.81,79.45.15,79.23-.75,78.94,2.72,70.47,2.72,70.47Z"/>
          <path class="cls-19" d="M41.74,54.36a18.49,18.49,0,0,0,3.7,6.53q0-.15,0-.31A18.54,18.54,0,0,1,42,54.36Z"/>
          <path class="cls-19" d="M34.43,59.48a.12.12,0,0,0,0,.1.11.11,0,0,0,.08,0h0c1.62-.23,2.68-3.6,3.09-5.15h-.23c-.4,1.48-1.36,4.49-2.73,4.89l1-4.85h-.23Z"/>
          <path class="cls-19" d="M24.64,60.45a5.33,5.33,0,0,0,1.91-.37l.26-.11h0c2.49-1.16,3.51-4.11,3.86-5.51h-.22c-.44,1.71-1.86,5.66-5.73,5.78Z"/>
          <path class="cls-19" d="M3.43,72.62c1.05,1.22,2.41,2.77,3.62,4,2.34,2.49,10,9.33,10.55,9.39h0c.53,0,1.93-1.18,3.17-5C22,77.44,26.53,61,26.81,60v0a.11.11,0,0,0-.08-.13.11.11,0,0,0-.14.08l-.06.22c-.56,2-4.83,17.44-6,20.93-1.19,3.69-2.57,4.82-2.95,4.82h0A119.92,119.92,0,0,1,7.21,76.51C6,75.18,4.54,73.56,3.47,72.32,3.46,72.42,3.45,72.51,3.43,72.62Z"/>
          <path class="cls-19" d="M20.4,90.31h0a.11.11,0,0,0,.07-.14,6.06,6.06,0,0,1,0-1.66.11.11,0,0,0-.1-.12.11.11,0,0,0-.12.1,6.24,6.24,0,0,0,0,1.77A.11.11,0,0,0,20.4,90.31Z"/>
          <path class="cls-19" d="M42.38,91.09a.11.11,0,0,0,.11-.09,7.47,7.47,0,0,1,1.37-1.56.11.11,0,1,0-.12-.19A6.82,6.82,0,0,0,42.27,91a.11.11,0,0,0,.09.13Z"/>
          <path class="cls-19" d="M33.46,65.74l0,.19L33.72,67c.69,3.37,2.51,12.44,3.06,16.71.4,3.11.65,6.77.89,10.3.17,2.51.33,4.88.54,6.88a111.51,111.51,0,0,0,3.08,16.14l.2-.08a111.82,111.82,0,0,1-3.07-16.08c-.2-2-.36-4.37-.53-6.88-.24-3.54-.49-7.19-.89-10.31-.68-5.28-3.3-17.9-3.33-18a.11.11,0,1,0-.21,0Z"/>
          <g>
            <path class="cls-19" d="M43.82,15.07a.11.11,0,0,1,.16,0,4.46,4.46,0,0,0,1.47.76c-.06-.16-.19-.48-.32-.79A15.91,15.91,0,0,1,44,11.75a.73.73,0,0,1,.21-.56,2.82,2.82,0,0,1,1.69-.51h0a.11.11,0,0,1,0,.22,2.65,2.65,0,0,0-1.53.45.51.51,0,0,0-.15.4A16.24,16.24,0,0,0,45.33,15c.33.81.37.92.36,1a.14.14,0,0,1-.1.11h-.06a4.13,4.13,0,0,1-1.72-.84A.11.11,0,0,1,43.82,15.07Z"/>
            <path class="cls-19" d="M43.14,17.11a2.13,2.13,0,0,0,1.55.17.11.11,0,0,1,.17.14,1.09,1.09,0,0,1-.69.15A2.38,2.38,0,0,1,43,17.3a.11.11,0,0,1,.11-.19Z"/>
            <path class="cls-19" d="M42.07,11.89a.11.11,0,0,1,.06.14.11.11,0,0,1-.14.06,2.52,2.52,0,0,0-2.19.21l-.06,0a.11.11,0,0,1-.09,0,.11.11,0,0,1,0-.15A2.7,2.7,0,0,1,42.07,11.89Z"/>
            <path class="cls-19" d="M36,13.89a.11.11,0,0,1,.13-.08A3,3,0,0,1,37.55,15a.11.11,0,0,1,0,.15l-.06,0a.11.11,0,0,1-.09-.05,4.3,4.3,0,0,0-.44-.55,2,2,0,0,0-.48.51.11.11,0,0,1-.11.08h0a.11.11,0,0,1-.08-.13,1.87,1.87,0,0,1,.54-.61,1.57,1.57,0,0,0-.67-.39A.11.11,0,0,1,36,13.89Z"/>
          </g>
          <circle class="cls-19" cx="45.56" cy="12.11" r="0.3"/>
          <circle class="cls-19" cx="42.55" cy="13.09" r="0.34"/>
          <path class="cls-19" d="M55.78,34.92,56,35a20.18,20.18,0,0,1,.87-8.52l-.2-.09A20.49,20.49,0,0,0,55.78,34.92Z"/>
          <path class="cls-19" d="M20.9,35.75h0a31.5,31.5,0,0,1,5.58,5.58l.14-.19A31.6,31.6,0,0,0,21,35.54Z"/>
          <path class="cls-19" d="M37,22.31a5.79,5.79,0,0,0,1.3,3.51,2,2,0,0,0,1.38.54h.17c1.1-.08,1.9-.93,2.31-2.44A9,9,0,0,0,42.49,22h-.22c-.05,1-.37,4-2.39,4.12a1.77,1.77,0,0,1-1.39-.48,5.66,5.66,0,0,1-1.23-3.38Z"/>
          <path class="cls-19" d="M78.6,9.86a.11.11,0,0,0,.1.07h0l.7-.25a.67.67,0,0,1,0-.13A1.52,1.52,0,0,0,80,9.35a.11.11,0,0,0-.13-.05l-.45.16-.74.26A.11.11,0,0,0,78.6,9.86Z"/>
          <path class="cls-19" d="M78.84,11a.1.1,0,0,0,.07,0A.11.11,0,0,0,79,11a3,3,0,0,1,.66-.56,1.09,1.09,0,0,1-.09-.21,3.26,3.26,0,0,0-.74.62A.11.11,0,0,0,78.84,11Z"/>
          <path class="cls-19" d="M79.51,11.74a.1.1,0,0,0,.09,0l.07,0,.67-.54-.18-.14-.63.51A.11.11,0,0,0,79.51,11.74Z"/>
          <path class="cls-19" d="M80.16,12.27a.11.11,0,0,0,.09,0l.07,0a9.33,9.33,0,0,0,.83-.77l-.26-.05a8.45,8.45,0,0,1-.71.65A.11.11,0,0,0,80.16,12.27Z"/>
          <circle class="cls-16" cx="41.35" cy="15.49" r="1.01"/>
          <path class="cls-16" d="M45.86,14.48a1,1,0,0,0,1,1l.2,0v-.08A9,9,0,0,0,47,13.48h-.15A1,1,0,0,0,45.86,14.48Z"/>
          <path class="cls-19" d="M64.55,37.37c1.93,0,2.91-.75,4.25-1.91,2.06-1.8,4.27-7.08,4.37-7.3A.11.11,0,0,0,73.1,28a.11.11,0,0,0-.14.06c0,.05-2.29,5.45-4.31,7.22s-3.22,2.56-8.48,1.07a.11.11,0,0,0-.14.08.11.11,0,0,0,.08.14A17.1,17.1,0,0,0,64.55,37.37Z"/>
          <path class="cls-19" d="M42.89,19.91a.11.11,0,0,0,0-.22,6.6,6.6,0,0,1-3.57-1.25.11.11,0,0,0-.14.17,6.7,6.7,0,0,0,3.71,1.31Z"/>
        </g>
        <g>
          <path class="cls-6" d="M92.84,52.22,87,48.54s-7.27,4-10,7.64l5,3.2Z"/>
          <path class="cls-4" d="M92.09,52.23,82,58.89l-4.42-2.82C80.14,53,85.83,49.66,87,49Z"/>
          <g>
            <circle class="cls-9" cx="84.42" cy="54.23" r="1.93" transform="translate(-13.45 76.36) rotate(-45.46)"/>
            <g>
              <path class="cls-8" d="M84.23,55a.59.59,0,0,0,.21.11.62.62,0,0,0,.23,0,.76.76,0,0,0,.23-.07.84.84,0,0,0,.22-.16,1.28,1.28,0,0,0,.16-.2.64.64,0,0,0,.09-.21.4.4,0,0,0,0-.2.41.41,0,0,0-.11-.19.27.27,0,0,0-.16-.08.49.49,0,0,0-.2,0l-.22.09-.23.13-.19.11-.2.1-.19.07-.19,0a.55.55,0,0,1-.18,0,.57.57,0,0,1-.17-.11.51.51,0,0,1-.13-.22.55.55,0,0,1,0-.26.89.89,0,0,1,.11-.28,1.47,1.47,0,0,1,.22-.28,1.31,1.31,0,0,1,.23-.2,1,1,0,0,1,.22-.11.6.6,0,0,1,.2,0l.18,0,.16.06.13.09-.2.2a.5.5,0,0,0-.19-.1.48.48,0,0,0-.2,0,.63.63,0,0,0-.2.07.9.9,0,0,0-.18.14l-.14.17a.77.77,0,0,0-.09.18.38.38,0,0,0,0,.18.28.28,0,0,0,.09.16.29.29,0,0,0,.17.09.56.56,0,0,0,.2,0l.22-.09.23-.13.19-.11.19-.1.19-.07.19,0a.47.47,0,0,1,.18,0,.52.52,0,0,1,.17.11.57.57,0,0,1,.16.26.63.63,0,0,1,0,.29.9.9,0,0,1-.12.3,1.54,1.54,0,0,1-.23.3,1.18,1.18,0,0,1-.29.22,1,1,0,0,1-.33.11.75.75,0,0,1-.33,0A.65.65,0,0,1,84,55.2Z"/>
              <g>
                <path class="cls-8" d="M85.51,55.57a.1.1,0,0,1-.14,0l-2.26-2.22a.09.09,0,0,1,0-.13.1.1,0,0,1,.14,0l2.25,2.22A.1.1,0,0,1,85.51,55.57Z"/>
                <path class="cls-8" d="M85.77,55.3a.1.1,0,0,1-.14,0l-2.26-2.22a.1.1,0,0,1,0-.14.09.09,0,0,1,.14,0l2.26,2.22A.1.1,0,0,1,85.77,55.3Z"/>
              </g>
            </g>
          </g>
          <circle class="cls-9" cx="87.53" cy="52.02" r="0.53" transform="translate(-9.65 21.64) rotate(-13.36)"/>
          <circle class="cls-9" cx="80.81" cy="56.44" r="0.53" transform="translate(-10.99 20.53) rotate(-13.57)"/>
        </g>
        <g>
          <path class="cls-6" d="M102,58.49l6.33-.72s2.92-7.09,2.79-11.29l-5.46.6Z"/>
          <path class="cls-4" d="M102.57,58.06,106,47.42l4.81-.53c-.05,3.71-2.23,9.39-2.68,10.53Z"/>
          <g>
            <circle class="cls-9" cx="106.94" cy="52.18" r="1.78" transform="translate(44.3 153.34) rotate(-84.25)"/>
            <g>
              <path class="cls-8" d="M106.63,51.52a.55.55,0,0,0-.21,0,.58.58,0,0,0-.18.12.7.7,0,0,0-.13.19.76.76,0,0,0-.06.24,1.2,1.2,0,0,0,0,.23.6.6,0,0,0,.05.2.37.37,0,0,0,.12.15.38.38,0,0,0,.19.07.25.25,0,0,0,.16,0,.43.43,0,0,0,.13-.13,1.09,1.09,0,0,0,.11-.19l.09-.22L107,52l.08-.18a1,1,0,0,1,.1-.16.62.62,0,0,1,.12-.13.54.54,0,0,1,.16-.08.54.54,0,0,1,.19,0,.47.47,0,0,1,.23.08.51.51,0,0,1,.15.18.82.82,0,0,1,.08.26,1.36,1.36,0,0,1,0,.33,1.18,1.18,0,0,1-.05.27.94.94,0,0,1-.09.2.56.56,0,0,1-.13.14l-.14.09-.15,0h-.15l0-.26a.47.47,0,0,0,.19,0,.44.44,0,0,0,.15-.11.57.57,0,0,0,.1-.16.84.84,0,0,0,0-.21,1.2,1.2,0,0,0,0-.2.69.69,0,0,0,0-.18.35.35,0,0,0-.09-.14.25.25,0,0,0-.15-.06.27.27,0,0,0-.17,0,.54.54,0,0,0-.13.13,1,1,0,0,0-.1.19l-.09.23-.08.19-.08.18-.1.16a.67.67,0,0,1-.12.12.42.42,0,0,1-.15.07.46.46,0,0,1-.19,0,.52.52,0,0,1-.26-.09.57.57,0,0,1-.18-.2.83.83,0,0,1-.09-.28,1.41,1.41,0,0,1,0-.35,1.09,1.09,0,0,1,.08-.33.89.89,0,0,1,.17-.27.68.68,0,0,1,.24-.18.6.6,0,0,1,.3-.05Z"/>
              <g>
                <path class="cls-8" d="M105.38,51.85a.09.09,0,0,1,.09-.08l2.91.29a.09.09,0,0,1,.07.1.09.09,0,0,1-.09.09l-2.91-.29A.09.09,0,0,1,105.38,51.85Z"/>
                <path class="cls-8" d="M105.35,52.19a.09.09,0,0,1,.09-.09l2.91.29a.09.09,0,0,1,.07.1.09.09,0,0,1-.09.09l-2.91-.29A.09.09,0,0,1,105.35,52.19Z"/>
              </g>
            </g>
          </g>
          <circle class="cls-9" cx="105.98" cy="55.58" r="0.49" transform="translate(-2.92 105.18) rotate(-52.16)"/>
          <circle class="cls-9" cx="108.26" cy="48.5" r="0.49" transform="translate(3.73 104.58) rotate(-52.35)"/>
        </g>
        <g>
          <path class="cls-4" d="M103.5,101.85,96.92,97.7s-8.2,4.51-11.29,8.61l5.65,3.6Z"/>
          <path class="cls-6" d="M102.66,101.86l-11.38,7.51-5-3.17c2.89-3.49,9.3-7.23,10.6-8Z"/>
          <g>
            <circle class="cls-4" cx="94.01" cy="104.12" r="2.17" transform="translate(-46.14 98.09) rotate(-45.46)"/>
            <g>
              <path class="cls-13" d="M93.8,105a.67.67,0,0,0,.23.13.7.7,0,0,0,.26,0,.86.86,0,0,0,.26-.08.94.94,0,0,0,.25-.18,1.47,1.47,0,0,0,.18-.22.71.71,0,0,0,.1-.23A.44.44,0,0,0,95,104a.3.3,0,0,0-.19-.09.55.55,0,0,0-.22,0l-.25.1-.25.14-.21.12-.22.11-.22.07a.78.78,0,0,1-.21,0,.63.63,0,0,1-.21,0,.66.66,0,0,1-.19-.13.58.58,0,0,1-.15-.25.62.62,0,0,1,0-.29,1,1,0,0,1,.13-.31,1.67,1.67,0,0,1,.25-.31,1.51,1.51,0,0,1,.26-.22,1.17,1.17,0,0,1,.24-.12.67.67,0,0,1,.23,0,.74.74,0,0,1,.2,0,.65.65,0,0,1,.17.07l.15.1-.23.23a.56.56,0,0,0-.21-.11.54.54,0,0,0-.23,0,.71.71,0,0,0-.22.08,1,1,0,0,0-.2.16,1.55,1.55,0,0,0-.16.19.89.89,0,0,0-.1.2.43.43,0,0,0,0,.2.31.31,0,0,0,.1.18.33.33,0,0,0,.19.1.63.63,0,0,0,.22,0,1.28,1.28,0,0,0,.25-.11l.26-.15.22-.12.21-.11.22-.07.21,0a.53.53,0,0,1,.2,0,.59.59,0,0,1,.19.13.64.64,0,0,1,.18.29.71.71,0,0,1,0,.33,1,1,0,0,1-.13.34A1.71,1.71,0,0,1,95,105a1.33,1.33,0,0,1-.33.25,1.09,1.09,0,0,1-.37.12.84.84,0,0,1-.37,0,.73.73,0,0,1-.33-.18Z"/>
              <g>
                <path class="cls-13" d="M95.24,105.62a.11.11,0,0,1-.15,0l-2.54-2.5a.1.1,0,0,1,0-.15.11.11,0,0,1,.15,0l2.54,2.5A.11.11,0,0,1,95.24,105.62Z"/>
                <path class="cls-13" d="M95.54,105.32a.11.11,0,0,1-.15,0l-2.54-2.5a.11.11,0,0,1,0-.15.11.11,0,0,1,.15,0l2.54,2.5A.11.11,0,0,1,95.54,105.32Z"/>
              </g>
            </g>
          </g>
          <circle class="cls-4" cx="97.52" cy="101.61" r="0.6" transform="translate(-20.83 25.26) rotate(-13.35)"/>
          <circle class="cls-4" cx="89.95" cy="106.6" r="0.6" transform="translate(-22.48 24.05) rotate(-13.55)"/>
        </g>
        <g>
          <path class="cls-4" d="M95.68,89.62l6.06-3.83s7.56,4.16,10.41,7.94L106.94,97Z"/>
          <path class="cls-6" d="M96.45,89.63l10.49,6.92,4.59-2.93c-2.66-3.21-8.57-6.66-9.78-7.35Z"/>
          <g>
            <circle class="cls-4" cx="104.43" cy="91.71" r="2" transform="translate(-34.33 99.6) rotate(-44.55)"/>
            <g>
              <path class="cls-13" d="M104.83,92.71a.67.67,0,0,1-.3.17.77.77,0,0,1-.34,0,1,1,0,0,1-.34-.11,1.23,1.23,0,0,1-.3-.23,1.57,1.57,0,0,1-.24-.31.93.93,0,0,1-.12-.31.66.66,0,0,1,0-.3.6.6,0,0,1,.16-.27.54.54,0,0,1,.17-.12.5.5,0,0,1,.18,0l.19,0,.2.07.2.1.2.11.24.14.23.1a.59.59,0,0,0,.21,0,.3.3,0,0,0,.17-.09.28.28,0,0,0,.09-.16.39.39,0,0,0,0-.18.82.82,0,0,0-.09-.19,1.38,1.38,0,0,0-.14-.17.93.93,0,0,0-.19-.15.65.65,0,0,0-.2-.07.5.5,0,0,0-.21,0,.52.52,0,0,0-.19.1l-.21-.21.14-.09.16-.07.19,0a.62.62,0,0,1,.21,0,1.07,1.07,0,0,1,.22.11,1.38,1.38,0,0,1,.24.2,1.54,1.54,0,0,1,.23.29.92.92,0,0,1,.12.29.57.57,0,0,1,0,.27.53.53,0,0,1-.14.23.61.61,0,0,1-.18.12.59.59,0,0,1-.19,0l-.2,0-.2-.07-.2-.1-.2-.11-.23-.13-.23-.1a.5.5,0,0,0-.2,0,.28.28,0,0,0-.17.08.4.4,0,0,0-.12.41.66.66,0,0,0,.09.22,1.35,1.35,0,0,0,.16.21.87.87,0,0,0,.23.17.8.8,0,0,0,.24.07.65.65,0,0,0,.24,0,.61.61,0,0,0,.21-.12Z"/>
              <g>
                <path class="cls-13" d="M103.3,93.09a.1.1,0,0,0,.14,0l2.34-2.31a.1.1,0,0,0,0-.14.1.1,0,0,0-.14,0L103.29,93A.1.1,0,0,0,103.3,93.09Z"/>
                <path class="cls-13" d="M103,92.81a.1.1,0,0,0,.14,0l2.35-2.3a.1.1,0,0,0,0-.14.1.1,0,0,0-.14,0L103,92.67A.1.1,0,0,0,103,92.81Z"/>
              </g>
            </g>
          </g>
          <circle class="cls-4" cx="101.2" cy="89.4" r="0.55" transform="translate(-9.18 167.19) rotate(-76.63)"/>
          <circle class="cls-4" cx="108.18" cy="94" r="0.55" transform="translate(-8.56 177.13) rotate(-76.45)"/>
        </g>
      </g>
    </g>
  </g>
</svg>
