<svg xmlns="http://www.w3.org/2000/svg" viewBox="0 0 95.66 132.85">
  <defs>
    <style>
      .cls-1 {
        isolation: isolate;
      }

      .cls-12, .cls-2 {
        fill: #b3e3ef;
      }

      .cls-3 {
        fill: #d2edf5;
      }

      .cls-4 {
        fill: #e9f4f0;
      }

      .cls-12, .cls-4 {
        opacity: 0.4;
      }

      .cls-5 {
        fill: #33a6d2;
      }

      .cls-6 {
        fill: #292a75;
      }

      .cls-7 {
        fill: #0e5a98;
      }

      .cls-11, .cls-8 {
        fill: #f7c139;
      }

      .cls-9 {
        fill: #ffcb57;
      }

      .cls-10 {
        fill: #e2a214;
      }

      .cls-10, .cls-11 {
        opacity: 0.3;
      }

      .cls-10, .cls-11, .cls-12 {
        mix-blend-mode: multiply;
      }

      .cls-13 {
        fill: #fff;
      }

      .cls-14 {
        fill: #fc412d;
      }

      .cls-15 {
        fill: #e20016;
      }

      .cls-16 {
        fill: #ffc2a4;
      }

      .cls-17 {
        fill: #ffa283;
      }

      .cls-18 {
        fill: #392524;
      }

      .cls-19 {
        fill: #1b1934;
      }

      .cls-20 {
        fill: #30407a;
      }

      .cls-21 {
        fill: #5b403f;
      }

      .cls-22 {
        fill: #3d4193;
      }
    </style>
  </defs>
  <title>recipient-stat_3</title>
  <g class="cls-1">
    <g id="Layer_2" data-name="Layer 2">
      <g id="_ëîé_2" data-name="‘ëîé_2">
        <g>
          <g>
            <rect class="cls-2" x="8.09" width="87.56" height="124.79" rx="1.79" ry="1.79"/>
            <path class="cls-3" d="M90.83,8.46V116.33a1.59,1.59,0,0,1-1.58,1.59H14.51a1.59,1.59,0,0,1-1.59-1.59V8.46a1.59,1.59,0,0,1,1.59-1.59H89.25A1.59,1.59,0,0,1,90.83,8.46Z"/>
            <path class="cls-4" d="M90.83,8.46V116.33a1.59,1.59,0,0,1-1.58,1.59H81.62L12.91,18.5v-10a1.59,1.59,0,0,1,1.59-1.59H89.25A1.59,1.59,0,0,1,90.83,8.46Z"/>
            <path class="cls-5" d="M60.92,5.54H42.83a.45.45,0,0,1,0-.89H60.92a.45.45,0,1,1,0,.89Z"/>
            <circle class="cls-5" cx="51.88" cy="2.34" r="1.45"/>
            <circle class="cls-5" cx="51.88" cy="121.08" r="2.3"/>
            <rect class="cls-6" x="38.8" y="45.86" width="28.39" height="6.15" rx="1.79" ry="1.79"/>
            <path class="cls-7" d="M66.21,53.63H39.33a2.47,2.47,0,0,1-2.46-2.47v-4a2.47,2.47,0,0,1,2.46-2.46H66.21a2.47,2.47,0,0,1,2.46,2.46v4A2.47,2.47,0,0,1,66.21,53.63ZM39.33,46.76a.35.35,0,0,0-.35.35v4a.35.35,0,0,0,.35.35H66.21a.35.35,0,0,0,.35-.35v-4a.35.35,0,0,0-.35-.35Z"/>
            <path class="cls-8" d="M40.39,48.32s-6.48-7.59-6.92-13.63h25s4.75,11.62,7.82,13.63Z"/>
            <path class="cls-8" d="M66.31,48.32A39.73,39.73,0,0,0,59.16,58.9a26.89,26.89,0,0,0-2.23,7.51H31.7A30.52,30.52,0,0,1,36,53.5a22.44,22.44,0,0,1,4.41-5.18Z"/>
            <path class="cls-9" d="M66.31,48.32H40.39a17.62,17.62,0,0,1-6.62-3A5,5,0,0,1,31.7,41.5H57.82a14.37,14.37,0,0,0,2.32,3.33A10.69,10.69,0,0,0,66.31,48.32Z"/>
            <path class="cls-2" d="M58.57,49.33a7.31,7.31,0,0,1-14.63,0,7.58,7.58,0,0,1,.07-1H58.5A7.51,7.51,0,0,1,58.57,49.33Z"/>
            <circle class="cls-2" cx="44.86" cy="60.46" r="1.49"/>
            <circle class="cls-2" cx="46.35" cy="37.82" r="1.79"/>
            <path class="cls-10" d="M66.31,48.32A39.73,39.73,0,0,0,59.16,58.9C51.8,59.22,40.65,57,36,53.5a22.44,22.44,0,0,1,4.41-5.18Z"/>
            <path class="cls-11" d="M66.31,48.32H40.39a17.62,17.62,0,0,1-6.62-3c5.86.69,18.12,1.72,26.37-.53A10.69,10.69,0,0,0,66.31,48.32Z"/>
            <path class="cls-12" d="M57.27,64.49h3.68S63.69,53,66.31,48.32C66.31,48.32,60.29,53.92,57.27,64.49Z"/>
            <rect class="cls-5" x="42.48" y="68.65" width="19.06" height="11.73"/>
            <rect class="cls-7" x="42.48" y="80.38" width="19.06" height="11.73"/>
            <rect class="cls-5" x="42.48" y="92.1" width="19.06" height="11.73"/>
            <rect class="cls-7" x="42.48" y="103.83" width="19.06" height="11.73"/>
            <path class="cls-13" d="M56,77.59c-.05,0-5.39.8-7.56-1.06a2.57,2.57,0,0,1-.51-.62h3.22a.22.22,0,1,0,0-.45H47.71a2.79,2.79,0,0,1-.17-.95,3.13,3.13,0,0,1,0-.5h4.09a.22.22,0,0,0,0-.45h-4a2.62,2.62,0,0,1,.71-1.11c1.25-1.15,3.88-1.64,7.42-1.36H56a.22.22,0,0,0,.22-.22.23.23,0,0,0-.22-.22h-.17c-3.71-.29-6.39.22-7.75,1.48a3.05,3.05,0,0,0-.87,1.44h-.89a.22.22,0,0,0,0,.45h.79a3.62,3.62,0,0,0,0,.5,3.28,3.28,0,0,0,.15.95H44.86a.22.22,0,1,0,0,.45h2.55a3,3,0,0,0,.74,1c1.28,1.1,3.47,1.35,5.22,1.35A19.32,19.32,0,0,0,56.06,78a.22.22,0,1,0-.07-.44Z"/>
            <path class="cls-13" d="M55.4,88.93c0-1.29-1-1.86-2.17-2.24V83.06A4,4,0,0,1,55,84.71a.22.22,0,0,0,.4-.21,4.55,4.55,0,0,0-2.15-1.94V81.38a.22.22,0,0,0-.45,0v1.06a3.35,3.35,0,0,0-1.2-.06l-.21,0v-1a.22.22,0,0,0-.45,0v1.13a2.56,2.56,0,0,0-2,1.72,1.69,1.69,0,0,0,1,1.82,5.17,5.17,0,0,0,1,.44v4a1.91,1.91,0,0,1-1.86-1.59.23.23,0,0,0-.25-.19.22.22,0,0,0-.19.25,2.37,2.37,0,0,0,2.3,2v.71a.22.22,0,0,0,.45,0V91h.53a6.22,6.22,0,0,0,.87-.13v.81a.22.22,0,1,0,.45,0v-.91C54.42,90.41,55.4,89.73,55.4,88.93Zm-3.76-6.11a3,3,0,0,1,1.14.08v3.65l-.62-.17-.79-.22V82.87Zm-1.49,2.85a1.27,1.27,0,0,1-.74-1.34A2.06,2.06,0,0,1,50.92,83v3A4.46,4.46,0,0,1,50.14,85.67Zm1.73,4.87h-.51V86.63l.67.19.73.21V90.4A5.74,5.74,0,0,1,51.88,90.53Zm1.35-.26V87.16c1,.33,1.73.8,1.73,1.77C55,89.44,54.21,90,53.23,90.28Z"/>
            <path class="cls-13" d="M56.22,94.88c0-.07-1.13-1.66-2.53-1.68h0a2.45,2.45,0,0,0-2,1.23,21.38,21.38,0,0,0-1.35,2.22,3.35,3.35,0,0,1-1.2-.49.22.22,0,0,0-.26.36,3.91,3.91,0,0,0,1.25.52,50.26,50.26,0,0,0-2.2,4.91.22.22,0,0,0,.32.27c.77-.44,3.08-1.51,3.66-.73a2.21,2.21,0,0,0,1.76.9l.26,0a1.79,1.79,0,0,0,1.46-1.16.22.22,0,1,0-.42-.16,1.35,1.35,0,0,1-1.11.88,1.74,1.74,0,0,1-1.6-.71c-.72-1-2.71-.16-3.7.32.35-.88,1.11-2.68,2-4.43l.44,0a3.88,3.88,0,0,0,2.09-.62.22.22,0,0,0-.24-.38,3.45,3.45,0,0,1-2.07.56,20.51,20.51,0,0,1,1.24-2,2,2,0,0,1,1.6-1h0c1.17,0,2.16,1.47,2.17,1.48a.23.23,0,0,0,.31.06A.22.22,0,0,0,56.22,94.88Z"/>
            <path class="cls-13" d="M55.37,105.39a.22.22,0,1,0-.39-.22l-2.9,5.14-3-5.14a.22.22,0,0,0-.38.23l3.21,5.42v.27H50a.22.22,0,1,0,0,.45h1.82v.67H50a.22.22,0,0,0,0,.45h1.82v1.45a.22.22,0,0,0,.45,0v-1.45h1.87a.22.22,0,0,0,0-.45H52.31v-.67h1.87a.22.22,0,0,0,0-.45H52.31v-.28Z"/>
          </g>
          <g>
            <path class="cls-14" d="M39.56,108.66c-1.35,3.7-6.53,17.57-7.47,20.1a4.77,4.77,0,0,0-2.12.69l-.22.13a7.06,7.06,0,0,0-.64.47,124.23,124.23,0,0,1-.55-15.62,35.18,35.18,0,0,1,2.1-9.87c.18-.51.33-.93.43-1.28.5-1.69-2.39-6.42-3.83-8.85s-7.93-11.54-8.64-12.55l-.06-.09s-.06.36-.16,1c-.61,3.86-2.79,17.9-3.18,24.18-.44,7.24-2,23.38-2,23.72a5.76,5.76,0,0,0-3.17.83l-.22.14a3.25,3.25,0,0,0-.6.53,49.23,49.23,0,0,1-1-7.66c-.25-4.48-1.84-24-1.84-31.69,0-4.84.46-13,.79-18.31,0-.08,0-.16,0-.23.1-1.56.18-2.86.24-3.74s.08-1.27.08-1.27h0a16,16,0,0,0,4.86.73h.24q.75,0,1.59,0a49.61,49.61,0,0,0,9.23-1.4l.14,0,.22-.06c.6-.16.93-.26.93-.26l0-.12L26.25,68a24.47,24.47,0,0,0,1.07,4.43l.12.32a13.89,13.89,0,0,0,.73,1.64C29.62,77.12,36.33,90,38.86,95.52S41.05,104.58,39.56,108.66Z"/>
            <path class="cls-15" d="M23.43,68.58a22.34,22.34,0,0,1-9.35,2.57,20.55,20.55,0,0,1-6.66-.6c.05-.8.08-1.27.08-1.27h0a16,16,0,0,0,4.86.73h.24q.75,0,1.59,0A49.61,49.61,0,0,0,23.43,68.58Z"/>
            <path class="cls-15" d="M31.1,103.29c.5-1.69-2.39-6.42-3.83-8.85s-7.93-11.54-8.64-12.55l.14-1.24,2.16-2.53s13.69,22.63,9.74,26.45C30.85,104.06,31,103.63,31.1,103.29Z"/>
            <path class="cls-16" d="M28.56,30.85c0,.15.42,2.83.39,2.92H27.69a2.08,2.08,0,0,1-1,1.1l-.24.12a3.24,3.24,0,0,1-1.52.29,4.29,4.29,0,0,1-2.14-.82l0,.07a3.05,3.05,0,0,1-.2.51,3.15,3.15,0,0,1-.86,1.13,1.24,1.24,0,0,1-.74.28c-.92,0-1.12-1.25-1-1.67l0-.14c.19-.54.83-1.8.83-1.8a8,8,0,0,1,0-2s-1.1.05-1.52-.6a1.75,1.75,0,0,1,.8-2.36,2,2,0,0,1,1.05,0c.81.16.82,1.4.82,1.5a4.19,4.19,0,0,1,.21-.64l0-.11c.48-1.1,1.44-2.46,2.37-2.7,1.16-.3,2.56,1.18,3.9,1.85a2.42,2.42,0,0,0,1.07.23A5,5,0,0,1,28.56,30.85Z"/>
            <path class="cls-17" d="M22.78,34.53a3.05,3.05,0,0,1-.2.51,3.15,3.15,0,0,1-.86,1.13,5.67,5.67,0,0,1-.35-2.8s0,.16.47.52A8,8,0,0,0,22.78,34.53Z"/>
            <path class="cls-18" d="M31.85,23.3a3.94,3.94,0,0,1-3,0c-1.3-.56-2.91-2.43-4.94-2.48s-3.64,2.05-4,3.56a11,11,0,0,0,0,3.58.77.77,0,0,1,.17-.08,2,2,0,0,1,1.06,0c.84.17.82,1.51.82,1.51a4.31,4.31,0,0,1,.21-.64l0-.11c.48-1.1,1.44-2.46,2.37-2.7,1.16-.3,2.56,1.18,3.9,1.85a2.43,2.43,0,0,0,1.07.23,4.51,4.51,0,0,0,3.73-2.17A1.53,1.53,0,0,0,31.85,23.3Z"/>
            <path class="cls-6" d="M48.86,45.87s-5.3,5.51-7,7.41-3.77,3.45-4.29,2.81-3.73-9.4-4.63-14.37S29.35,36,27.37,35.8c-1.27-.14-2.89-.42-3.88-.59l-.22,0L22.58,35a3.47,3.47,0,0,1-.66.95,1.39,1.39,0,0,1-.94.46c-.92,0-1.12-1.25-1-1.67l0-.14a3.14,3.14,0,0,1-.81.25l-.22,0c-1.69.35-5,.79-7.19,1.16a7.42,7.42,0,0,0-6.08,4.4C4.31,43.26.69,52.22.13,57.29s.71,8.25,3.1,9.78a17.92,17.92,0,0,0,4.29,2.21,17.91,17.91,0,0,0,6.69.7,46.7,46.7,0,0,0,10.52-1.75l0-.12a7,7,0,0,1,0-2.19,4.13,4.13,0,0,1,.86-1.78,1.37,1.37,0,0,0,.84-.1c.05-.78.12-1.6.2-2.41A57,57,0,0,1,28,54.49c.45,2.09,5.51,9.58,8.14,10.3,3.57,1,6.59-3,8.94-6.13s5.76-8,5.76-8C50.54,50.13,48.86,45.87,48.86,45.87ZM9.72,54.16c-.56,3-1.16,6.75-1.16,6.87s-1-1.19-.41-4.55a48.91,48.91,0,0,1,2.61-8.16C10.74,48.48,10.26,51.26,9.72,54.16Z"/>
            <path class="cls-19" d="M26.25,68.22s0-.08,0-.23l-1.53.23Z"/>
            <path class="cls-20" d="M14.42,130.95a3.69,3.69,0,0,0-1.23-.26,5.35,5.35,0,0,0-4,1.5v.65h7.41A4,4,0,0,0,14.42,130.95Z"/>
            <path class="cls-20" d="M32.1,128.76a5.23,5.23,0,0,0-3,1.29c-.17.14,0,.82,0,.82h7.51A6,6,0,0,0,32.1,128.76Z"/>
            <path class="cls-19" d="M21,30.06h0a.11.11,0,0,1-.1-.12,3,3,0,0,0-.34-1.32.11.11,0,1,1,.2-.1A3.19,3.19,0,0,1,21.09,30,.11.11,0,0,1,21,30.06Z"/>
            <path class="cls-19" d="M27.4,29.22a.11.11,0,0,1-.09,0c-.74-.87-2.25-.34-2.26-.33a.11.11,0,0,1-.08-.21c.07,0,1.68-.6,2.51.4a.11.11,0,0,1,0,.16Z"/>
            <path class="cls-19" d="M28.51,33.91a3.7,3.7,0,0,1-1.38-.26.11.11,0,1,1,.09-.2,3.55,3.55,0,0,0,1.71.22.11.11,0,0,1,0,.22A3.39,3.39,0,0,1,28.51,33.91Z"/>
            <path class="cls-19" d="M26.69,34.86l-.24.12a2,2,0,0,1-.73-.79.11.11,0,0,1,.08-.13.11.11,0,0,1,.13.07A1.88,1.88,0,0,0,26.69,34.86Z"/>
            <g>
              <path class="cls-21" d="M21.89,26.52a.12.12,0,0,1-.11-.1,3.19,3.19,0,0,1,1-1.6,2.75,2.75,0,0,1,2.69-.58.11.11,0,1,1-.06.22,2.55,2.55,0,0,0-2.18.3A3.3,3.3,0,0,0,22,26.4a.1.1,0,0,1-.09.12Z"/>
              <path class="cls-21" d="M20.63,27.52a.11.11,0,0,1-.11-.1,4.83,4.83,0,0,1,1.13-4,.11.11,0,0,1,.14.18,4.59,4.59,0,0,0-1,3.79.11.11,0,0,1-.09.13Z"/>
              <path class="cls-21" d="M23.34,22.7a.11.11,0,0,1-.06-.2s1-.63,1.55-.34a.11.11,0,1,1-.1.2c-.39-.19-1.09.17-1.33.33Z"/>
              <path class="cls-21" d="M29.9,26.29a3.72,3.72,0,0,1-1.72-.47.11.11,0,0,1,.12-.19s1.76,1,3-.1a.11.11,0,1,1,.15.17A2.32,2.32,0,0,1,29.9,26.29Z"/>
            </g>
            <g>
              <path class="cls-19" d="M12.61,70a.12.12,0,0,1,0,0A9,9,0,0,1,9.07,73.8c-.64,4.12-1,14.35-1,20.34,0,4.13.41,11,.8,17.1.23,3.51.42,6.55.49,8.57.16,4.35.53,9.57.7,11.72l-.22.14c-.18-2.12-.55-7.5-.71-11.85-.07-2-.27-5.05-.49-8.56-.39-6.08-.83-13-.8-17.12,0-5.91.39-16,1-20.2a7.1,7.1,0,0,1-1.65.6c0-.08,0-.16,0-.23A8.34,8.34,0,0,0,12.38,70l0,0a.11.11,0,0,1,.15-.05A.11.11,0,0,1,12.61,70Z"/>
              <path class="cls-19" d="M27.44,72.75a11.06,11.06,0,0,1-3.87-4.2l.22-.06a11.35,11.35,0,0,0,3.53,3.94Z"/>
              <path class="cls-19" d="M32.21,103.75c-.13.91-.38,2.16-.67,3.61a75.08,75.08,0,0,0-1.62,11.1c-.12,3.85,0,8.67.05,11l-.22.13c-.07-2.26-.18-7.2-.06-11.12a75,75,0,0,1,1.63-11.14c.28-1.45.53-2.69.66-3.6.44-3-2.88-9.8-4.91-13.36-1.87-3.28-5.58-11-6.15-12.24l-2.16,2.53-.14,1.24-.09.81a.11.11,0,0,1-.13.1h0a.11.11,0,0,1-.1-.12l.24-2.08a.12.12,0,0,1,0-.06l2.29-2.69a.12.12,0,0,1,.1,0,.12.12,0,0,1,.09.06c0,.09,4.2,8.84,6.22,12.38C27.83,91.24,32.76,100,32.21,103.75Z"/>
            </g>
            <path class="cls-22" d="M25.58,64.24h0c-.09,0-9.1-.4-12.5-.95C9,62.65,8.09,60.18,8,59.9a.11.11,0,1,1,.21-.07c.09.27,1,2.62,4.9,3.25,3.39.54,12.38.94,12.48.94a.11.11,0,0,1,0,.22Z"/>
            <path class="cls-22" d="M10.66,48.41h0a.11.11,0,0,1-.08-.14c.18-.67.48-2.06.48-2.07a.11.11,0,0,1,.13-.09.11.11,0,0,1,.09.13s-.3,1.4-.49,2.08A.11.11,0,0,1,10.66,48.41Z"/>
            <path class="cls-22" d="M27.46,56.43h0a.11.11,0,0,1-.08-.13c.38-1.58,1.38-5.43,1.39-5.47a.11.11,0,0,1,.22.06s-1,3.89-1.39,5.47A.11.11,0,0,1,27.46,56.43Z"/>
            <path class="cls-22" d="M23.49,35.21a3.06,3.06,0,0,1-.5,1.39,2.37,2.37,0,0,1-1.84,1h-.23a1.74,1.74,0,0,1-1.3-.51A3.09,3.09,0,0,1,19,34.93l.22,0a3,3,0,0,0,.59,2,1.61,1.61,0,0,0,1.35.43,2.15,2.15,0,0,0,1.67-.89,2.86,2.86,0,0,0,.46-1.3Z"/>
            <path class="cls-19" d="M22.86,34.62l-.06,0c-.43-.27-1.38-1-1.42-1.08a.11.11,0,1,1,.14-.17s1,.8,1.4,1.06a.11.11,0,0,1,0,.15A.11.11,0,0,1,22.86,34.62Z"/>
            <circle class="cls-19" cx="26.8" cy="30.59" r="0.4"/>
            <circle class="cls-17" cx="23.94" cy="31.99" r="0.9"/>
            <path class="cls-16" d="M48.86,45.87s.63-2.95,1.16-2.95,0,2,0,2,.73-3.06,1.24-3.1-.42,3.47-.42,3.47,1.23-3.4,1.72-3.21-1.08,4.66-1.08,4.66,1.75-3,2.24-2.69-2,3.73-1.94,4.37c.11,1,2.07.11,2,.67s-3,1.66-3,1.66-1.08-2.63-1.5-3.6A4.2,4.2,0,0,1,48.86,45.87Z"/>
            <g>
              <path class="cls-16" d="M31.63,67c-.23.15-.67-.07-1-.29h0a5.17,5.17,0,0,1-.47-.34l.13.21h0c.22.35.6,1,.46,1.2s-.76-.16-1.11-.38l-.23-.14s.15.19.29.39.44.74.31.91-2.54-.71-3.51-.56l-.22,0-1.53.23a7.15,7.15,0,0,1,0-2.32,4.13,4.13,0,0,1,.86-1.78,1.37,1.37,0,0,0,.84-.1,1.51,1.51,0,0,0,.25-.15c.55-.4,2.35-1.49,3.47-.55s2.08,2.78,1.09,2.49h0l-.24-.1a4.46,4.46,0,0,1,.55.62h0C31.71,66.6,31.81,66.84,31.63,67Z"/>
              <path class="cls-19" d="M31.54,66.35c-.81-.84-1.74-1.62-1.76-1.63a.07.07,0,0,1,0-.1.08.08,0,0,1,.1,0s.66.56,1.35,1.23l-.24-.1A4.46,4.46,0,0,1,31.54,66.35Z"/>
              <path class="cls-19" d="M30.13,66.32l.13.21c-.44-.44-.9-.83-.9-.84a.08.08,0,0,1,.1-.11s.64.55,1.14,1.08A5.17,5.17,0,0,1,30.13,66.32Z"/>
              <path class="cls-19" d="M29.67,67.61c-.46-.41-.88-.73-.88-.73a.07.07,0,0,1,.09-.12s.34.26.73.6l-.23-.15S29.53,67.39,29.67,67.61Z"/>
            </g>
          </g>
        </g>
      </g>
    </g>
  </g>
</svg>
