<svg xmlns="http://www.w3.org/2000/svg" xmlns:xlink="http://www.w3.org/1999/xlink" viewBox="0 0 686.02 417.1">
  <defs>
    <style>
      .cls-1 {
        fill: none;
      }

      .cls-2 {
        isolation: isolate;
      }

      .cls-13, .cls-3, .cls-4 {
        fill: #aec7ff;
      }

      .cls-3 {
        opacity: 0.35;
      }

      .cls-4 {
        opacity: 0.15;
      }

      .cls-5 {
        fill: #ff647a;
      }

      .cls-6 {
        fill: #ff4c58;
      }

      .cls-7 {
        fill: #443dc4;
      }

      .cls-26, .cls-8 {
        fill: #5f52dc;
      }

      .cls-25, .cls-35, .cls-9 {
        fill: #ffbd52;
      }

      .cls-10, .cls-24 {
        fill: #ff952a;
      }

      .cls-11 {
        fill: #fffff6;
      }

      .cls-12 {
        fill: #fff;
      }

      .cls-14 {
        fill: #cfe0ff;
      }

      .cls-15 {
        fill: #26269e;
      }

      .cls-16 {
        fill: #eaeaea;
      }

      .cls-17, .cls-31 {
        fill: #1e1982;
      }

      .cls-18 {
        clip-path: url(#clip-path);
      }

      .cls-19 {
        fill: #3e37c4;
      }

      .cls-20 {
        fill: #ffbe88;
      }

      .cls-21 {
        fill: #ff770c;
      }

      .cls-22 {
        fill: #ff314f;
      }

      .cls-23 {
        fill: #ef9d59;
      }

      .cls-24, .cls-25, .cls-33 {
        opacity: 0.2;
      }

      .cls-24, .cls-25, .cls-26, .cls-29, .cls-31, .cls-33, .cls-35 {
        mix-blend-mode: multiply;
      }

      .cls-26, .cls-29, .cls-31, .cls-35 {
        opacity: 0.3;
      }

      .cls-27 {
        fill: #ff4b5f;
      }

      .cls-28 {
        fill: #ffa15a;
      }

      .cls-29, .cls-33 {
        fill: #ff3968;
      }

      .cls-30 {
        fill: #ff8c3e;
      }

      .cls-32 {
        fill: #ff3e56;
      }

      .cls-34 {
        fill: #0e0e63;
      }
    </style>
    <clipPath id="clip-path">
      <path class="cls-1" d="M99.81,233l44.6,87.87,139.1.86S268.2,119.15,269.73,119.15s-116.67-5.95-116.67-5.95Z"/>
    </clipPath>
  </defs>
  <title>refer-friend</title>
  <g class="cls-2">
    <g id="Layer_2" data-name="Layer 2">
      <g id="BACKGROUND">
        <ellipse class="cls-3" cx="357.86" cy="386.03" rx="302.34" ry="31.07"/>
        <path class="cls-4" d="M118.83,185.79c18.93-14,30.55-35.78,38.78-57.84s13.73-45.17,23.66-66.51c10.21-22,28.63-43.7,52.85-44.1,39-.64,60.61,52.17,99.36,56.94,18.26,2.25,36.06-7.08,50.29-18.75s26.31-25.92,41.39-36.45A106.82,106.82,0,0,1,487,0c12.23.13,25,2.63,34.53,10.25,26.62,21.22,14.63,66.44,34.72,93.92,14.09,19.27,39.84,24.71,61.93,33.75a165.32,165.32,0,0,1,41.74,24.81c9.77,8,18.87,17.43,23.27,29.24,6.77,18.16,1,39.39-11.34,54.35s-30.29,24.33-48.8,30.06c-20.33,6.3-43.4,9.58-57.5,25.53-9.22,10.42-12.9,24.6-20.71,36.11-11.3,16.65-30.19,26.36-48.86,33.87-42.06,16.92-91.32,25.7-131.72,5.14-28.16-14.33-49.19-41.58-79.3-51.15a75.71,75.71,0,0,0-50.93,2c-13.71,5.57-26.5,15.35-41.29,15.09-18.93-.33-33.14-16.7-44.72-31.68"/>
      </g>
      <g id="OBJECTS">
        <g>
          <path class="cls-3" d="M244.47,137.45c8.6,0,16.23-5.95,21-13.08s7.42-15.47,10.88-23.34a116,116,0,0,1,35-44.77c9.68-7.5,21.26-13.62,33.5-13.19,10.87.38,20.81,5.81,31,9.63,15.29,5.74,32.4,7.95,48,3.13,14-4.31,25.65-13.8,38.37-21,14.3-8.13,30.43-13.51,46.89-13.6s33.21,5.43,45.16,16.74c10.75,10.18,17,24.25,27.09,35.13,20.45,22.14,54.85,29.53,70.66,55.19,10.82,17.57,10.14,40.46,2.5,59.63s-21.44,35.21-36,49.82c-9.43,9.45-19.9,18.79-32.86,22-13.29,3.27-27.18-.4-40.44-3.8-19-4.89-39-9.26-58.2-5-13.87,3.07-26.34,10.44-39.39,16.07-22.33,9.64-47.44,14.27-71.21,9.14s-45.86-21-54.92-43.55c-4.1-10.21-5.27-21.46-9.73-31.51-21-47.41-36.19-53.84-63.28-46.64"/>
          <g>
            <g>
              <g>
                <path class="cls-5" d="M128.72,322.82s4.87-55.79-10.3-79.89c-13.9-22.08-35.36-30.79-78.88-44.23-6.22-1.92-13-3.31-17.9-8.69,4.48,12,6.94,24.36,9.28,36.64C49.78,325.9,128.72,322.82,128.72,322.82Z"/>
                <path class="cls-6" d="M81.11,297.32c3.73.32,7.48.84,11.23,1.45s7.52,1.42,11.29,2.38a103.05,103.05,0,0,1,11.29,3.59A72.67,72.67,0,0,1,126,310l-1.14.77c-.69-5.74-1.48-11.52-2.29-17.28s-1.68-11.53-2.66-17.3-2-11.54-3.11-17.31-2.42-11.53-3.94-17.29l1.38,4.28c.45,1.43.83,2.87,1.25,4.31s.8,2.88,1.17,4.32.77,2.88,1.09,4.33c1.4,5.78,2.56,11.57,3.66,17.36s2,11.58,2.89,17.37,1.64,11.57,2.29,17.35l.18,1.56-1.32-.79a79,79,0,0,0-10.78-5.33c-3.67-1.48-7.38-2.77-11.11-3.87s-7.47-2.06-11.21-2.93S84.86,298,81.11,297.32Z"/>
                <path class="cls-6" d="M69,279.67c3.8-.12,7.65,0,11.51.21s7.76.65,11.67,1.27a99.56,99.56,0,0,1,11.77,2.56,70,70,0,0,1,11.71,4.48l-1.08.91c-.72-3.9-1.54-7.82-2.32-11.72l-2.45-11.73q-1.26-5.87-2.57-11.73c-.84-3.92-1.8-7.82-2.69-11.74,1.25,3.87,2.39,7.76,3.49,11.66s2.12,7.8,3.08,11.72,1.88,7.83,2.75,11.75,1.67,7.84,2.45,11.78l.31,1.59-1.4-.68a74.12,74.12,0,0,0-11.4-4.41,116.49,116.49,0,0,0-11.6-2.83c-3.88-.75-7.75-1.35-11.63-1.85S72.84,280,69,279.67Z"/>
                <path class="cls-6" d="M54,263.6c4-.41,8.15-.53,12.28-.55s8.31.22,12.5.62,8.4,1,12.64,1.73a44.87,44.87,0,0,1,12.77,4.23l-.77,1.56a40.62,40.62,0,0,1-7.32-12c-1.8-4.23-3.48-8.47-5-12.76s-3-8.6-4.34-12.92-2.67-8.63-4.23-12.9c1.91,4.16,3.44,8.46,5,12.73s3.12,8.52,4.79,12.74,3.41,8.43,5.26,12.57,3.95,8.13,6.92,11.23l3.84,4-4.61-2.44a44.6,44.6,0,0,0-12.25-4.11c-4.17-.85-8.36-1.48-12.53-2s-8.34-.94-12.5-1.2S58.18,263.67,54,263.6Z"/>
                <path class="cls-6" d="M56.74,249.21c2.61-.12,5.25-.07,7.9,0s5.32.28,8,.57,5.36.64,8,1.09,5.38,1,8.08,1.59l-.57,1.59a54.62,54.62,0,0,1-3.31-4.4c-1-1.49-2-3-3-4.51-2-3-3.85-6.1-5.7-9.19s-3.66-6.21-5.42-9.35-3.49-6.31-5.11-9.52l11.67,18.13c1.95,3,3.9,6,5.88,9s4,6,6.15,8.6L91.06,255l-2.32-.55c-2.67-.63-5.33-1.18-8-1.71s-5.33-1-8-1.42-5.33-.81-8-1.15S59.41,249.51,56.74,249.21Z"/>
                <path class="cls-6" d="M40.34,234.38a40.34,40.34,0,0,1,7-.75,57.83,57.83,0,0,1,7.24.33c2.43.24,4.87.63,7.31,1.09s4.88,1,7.31,1.58l-.55,1.64c-2.08-2.19-4.15-4.39-6.21-6.64s-4.06-4.6-5.92-7.06-3.62-5-5.26-7.63-3.19-5.29-4.64-8c1.78,2.51,3.49,5,5.32,7.5s3.63,4.89,5.56,7.21,3.93,4.56,6,6.73L69.74,237,72,239.28l-2.76-.7c-2.42-.61-4.84-1.15-7.25-1.69s-4.83-1-7.23-1.4-4.81-.71-7.21-.9A60.67,60.67,0,0,0,40.34,234.38Z"/>
                <path class="cls-6" d="M32.13,218.58a8,8,0,0,1,3.07-1.06,14.37,14.37,0,0,1,3.42-.07,20.84,20.84,0,0,1,3.53.66c.59.16,1.17.37,1.77.55l1.75.68-.43,1.82-1.61-.86c-.54-.25-1.08-.52-1.63-.75a21.68,21.68,0,0,0-3.33-1.11,15,15,0,0,0-3.35-.42A8.2,8.2,0,0,0,32.13,218.58Z"/>
                <path class="cls-6" d="M128.51,322.84c-1.07-3.1-2.15-6.17-3.32-9.2s-2.46-6-3.77-9a169.49,169.49,0,0,0-9.08-17.14c-3.35-5.52-6.95-10.89-10.7-16.16a115.84,115.84,0,0,0-12.25-14.64c-8.94-9.06-19-16.68-29.2-23.88a142.6,142.6,0,0,1-15-11.87,57,57,0,0,1-6.63-7.34,41.71,41.71,0,0,1-5-8.65.22.22,0,0,1,.1-.31.26.26,0,0,1,.3.16,46.8,46.8,0,0,0,12,15,140.18,140.18,0,0,0,15.17,10.9c10.44,6.79,20.84,14.12,30.4,23.12a120.77,120.77,0,0,1,13.44,14.77,138.85,138.85,0,0,1,11,16.88,112.08,112.08,0,0,1,13.08,37.31.19.19,0,0,1-.18.24A.3.3,0,0,1,128.51,322.84Z"/>
              </g>
              <g>
                <path class="cls-7" d="M184,341.25s-46.68-30.67-53.8-58c-6.53-25,3-47.84,25.45-91.54,3.22-6.25,7.28-12.64,6.81-19.94,5.85,11.07,13.53,20.76,21.23,30.28C246,279,184,341.25,184,341.25Z"/>
                <path class="cls-8" d="M200.31,286.73c-2.57,3.23-5,6.6-7.36,10s-4.59,7-6.69,10.66a118,118,0,0,0-5.76,11.4,79,79,0,0,0-4.29,12.31l1.46-.45c-3.91-4.13-7.76-8.35-11.59-12.59s-7.62-8.53-11.33-12.9-7.41-8.75-11-13.27-7.06-9.12-10.36-13.93l2.26,3.78c.76,1.26,1.59,2.45,2.38,3.69s1.62,2.43,2.45,3.63,1.64,2.41,2.52,3.57c3.4,4.72,7,9.26,10.62,13.75s7.39,8.84,11.21,13.13,7.67,8.51,11.64,12.63l1.07,1.11.39-1.56a85.43,85.43,0,0,1,4-12.07q2.44-5.85,5.4-11.43c1.95-3.72,4.05-7.34,6.21-10.93S198,290.21,200.31,286.73Z"/>
                <path class="cls-8" d="M195.87,265.91c-3,3-5.77,6.22-8.53,9.48s-5.36,6.71-7.83,10.27a117.51,117.51,0,0,0-6.91,11.16,78.51,78.51,0,0,0-5.39,12.3l1.52-.31c-2.46-3-4.86-6.1-7.29-9.16l-7.19-9.27q-3.57-4.66-7.1-9.37c-2.38-3.11-4.66-6.32-7-9.47,2,3.42,4.18,6.75,6.35,10.07s4.41,6.57,6.71,9.77,4.61,6.39,7,9.53,4.78,6.22,7.23,9.3l1,1.24.53-1.56a83,83,0,0,1,5.2-12c2-3.86,4.24-7.56,6.57-11.18s4.81-7.14,7.36-10.59S193.22,269.28,195.87,265.91Z"/>
                <path class="cls-8" d="M194.75,243.81c-3.36,3-6.56,6.3-9.7,9.64s-6.1,6.89-9,10.55-5.6,7.42-8.21,11.34a51.13,51.13,0,0,0-6.38,13l1.78.34a36,36,0,0,0-3.73-13.41c-1.9-4.09-3.91-8.09-6-12s-4.36-7.77-6.68-11.54-4.64-7.52-6.75-11.44c1.76,4.14,3.93,8,6,12s4.21,7.82,6.2,11.8,3.92,8,5.72,12.07,3.29,8.26,3.43,12.59l.18,5.6,1.6-5.26a50.73,50.73,0,0,1,6.08-12.5c2.49-3.92,5.17-7.71,7.9-11.45s5.58-7.36,8.51-10.9S191.68,247.21,194.75,243.81Z"/>
                <path class="cls-8" d="M181.63,237.07c-2.07,2-4,4.23-6,6.42s-3.79,4.5-5.59,6.85-3.55,4.75-5.23,7.22-3.3,5-4.87,7.55l1.66.52a49.59,49.59,0,0,0-.89-5.42c-.37-1.76-.78-3.51-1.2-5.25-.86-3.47-1.8-6.91-2.78-10.34s-2-6.83-3.11-10.21-2.23-6.75-3.48-10.06l5.17,20.73c.85,3.45,1.7,6.9,2.5,10.36a101,101,0,0,1,2,10.34l.34,2.75,1.33-2.22c1.52-2.56,3.12-5.06,4.72-7.57s3.27-4.95,4.94-7.38,3.4-4.84,5.15-7.21S179.84,239.43,181.63,237.07Z"/>
                <path class="cls-8" d="M182.57,214.54a51.06,51.06,0,0,0-5.87,5.23,71.37,71.37,0,0,0-5.21,6.09c-1.65,2.12-3.19,4.35-4.68,6.62s-2.9,4.6-4.3,6.92l1.68.56c-.12-3-.26-6.1-.43-9.17s-.48-6.15-1-9.2a89.54,89.54,0,0,0-1.91-9c-.82-2.94-1.67-5.87-2.67-8.74.59,3,1.25,6,1.77,9s1,6,1.36,9,.54,6,.66,9.06l.36,9.14.13,3.24,1.55-2.68c1.36-2.34,2.76-4.65,4.17-6.94s2.88-4.54,4.38-6.75,3.08-4.35,4.74-6.42A75.17,75.17,0,0,1,182.57,214.54Z"/>
                <path class="cls-8" d="M176.59,198.06a10.19,10.19,0,0,0-3.14,1.84,18,18,0,0,0-2.64,2.74,24.82,24.82,0,0,0-2.15,3.28c-.33.58-.6,1.18-.91,1.78l-.8,1.85,1.73.78.55-1.84c.22-.59.42-1.21.66-1.79a24.71,24.71,0,0,1,1.66-3.39,18.17,18.17,0,0,1,2.21-3A10.43,10.43,0,0,1,176.59,198.06Z"/>
                <path class="cls-8" d="M184.2,341.08c-1.59-2.79-3.13-5.58-4.59-8.41s-2.78-5.73-4.07-8.63a148,148,0,0,1-6.35-18c-1.73-6.15-3.15-12.4-4.38-18.72a106.85,106.85,0,0,1-2-19c-.24-12.89,1.47-25.77,3.63-38.55a141.83,141.83,0,0,0,2.2-19.58,53.21,53.21,0,0,0-.65-9.94,36.71,36.71,0,0,0-2.9-9.42.22.22,0,0,0-.31-.11.28.28,0,0,0-.1.34c2.42,6,3,12.62,2.5,19a142,142,0,0,1-3.05,19.09c-2.64,12.7-4.85,25.7-5.13,39.05a113,113,0,0,0,1.24,20.09A123.63,123.63,0,0,0,165,307.62c4.16,12.6,10.53,24.4,18.89,33.78a.21.21,0,0,0,.33,0A.29.29,0,0,0,184.2,341.08Z"/>
              </g>
              <g>
                <path class="cls-9" d="M174.23,360.6s-53.41,23.87-83.81,22.74c-4.21-.16-8.53-.51-12.49-2.08-5.16-2-9.66-7.27-7.93-11.82s8.06-5.65,11.63-9.05c-6.92,1.13-14,2.05-21.16,1s-14.34-4.31-18.37-9.87a6.61,6.61,0,0,1-1.42-3.17c-.26-3,3.26-5,6.56-5.44s6.88,0,9.91-1.12c-8.76-.26-17.39-3.94-24.38-9.16S20.32,320.75,15.63,313.8c-4.2-6.23-8.36-13.2-15.63-16.36,13.71-.12,26.49-5.24,40.2-5.31a58,58,0,0,1,39.67,15.76c-2.13-4.23-4.18-9.48-1.14-12.87s8.8-2.66,13.41-1c12.8,4.51,22.56,14.42,30.76,24.49-1.36-4.27-2.34-9.67,1.5-12.07,3.5-2.19,8.62-.26,12.34,2.15C146.58,314.93,174.23,360.6,174.23,360.6Z"/>
                <path class="cls-10" d="M130.28,318.11c1.77,4,3.74,8,5.81,12s4.34,7.84,6.76,11.65a123.45,123.45,0,0,0,8,11.13A83.14,83.14,0,0,0,160.42,363l.33-1.61c-6,1.69-12.08,3.28-18.15,4.84s-12.17,3.06-18.32,4.44-12.29,2.75-18.5,3.93-12.46,2.24-18.8,3l4.81-.29c1.6-.1,3.19-.3,4.79-.45s3.18-.34,4.77-.55,3.18-.38,4.75-.64c6.32-.91,12.55-2.1,18.76-3.34s12.36-2.69,18.47-4.21,12.19-3.12,18.23-4.88l1.63-.47-1.3-1.14a90,90,0,0,1-9.51-9.81q-4.36-5.22-8.18-10.8c-2.57-3.7-5-7.5-7.28-11.33S132.43,322,130.28,318.11Z"/>
                <path class="cls-10" d="M107.94,312.06c1.36,4.32,3,8.58,4.67,12.83s3.66,8.43,5.8,12.56a122.72,122.72,0,0,0,7.13,12.11,82.33,82.33,0,0,0,9,11.22l.49-1.61c-4.18.86-8.41,1.63-12.61,2.43l-12.67,2.28Q103.42,365,97.05,366c-4.24.74-8.51,1.33-12.77,2,4.35-.25,8.68-.65,13-1.08s8.62-1,12.9-1.58,8.55-1.25,12.81-2,8.48-1.49,12.71-2.31l1.71-.33-1.22-1.27a87,87,0,0,1-8.83-10.9c-2.67-3.82-5.07-7.78-7.33-11.8s-4.36-8.12-6.36-12.26S109.8,316.26,107.94,312.06Z"/>
                <path class="cls-10" d="M86.09,302.21c1.16,4.71,2.64,9.37,4.21,14s3.45,9.23,5.47,13.77,4.22,9,6.63,13.44A53.54,53.54,0,0,0,111.6,356l1.25-1.54c-4.76-2.19-9.93-2.84-14.84-3.06s-9.81-.27-14.7-.17-9.75.32-14.59.68-9.65.71-14.53.79c4.9.36,9.79.22,14.66.16s9.72-.15,14.59-.09,9.75.21,14.6.51,9.66.94,13.9,2.95l5.48,2.59-4.22-4.13a53.13,53.13,0,0,1-8.86-12c-2.47-4.31-4.72-8.75-6.89-13.2s-4.17-9-6.05-13.51S87.76,306.83,86.09,302.21Z"/>
                <path class="cls-10" d="M72.76,311.41c.89,3,2,5.92,3.07,8.86s2.35,5.84,3.67,8.72,2.72,5.74,4.22,8.56,3.08,5.62,4.72,8.38l1.37-1.33a54,54,0,0,0-5.68-1.83c-1.89-.51-3.78-1-5.67-1.45-3.79-.9-7.59-1.7-11.4-2.45s-7.62-1.44-11.44-2.07-7.65-1.21-11.5-1.65l22.64,5.31c3.77.89,7.53,1.79,11.27,2.74a110.24,110.24,0,0,1,11,3.21l2.82,1-1.45-2.36c-1.67-2.72-3.24-5.48-4.82-8.24s-3.06-5.56-4.52-8.37-2.88-5.64-4.25-8.48S74.1,314.29,72.76,311.41Z"/>
                <path class="cls-10" d="M51.59,299.38a53.39,53.39,0,0,0,2,8.19,74.44,74.44,0,0,0,3.14,8c1.18,2.63,2.53,5.2,3.92,7.74s2.91,5,4.42,7.53l1.42-1.32c-3-1.39-6-2.77-9-4.12s-6.17-2.58-9.35-3.62a97.82,97.82,0,0,0-9.67-2.63c-3.26-.67-6.52-1.31-9.8-1.77,3.19.92,6.4,1.75,9.56,2.75s6.29,2,9.36,3.14,6.08,2.45,9.06,3.84l9,4.17,3.19,1.48L67,329.94c-1.55-2.45-3-4.93-4.51-7.41s-2.87-5-4.21-7.52-2.58-5.09-3.7-7.7A78.43,78.43,0,0,1,51.59,299.38Z"/>
                <path class="cls-10" d="M32.61,296.94a10.75,10.75,0,0,0,.13,3.9A18.76,18.76,0,0,0,34,304.72a25.91,25.91,0,0,0,2,3.67c.39.6.82,1.16,1.23,1.75l1.36,1.68,1.65-1.26-1.48-1.43c-.46-.5-.94-1-1.38-1.51a25.87,25.87,0,0,1-2.4-3.26,19,19,0,0,1-1.72-3.58A10.93,10.93,0,0,1,32.61,296.94Z"/>
                <path class="cls-10" d="M174.17,360.35c-3.51.13-7,.24-10.48.22s-7-.17-10.43-.38a163.29,163.29,0,0,1-20.64-2.83c-6.82-1.39-13.57-3.12-20.29-5.07a115.87,115.87,0,0,1-19.38-7.47c-12.52-6.14-24-14.14-35.19-22.52a151.31,151.31,0,0,0-17.69-11.78,57.51,57.51,0,0,0-9.9-4.29,40.39,40.39,0,0,0-10.58-1.89.25.25,0,0,0-.27.24.29.29,0,0,0,.27.26c7,.65,13.68,3.42,19.61,7A151,151,0,0,1,56,324.21c10.84,8.8,22.19,17.33,34.9,24.2a122.07,122.07,0,0,0,20,8.74,135.46,135.46,0,0,0,21.11,5c14.29,2.26,29,2,42.35-1.34a.23.23,0,0,0,.17-.31A.31.31,0,0,0,174.17,360.35Z"/>
              </g>
            </g>
            <g>
              <g>
                <path class="cls-10" d="M194.37,97.08s1.44,6.41-5.94,14.31c0,0,15.31-4.44,19.75-14.31Z"/>
                <g>
                  <rect class="cls-10" x="176.62" y="68.06" width="46.08" height="32.99" rx="5.97" ry="5.97"/>
                  <g>
                    <circle class="cls-11" cx="188.15" cy="84.55" r="3.12"/>
                    <circle class="cls-11" cx="199.66" cy="84.55" r="3.12"/>
                    <circle class="cls-11" cx="211.18" cy="84.55" r="3.12"/>
                  </g>
                </g>
              </g>
              <g>
                <circle class="cls-5" cx="149.49" cy="73.19" r="14.28"/>
                <path class="cls-12" d="M142.45,71.72a4.13,4.13,0,0,1,4.13-4.13,4.6,4.6,0,0,1,2.91,1.64,4.6,4.6,0,0,1,2.91-1.64,4.13,4.13,0,0,1,4.13,4.13c0,.07,0,.13,0,.2s0,.15,0,.23c0,4.44-7,8-7,8s-7-3.6-7-8c0-.08,0-.15,0-.23S142.45,71.79,142.45,71.72Z"/>
                <polygon class="cls-5" points="152.29 85.32 162.66 91.8 158.49 78.85 152.29 85.32"/>
              </g>
              <g>
                <g>
                  <circle class="cls-8" cx="147.32" cy="121.27" r="19.52"/>
                  <polygon class="cls-8" points="151.15 137.86 165.33 146.71 159.63 129.01 151.15 137.86"/>
                </g>
                <path class="cls-12" d="M155.73,118.66a2.11,2.11,0,0,0-2.11-2.11h-3.44c0-1-.08-2.48-.16-3.6a1.67,1.67,0,0,0-.71-1.33,2.85,2.85,0,0,0-2.24-.21.74.74,0,0,0-.53.79,7.38,7.38,0,0,1-2.74,6l-.28.13v-.37a.74.74,0,0,0-.74-.74h-3.9a.74.74,0,0,0-.74.74v10.17a.74.74,0,0,0,.74.74h3.91a.72.72,0,0,0,.68-.73v-.41h9.3a1.72,1.72,0,0,0,1.74-1.45c.1-.83-.63-1.06-.7-1.27.53-.39,1.56-.58,1.56-1.26s-.69-.85-.74-1a2.35,2.35,0,0,0,1.1-1.7c0-.42-.43-.82-.65-1.15C155.3,119.48,155.73,119.08,155.73,118.66Z"/>
              </g>
              <g>
                <g>
                  <path class="cls-13" d="M73.47,180.64l48.38-14.79L207.69,335.6,159.31,350.4Z"/>
                  <g>
                    <polygon class="cls-14" points="131.41 184.76 108.91 250.74 125.24 283.02 146.69 214.97 131.41 184.76"/>
                    <polygon class="cls-14" points="164.81 250.81 144.97 322.03 159.31 350.39 167.64 347.85 182.51 285.82 164.81 250.81"/>
                  </g>
                </g>
                <path class="cls-15" d="M217.3,348.76,120.58,157.5c-3.81-7.53-9.87-12.72-13.54-11.59L66.84,158.2c-3.68,1.12-3.57,8.13.23,15.66L163.8,365.12c3.81,7.53,9.87,12.71,13.55,11.59l40.19-12.29C221.21,363.3,221.11,356.29,217.3,348.76ZM86.23,164.8,98.62,161c.22-.07.59.25.81.7s.24.87,0,.94l-12.39,3.79c-.22.07-.59-.25-.81-.7s-.23-.87,0-.94M194.62,365c-2.28.7-6-2.53-8.41-7.19s-2.43-9-.15-9.73,6.05,2.53,8.41,7.2,2.42,9,.14,9.72m-35.31-14.6L87.15,207.69,73.47,180.64l48.38-14.79,4.17,8.24,9.51,18.81,72.17,142.7L159.31,350.4"/>
                <path class="cls-16" d="M186.06,348.07c2.28-.7,6.05,2.53,8.41,7.2s2.42,9,.14,9.72-6-2.53-8.41-7.19S183.79,348.77,186.06,348.07Zm7.73,15.28c1.84-.56,1.79-4.08-.11-7.84s-5-6.37-6.79-5.81-1.78,4.08.12,7.85,4.94,6.36,6.78,5.8"/>
                <path class="cls-15" d="M186.89,349.71c1.84-.56,4.88,2,6.79,5.81s2,7.28.11,7.84-4.88-2-6.78-5.8S185.06,350.27,186.89,349.71Z"/>
                <path class="cls-17" d="M177.35,376.71a5.12,5.12,0,0,1-3.59-.47,11.4,11.4,0,0,1-1.56-.88,16.09,16.09,0,0,1-1.35-1q-.64-.53-1.28-1.16t-1.28-1.35q-.69-.78-1.36-1.67c-.57-.76-1.13-1.57-1.66-2.42s-1-1.72-1.48-2.63L67.08,173.86a31.07,31.07,0,0,1-2-4.92,23.43,23.43,0,0,1-.63-2.56,17.9,17.9,0,0,1-.25-1.82,13.44,13.44,0,0,1,0-1.52,9.76,9.76,0,0,1,.13-1.34,6.77,6.77,0,0,1,.32-1.22,4.5,4.5,0,0,1,.62-1.15,3.23,3.23,0,0,1,1-.88l-8.63,4.85a3.23,3.23,0,0,0-1,.88,4.5,4.5,0,0,0-.62,1.15,6.78,6.78,0,0,0-.32,1.22,9.75,9.75,0,0,0-.13,1.34,13.48,13.48,0,0,0,0,1.52,17.9,17.9,0,0,0,.25,1.82,23.46,23.46,0,0,0,.63,2.56,31.07,31.07,0,0,0,2,4.92L155.17,370c.46.91,1,1.79,1.48,2.63s1.08,1.66,1.66,2.42q.66.88,1.36,1.67t1.28,1.35q.64.63,1.28,1.16a16.11,16.11,0,0,0,1.35,1,11.4,11.4,0,0,0,1.56.88,5.12,5.12,0,0,0,3.59.47l40.19-12.29,8.63-4.85Z"/>
                <g class="cls-18">
                  <g>
                    <g>
                      <rect class="cls-8" x="219.77" y="145.43" width="22.77" height="17.75" transform="translate(-39.44 90.89) rotate(-20.54)"/>
                      <polygon class="cls-8" points="263.5 162.99 240.8 160.01 234.63 143.53 249.84 126.53 263.5 162.99"/>
                      <rect class="cls-8" x="217.5" y="151.05" width="14.51" height="11.31" transform="translate(-40.69 88.8) rotate(-20.54)"/>
                      <rect class="cls-8" x="232.98" y="162.45" width="6.62" height="17.43" transform="translate(-45.03 93.76) rotate(-20.54)"/>
                      <path class="cls-19" d="M263.5,164.37a1.38,1.38,0,0,1-1.29-.9L248.55,127a1.38,1.38,0,1,1,2.59-1L264.8,162.5a1.38,1.38,0,0,1-1.29,1.87Z"/>
                      <path class="cls-19" d="M240.8,161.4a1.38,1.38,0,0,1-1.29-.9L233.33,144a1.38,1.38,0,1,1,2.59-1l6.18,16.49a1.38,1.38,0,0,1-1.29,1.87Z"/>
                    </g>
                    <g>
                      <g>
                        <path class="cls-20" d="M242.78,227.38,208.47,229l5.38-12.56s5.75-1.73,30.66,5Z"/>
                        <path class="cls-20" d="M191.71,207.64l16.9,21.5,5.24-12.7L204,201.93A45,45,0,0,0,191.71,207.64Z"/>
                      </g>
                      <path class="cls-21" d="M211.39,207.17l-13.81-21.3a9.25,9.25,0,0,0-16-1.71h0a10.15,10.15,0,0,0-.35,10.35l12.26,26.56C197,216.13,206.76,209.12,211.39,207.17Z"/>
                    </g>
                    <path class="cls-22" d="M128.19,343.68l50.12-103.48L156.68,231c-26.08,38.74-41.9,109.77-41.9,109.77Z"/>
                    <path class="cls-20" d="M197.89,174.44a28.42,28.42,0,0,1-9.46-9.75,107.19,107.19,0,0,0-5.72,13.62,7,7,0,0,1,3.75.57c4.85,1.64,7.68,7.2,12.6,8.3-.25-.27-3.41-7.53-3.41-7.53Z"/>
                    <path class="cls-23" d="M197.89,174.44l3.26-7.59-10.42-6.37s-.93,1.5-2.31,4.21A28.42,28.42,0,0,0,197.89,174.44Z"/>
                    <path class="cls-20" d="M187.39,140.47c4.68-3.26,13.14-3.67,17.37.62,1.37,1.39,1.56,4.54,2,6.68.08.38.62,3.13.62,3.13l4.43,6-2.38,2.54,1,8.23s-13.14,1.28-17.82-2-10.34-10.78-8.49-20.52A7.44,7.44,0,0,1,187.39,140.47Z"/>
                    <path class="cls-6" d="M119.54,338.54l56.66-100-19.56-11c-27.86,27.38-50.3,107.24-50.3,107.24Z"/>
                    <path class="cls-10" d="M199.06,187.18c-3.75-3.1-7.61-10.09-11.06-13.62-.82-.88-1.94-.74-3.11-1C171.39,180.46,171,186,164,216a20.38,20.38,0,0,1-7.36,11.47l19.42,17.28,5.07-9.34S204.88,206.78,199.06,187.18Z"/>
                    <path class="cls-24" d="M171.49,240.72l4.57,4.07,5.07-9.34s23.72-28.63,17.94-48.23C194.51,207.07,187.12,226.86,171.49,240.72Z"/>
                    <g>
                      <g>
                        <path class="cls-20" d="M232.54,177.88l-7.62,33.49-7.16-14.24s-3.62-.3,9.55-22.49Z"/>
                        <path class="cls-20" d="M230.77,178.55l9.3-3.5a3.61,3.61,0,0,0,2.17-4.46l-1.71-5.48L237,163.56s-2.22,3.5-4.24,3.27a1.44,1.44,0,0,1-1.86-1.61c0-2.1-1.08-3.63-2.6-1.52s-1.67,7.21-1,10.93Z"/>
                        <path class="cls-20" d="M199.31,201.8l25.62,9.57-7.57-15.9-10.51-4.94A45,45,0,0,0,199.31,201.8Z"/>
                      </g>
                      <path class="cls-9" d="M209.93,189.5l-20.71-10.32a8.18,8.18,0,0,0-13,6.15h0a9.59,9.59,0,0,0,4.67,8.33l22,15.2C203.23,203.32,207.32,193.22,209.93,189.5Z"/>
                    </g>
                    <path class="cls-17" d="M183,143.33s-2.49-5.7,7.28-6.92c12.85-1.6,25.06-8.26,15.91,10.61a22,22,0,0,0-.6-4.1S202,149,196,148.57c0,0,4.33-4,4-6.24,0,0-3.76,5.31-9.05,5.86l.79,8.2L191,160l-4,7.78s-8.53-1-4.84-2.14,1.2-4.54.62-6c-.69-1.73-2.68-4.24-3.15-6.56C177.49,142.7,183,143.33,183,143.33Z"/>
                    <path class="cls-20" d="M192.33,156s-1.05-5.92-3.38-5.22-2.78,3.73-1.86,7.53,4.06,2.55,4.06,2.55l2.7-.72Z"/>
                    <path class="cls-25" d="M176.78,182.71a8.68,8.68,0,0,0,3,10.19c1.93,1.49,5.62,3.87,9.39,6.45,6.65,4.55,13.78,9.52,13.78,9.52a26.81,26.81,0,0,1,1.73-7.76S177.53,191.94,176.78,182.71Z"/>
                  </g>
                </g>
              </g>
            </g>
          </g>
          <g>
            <g>
              <g>
                <path class="cls-8" d="M354.33,246.2a20.85,20.85,0,0,1-6.31,3.35c-9.15,3-17.46-3.46-26.68-6.22H316.8c-16.06,13.8-29.55,37.3-29.55,37.3l53.21,30.52,3.83-2.81c-17.6-33.29-33.87-31.65-33.87-31.65,8.16-1.26,26.86-16.78,26.86-16.78,17.15,42,28.86,99.48,28.86,99.48l3.49.46C371.64,291.25,362.88,260.64,354.33,246.2Z"/>
                <path class="cls-26" d="M337.27,259.91l-35.4,15.72,41.25,33.61,1.16-.9s-14-30.25-33.87-31.65C310.41,276.69,318.36,275.71,337.27,259.91Z"/>
                <path class="cls-26" d="M354.33,246.2s4,5.42,7.79,19.11c5,17.79,9.83,49,7.51,94.54l-6.4-57a178,178,0,0,0-10.8-44.13l-4-10.44Z"/>
              </g>
              <path class="cls-27" d="M340.46,311.15s-14.78,19.23-13.63,21.8,22.84-15.31,22.84-15.31,3.35-4.36-5.38-9.29Z"/>
              <path class="cls-27" d="M366.13,359.39a37.51,37.51,0,0,1-3.29,7.69c-2.05,3.41-5.93,6.55,1.45,10.92,0,0,7.89,0,8.84-4.68s-3.5-13.48-3.5-13.48Z"/>
            </g>
            <path class="cls-17" d="M304.11,166.73a5.72,5.72,0,0,0-1.86,4.36c.23,2.39,2.48,3.7,3.62,5.7a3.16,3.16,0,0,1,.48,1.78,2.84,2.84,0,0,1-1.81,2.27,13,13,0,0,1-2.78.56c-3.74.68-7.1,3.94-8.25,8a8.24,8.24,0,0,0,0,5.09,7.18,7.18,0,0,0,5.34,4.08c2.2.52,4.51.49,6.67,1.16a6.64,6.64,0,0,1,4.8,4.74c.31,1.54,0,3.17.1,4.75.3,3.4,2.88,6,5.68,7.19a10.6,10.6,0,0,0,7.26.62,9.23,9.23,0,0,0,5.74-5.08c1.13-2.58,1.11-5.75,2.71-8a8.08,8.08,0,0,1,5.74-3c2.14-.28,4.3-.14,6.42-.64,3.84-.9,7.5-4.55,7.56-8.95.06-4.18-2.93-7.46-6-9.75-2.45-1.85-5.33-3.86-5.7-7.2s2.13-6.68,1.81-10.09c-.27-2.89-2.46-4.94-4.56-6.56a69.79,69.79,0,0,0-10.8-6.84c-2.12-1.08-5.1-2.28-7.36-.64-1.5,1.08-1.79,3.18-2.43,4.88C314.05,161.77,308.37,162.4,304.11,166.73Z"/>
            <g>
              <path class="cls-5" d="M312.62,192.42,290.7,224.09l3,8.07s18.8-21.46,20.84-25.84,3.25-6.68,1.72-11.53S312.62,192.42,312.62,192.42Z"/>
              <path class="cls-5" d="M263.88,223.81l29.79,8.35-3-8.07s-2-3.15-27.24-3.51Z"/>
              <g>
                <path class="cls-20" d="M267,222.14c-.16-.16-.78,0-1.63.39l.45.52c-1.06,3.65-3.38,8.2-5.57,9.48s-2.46-.59-1.53-2.48-.87-2.25-.87-2.25c-1-.69-4.94,1.2-7.26,2.83a.76.76,0,0,1-1.15-.91l1.8-4.5,2.26-2.17,0-.06c-3.35.21-6.64,1.4-9.3-1.12l-2.57,4,5.48,7.5,11.7.67,8.45-6.68S268.93,224.1,267,222.14Z"/>
                <path class="cls-28" d="M253.49,224.67c.06.38.93,3.77,1.58,3.53s7.16-4.3,10.3-5.67l-1.66-2-8.08.43-2.14,2.06A1.6,1.6,0,0,0,253.49,224.67Z"/>
                <path class="cls-28" d="M255.07,228.2c-.66.23-1.52-3.16-1.58-3.53a1.6,1.6,0,0,1,0-1.6l-2.26,2.17-1.8,4.5a.76.76,0,0,0,1.15.91c.66-.47,2.19.41,2.92-.15,1.28-1,1.1-2.12,1.9-2.41v0Z"/>
                <path class="cls-20" d="M265.38,222.54c-2.85,1.24-8.49,4.71-10,5.5v0c1.09-.4,2-.55,2.44-.27,0,0,1.8.36.87,2.25s-.66,3.75,1.53,2.48,4.51-5.83,5.57-9.48Z"/>
              </g>
              <path class="cls-29" d="M309.61,213.15a10.08,10.08,0,0,1-2.07-4.11,11,11,0,0,1-.14-4.45,16.24,16.24,0,0,1,1.35-4.28c.63-1.37,2.87-6.42,3.73-7.69l-2.2,3.2c-.93,1.34-16.6,36.34-16.6,36.34l1.45-1.66,7.45-8.71,7.06-8.6-.05,0Z"/>
              <path class="cls-20" d="M253.53,223a1.91,1.91,0,0,1,1-.57c2-.53,3.21-2,.77-2.91s-7.39.32-10.81,1.94l-.27.42C246.88,224.41,250.18,223.22,253.53,223Z"/>
            </g>
            <g>
              <path class="cls-5" d="M331.65,189.37c-3.06.58-18.71.65-19.31,3.55,0,0-4,8.18-5,14.08a6.83,6.83,0,0,0,2.23,6.15l4.76,4.28s7,5.2-.55,22.42c-.74,1.69.93,2.62,2.87,3.48l7.18,3.38c9.21,2.76,15,5.84,24.19,3.07a24.45,24.45,0,0,0,6.79-4,5,5,0,0,0,1.66-5.17c-1.12-4.17-12.95-13.66-13.08-20.5C343,200.33,340.11,190.47,331.65,189.37Z"/>
              <path class="cls-29" d="M356.51,240.62c-1.12-4.17-12.95-13.66-13.08-20.5-.4-19.78-3.32-29.65-11.78-30.75-.62.12,4.43,5.66,4.43,9.73,0,15.66-3.4,31.29,13.19,39.59,2.76,1.84.67,3.66-1.54,4.64-17,5.08-26.13-.89-30.93,0,1.09.19,10.2,6.06,23.42,7.51a19.93,19.93,0,0,0,7.84-1.06,24.45,24.45,0,0,0,6.79-4A5,5,0,0,0,356.51,240.62Z"/>
            </g>
            <g>
              <g>
                <path class="cls-30" d="M329.11,179.63l-10.52-.9a26.69,26.69,0,0,1,.54,7.59,4.92,4.92,0,0,1,1.29.8,13.48,13.48,0,0,0,8.34-.73A14.61,14.61,0,0,1,329.11,179.63Z"/>
                <path class="cls-28" d="M320.42,187.12a4.92,4.92,0,0,0-1.29-.8,8.06,8.06,0,0,1-1.59,4.41c-3,3.52-4.16,8.61,1.68,8.79s9.63-2.61,10.74-10a8.81,8.81,0,0,1-1.21-3.18A13.48,13.48,0,0,1,320.42,187.12Z"/>
              </g>
              <g>
                <path class="cls-28" d="M337.27,166.16c-1.26,9.65-9.7,18.29-14.61,17.65-4.66-.61-10.84-11.16-9.57-20.82s7.3-13.72,14-12.85S338.53,156.51,337.27,166.16Z"/>
                <g>
                  <path class="cls-17" d="M322.9,145.1a12.67,12.67,0,0,0-6.55.18,6.35,6.35,0,0,0-4.29,4.64c-.34,2,.57,4.1.09,6.08-.58,2.42-3,3.86-5.07,5.22s-4.28,3.33-4.08,5.81a5.08,5.08,0,0,0,2.87,3.84,15,15,0,0,0,4.81,1.28,4.48,4.48,0,0,1-3.55-2.58,3.66,3.66,0,0,1,1-4.17c1.81-1.45,4.45-.62,6.77-.69a8.52,8.52,0,0,0,7.94-7.06,3.16,3.16,0,0,1,.36-1.33c.83-1.25,2.71-.36,4.18-.08a4.32,4.32,0,0,0,4.27-1.8C335.05,149.3,326.56,145.8,322.9,145.1Z"/>
                  <path class="cls-17" d="M329.16,155.08a5.51,5.51,0,0,0,1.39,4.56,19.34,19.34,0,0,0,2.5,1.81,3.67,3.67,0,0,1,1.68,2.48c.14,1.72-1.55,2.93-2.61,4.29a6.7,6.7,0,0,0-.77,6.77c.64,1.38,1.77,2.57,2,4.06a4,4,0,0,1-3.26,4.47c2.14.23,4.08-1.18,5.73-2.56s3.31-2.91,3.83-5c.61-2.43-.55-5-.22-7.48.31-2.33,1.9-4.33,2.32-6.64a8.77,8.77,0,0,0-1.24-5.91,18.36,18.36,0,0,0-4.09-4.57C332.72,148.21,329.73,150.81,329.16,155.08Z"/>
                </g>
              </g>
            </g>
            <g>
              <path class="cls-28" d="M349.9,178l1.27-8-5.44-10.33-4.21-1.81c-.63-.42-2.68.49-2.38,1.19,1.12,2.61,3.25,8.32,4.13,11.16,0,0,.43,2.89-1.23,1.58s-7.25.84-6.24,3.16c.66,1.52,3-.63,5.27-.09s1.41,4.67,6,4.67Z"/>
              <path class="cls-5" d="M349.9,178,347,179.59c6.39,10.24,9.46,15.16,10.92,17.52L335.08,190s-7.56-2.88-4.77,4c1.91,4.71,4.32,6,8.66,7.81,3.15,1.33,18.62,4.42,27.4,6.12a6.2,6.2,0,0,0,7.27-4.94h0a6.2,6.2,0,0,0-2-5.8Z"/>
              <polygon class="cls-29" points="347.04 179.59 348.09 179.02 365.8 198.91 357.96 197.12 347.04 179.59"/>
            </g>
          </g>
          <g>
            <g>
              <path class="cls-10" d="M611.21,128.45s1.26,5.62-5.21,12.55c0,0,13.43-3.89,17.32-12.55Z"/>
              <g>
                <rect class="cls-10" x="595.65" y="103" width="40.42" height="28.93" rx="5.97" ry="5.97"/>
                <g>
                  <circle class="cls-11" cx="605.75" cy="117.46" r="2.73"/>
                  <circle class="cls-11" cx="615.85" cy="117.46" r="2.73"/>
                  <circle class="cls-11" cx="625.96" cy="117.46" r="2.73"/>
                </g>
              </g>
            </g>
            <g>
              <g>
                <g>
                  <path class="cls-20" d="M570.28,228.3C570,230.51,550.35,355,550.35,355l4.56.09s27.5-67.49,29.09-104.5c.42-9.88,3.15-20.18-1-21.26C579.63,228.43,570.28,228.3,570.28,228.3Z"/>
                  <path class="cls-17" d="M534.48,367.59c-3.56,2.19-6.76,3.9-6.94,4.74-.3,1.41,5.55,1.47,12.64,1.23l11.22-6.47.09-1.59-.09,1.59.09-.06-.09.06-.32,6,2.72-.19s4.72-8.62,1.44-17.08a4.41,4.41,0,0,0-1.41.55C548.23,360.93,542.3,369.1,534.48,367.59Z"/>
                </g>
                <path class="cls-20" d="M550.35,355a120.26,120.26,0,0,1-11,9.33,58.57,58.57,0,0,1-4.86,3.27c7.81,1.51,13.75-6.66,19.35-11.22a4.41,4.41,0,0,1,1.41-.55c-.11-.28-.23-.57-.36-.85Z"/>
              </g>
              <g>
                <path class="cls-17" d="M587,356.1s-1.93,14.33,1.69,17.34a14.57,14.57,0,0,0,8.56,2.95s2-2.15,2.23-3.82-.87-6.33-7.46-16.47Z"/>
                <path class="cls-20" d="M572.89,228.3c0,.21,8.34,1.65,8.45,3.89.95,21,5.71,123.35,5.71,123.35l5,.55s18.31-77.2,8.18-113c-2.55-9-10.41-14.58-10.41-14.58l-5.87-.11Z"/>
                <path class="cls-20" d="M587.05,355.54s-1,14.08,4.41,14.61,6.2-.76,5.68-3-5.09-11.07-5.09-11.07Z"/>
              </g>
              <g>
                <path class="cls-17" d="M600.23,243.13c-2.55-9-10.41-14.58-10.41-14.58l-5.87-.11-11.06-.14s.06,0,.15.07c-1.62-.06-2.76-.07-2.76-.07-.16,1.1-5.09,33.08-10,64.93h29.44s4.14-12.06,5.56-21.54c.44,9.45.52,11.09,1,21.54h5.88C603.83,275,604,256.36,600.23,243.13Z"/>
                <path class="cls-31" d="M600.23,243.13c-2.55-9-10.41-14.58-10.41-14.58l-5.87-.11-1.36,0c15.21,18.8,17.71,41.53,16.37,64.81h3.2C603.83,275,604,256.36,600.23,243.13Z"/>
              </g>
              <g>
                <path class="cls-8" d="M589.88,141.57s4-.95,6.86,6.48c1.54,4,5,15.81,5,26.18.13,30.77-28.54,19.08-32.17,12.56s-11.36-10.15,11.67-43.32"/>
                <g>
                  <path class="cls-32" d="M571,184.71l-21.79,33.18,3.34,9.12s21.25-24.25,23.55-29.19,3.67-7.55,1.94-13S571,184.71,571,184.71Z"/>
                  <path class="cls-32" d="M537.54,195.44l15,31.54,4.67-8.51s1.19-4.05-17.27-25.78Z"/>
                  <path class="cls-20" d="M537.54,195.44l-3.89,1.75a14.46,14.46,0,0,1-7.54,1.14l-7.63-.9-4.66-2.87a.86.86,0,0,1,.43-1.6c3.21-.08,13.42,0,13.9-1.3,0,0,.95-.49-1.17-1.58s-3.12-3-.28-3.28,7.65,2.06,11.06,4.55c.13.09,2.11,1.23,2.23,1.33Z"/>
                </g>
                <g>
                  <path class="cls-5" d="M591.92,179c-3.16,0-6.2-1.22-12.33-.78-3,.22-8,1.52-9.13,4.13L564,194.28c-1.09,1.69-1.74,6.3-.42,7.81,1.75,2,4.13,3.74,4.47,5.16l2.25,21.05,19.54.24S605.88,189.47,591.92,179Z"/>
                  <path class="cls-33" d="M591.92,179a44.93,44.93,0,0,1-5.11-.57,13.84,13.84,0,0,1,2.68,3.19c9,14.39.43,32.3-7.7,46.86l8,.1S605.88,189.47,591.92,179Z"/>
                  <g>
                    <g>
                      <path class="cls-28" d="M587.12,170.45a39.6,39.6,0,0,1,.16-8.49l-8,6a13.08,13.08,0,0,1-.34,5.12C582,174.31,584.58,172.4,587.12,170.45Z"/>
                      <path class="cls-20" d="M579,173.13a4.23,4.23,0,0,1-2.13,2.69c-1.84.87-1.56,3.65-3,4.51l-.87,7.16v3.81l9.64-8.23,7.31-3.33s-2.15-2.95-2.75-9.29C584.58,172.4,582,174.31,579,173.13Z"/>
                    </g>
                    <g>
                      <path class="cls-20" d="M593.13,157.22c0,13.55-18,13.93-18,13.93a20.37,20.37,0,0,1-4.36-12.46c0-7.49,0-18.23,5.24-18.23C587.18,140.45,593.13,140.51,593.13,157.22Z"/>
                      <path class="cls-8" d="M589.82,141.57s-14-9.35-19-2-2,11.6-2,11.6l1.63-.59s-.28-4.26,1.24-6c0,0-1.68,4.92-.64,6,0,0,10.61-1.41,12.77.07s2.56,5.38,2.56,5.38l.58,12s8.72-3.26,8.73-17.11C595.65,140.45,589.82,141.57,589.82,141.57Z"/>
                      <path class="cls-20" d="M586.34,156s.72-5.63,4.2-2.87.3,8.77-1.85,9.14-3.17-3.31-3.17-3.31"/>
                    </g>
                  </g>
                  <g>
                    <path class="cls-12" d="M588,174.22a17.22,17.22,0,0,0,4.12,4.39l-9.57,5.17,1,2.24-10.65,5.27S585.7,175,588,174.22Z"/>
                    <path class="cls-12" d="M576.82,175.82s-4.22,7.27-3.9,15.48A31.09,31.09,0,0,1,571.7,183l1.22-1.43-.58-1.19A43,43,0,0,1,576.82,175.82Z"/>
                  </g>
                </g>
                <g>
                  <path class="cls-27" d="M588.91,183.41l-21.79,33.18,3.34,9.12s21.25-24.25,23.55-29.19,3.67-7.55,1.94-13S588.91,183.41,588.91,183.41Z"/>
                  <path class="cls-27" d="M536.7,216.21l33.76,9.49-3.34-9.12s-2.36-3.43-30.86-4Z"/>
                </g>
              </g>
            </g>
          </g>
          <g>
            <g>
              <path class="cls-8" d="M382.11,131.59s-1.26,5.62,5.21,12.55c0,0-13.43-3.89-17.32-12.55Z"/>
              <g>
                <rect class="cls-8" x="357.26" y="106.15" width="40.42" height="28.93" rx="5.97" ry="5.97" transform="translate(754.93 241.22) rotate(180)"/>
                <g>
                  <circle class="cls-11" cx="387.57" cy="120.61" r="2.73"/>
                  <circle class="cls-11" cx="377.46" cy="120.61" r="2.73"/>
                  <circle class="cls-11" cx="367.36" cy="120.61" r="2.73"/>
                </g>
              </g>
            </g>
            <g>
              <circle class="cls-5" cx="412.47" cy="144.41" r="11.12"/>
              <path class="cls-12" d="M417.95,143.27a3.22,3.22,0,0,0-3.22-3.22,3.58,3.58,0,0,0-2.27,1.28,3.58,3.58,0,0,0-2.27-1.28,3.21,3.21,0,0,0-3.22,3.22q0,.08,0,.16c0,.06,0,.12,0,.18,0,3.46,5.48,6.26,5.48,6.26s5.48-2.8,5.48-6.26c0-.06,0-.12,0-.18S417.95,143.32,417.95,143.27Z"/>
              <polygon class="cls-5" points="410.28 153.87 402.21 158.91 405.45 148.82 410.28 153.87"/>
            </g>
            <g>
              <g>
                <g>
                  <path class="cls-34" d="M517.67,209.84c-19-5.89-20-3.67-20-3.67l-8.25,8.46,28.65,4.5C518.1,216.93,517.8,212.14,517.67,209.84Z"/>
                  <path class="cls-28" d="M519.82,211.63l-2.15-.67c.13,2.3.43,4.58.4,6.78l6.65.72Z"/>
                  <g>
                    <path class="cls-1" d="M527.33,210.82h0a1.65,1.65,0,0,0-.72-1.09A1.42,1.42,0,0,0,527.33,210.82Z"/>
                    <path class="cls-20" d="M526.52,206.22h-.36c-1.19.07-1.72.45-1.79.95a5.9,5.9,0,0,1,2.07-.93Z"/>
                    <path class="cls-28" d="M527.83,206.38a1.72,1.72,0,0,0-1.31-.15A7,7,0,0,1,527.83,206.38Z"/>
                    <path class="cls-28" d="M526.84,212.17a1.78,1.78,0,0,0,.5-1.34h0a1.42,1.42,0,0,1-.71-1.07,3.55,3.55,0,0,0-.35-.24c-1.2-.7-2-1.64-1.9-2.34a20.37,20.37,0,0,0-5.08,5.2l0,1.12C522.37,213.54,526.34,213.36,526.84,212.17Z"/>
                    <path class="cls-28" d="M526.26,209.51a3.55,3.55,0,0,1,.35.24,1.48,1.48,0,0,1,.52-1c.87-.88,1.25-1.91.69-2.34a7,7,0,0,0-1.31-.15h-.08a5.9,5.9,0,0,0-2.07.93C524.27,207.87,525.07,208.81,526.26,209.51Z"/>
                    <path class="cls-20" d="M536.64,212.57c-2.7-2.28-6-5.61-8.81-6.19.56.43.18,1.46-.69,2.34a1.48,1.48,0,0,0-.52,1,1.65,1.65,0,0,1,.72,1.09,1.78,1.78,0,0,1-.5,1.34c-.5,1.19-4.47,1.37-7.6,1.32l-.86,0a.86.86,0,0,0-.51,1.57l1.26.88,3.23,2.24,5,1.35L529,220l7.74-3.79Z"/>
                  </g>
                  <path class="cls-34" d="M475.56,198l13.86,16.64,9.19-8.87-13.34-16.1C482,191.51,478.18,195.23,475.56,198Z"/>
                  <path class="cls-34" d="M487.77,193l-11.54-15.3c-4.26-4.65-9.86-4.81-12.46-.09h0a8,8,0,0,0,.49,7.91L480,203.07C482.2,199,484.49,194.83,487.77,193Z"/>
                </g>
                <g>
                  <g>
                    <polygon class="cls-20" points="479.97 357.38 483.47 370.75 493.74 367.57 489.44 348.65 479.97 357.38"/>
                    <path class="cls-8" d="M493.55,366.6l20.93,7.13a2.81,2.81,0,0,1,2,2.57h0a3,3,0,0,1-3.23,2.77H483.95s-2.88-5.59-.26-8.55Z"/>
                    <g>
                      <path class="cls-9" d="M493.37,361.28,476.48,242H458.17C449.9,253.82,480,362.45,480,362.45Z"/>
                      <path class="cls-35" d="M465.12,259.91l-4.21,22.59s12.22,57,19.12,80l5.21-.46Z"/>
                    </g>
                  </g>
                  <g>
                    <polygon class="cls-20" points="413.22 345.62 404.49 356.32 413.11 362.74 425.86 348.11 413.22 345.62"/>
                    <path class="cls-9" d="M407.66,351.07l12,5.89L452.41,319l2.17-2.58c-5.09-3.11-13-4-17.58-7.77C421.28,330.71,407.66,351.07,407.66,351.07Z"/>
                    <path class="cls-8" d="M416.53,359.65s2.06,8.48,14,11.93c5.54,1.59.37,6.43.37,6.43H415.17l-13.71-12.34s.63-12.27,5.77-12.34A40.24,40.24,0,0,0,416.53,359.65Z"/>
                    <g>
                      <path class="cls-9" d="M446,242c-4.34,6.22-7.8,39.13-10.11,69v0c5.91.86,12.73,5.43,18.69,5.46l13.06-70.1Z"/>
                      <polygon class="cls-35" points="415.18 354.75 450.27 314.91 459.96 287.58 454.58 316.45 419.68 356.96 415.18 354.75"/>
                    </g>
                  </g>
                </g>
                <g>
                  <path class="cls-17" d="M470.41,173.9c-9.46-2.75-11.6-4.81-17.71-3.3a76.2,76.2,0,0,0-13,5.66,10.62,10.62,0,0,0-4.64,8.46c.06,20.06,13.89,37.78,13.32,45.77L446,242l31.38,6.35S482.89,179.58,470.41,173.9Z"/>
                  <path class="cls-31" d="M455,218.45c-6-12.85-18.36-26.51-14.88-42.44l-.41.25a10.62,10.62,0,0,0-4.64,8.46c.06,20.06,13.89,37.78,13.32,45.77L446,242l8.52,1.72C457.3,235.43,458.58,227.05,455,218.45Z"/>
                </g>
                <g>
                  <path class="cls-28" d="M410.11,194.16c-1.05-1.16-2.19-2.41-3.43-3.76l-8.79-1.62,6.65,10.9C407.23,199.35,408.53,196.37,410.11,194.16Z"/>
                  <path class="cls-28" d="M395.6,191.88l-9.34-5.41a1.88,1.88,0,0,1-.88-2.08l.71-2.88a1.88,1.88,0,0,1,2.57-1.28L397,183.8a17.75,17.75,0,0,1,5.39,0s.93-2.45,1.65-4.44,2-1.78,2.67.76,1.27,8.13-.66,11.41l-4.19,3.72-1.38-2.68Z"/>
                  <path class="cls-20" d="M437.2,201l-19.42,20L414,210l12.45-16.66C430,194.94,434.25,198.43,437.2,201Z"/>
                  <path class="cls-34" d="M418.51,203.92l16.14-23.76c4-5.19,9.73-5.87,12.84-1.23h0c1.52,2.26.63,10.67-.77,13L417.78,221C415.1,217.08,422.07,205.52,418.51,203.92Z"/>
                  <path class="cls-34" d="M411,193c-1.58,2.21-5.42,5.93-8.11,6.26L417.58,221,422,209.22S423.43,206.73,411,193Z"/>
                </g>
                <g>
                  <g>
                    <path class="cls-28" d="M461.21,168.68c-4.56.52-9.06-.47-12-4a31.28,31.28,0,0,1-.89,7.43l15.45.79A5.92,5.92,0,0,1,461.21,168.68Z"/>
                    <path class="cls-28" d="M462.41,171.69s4,2.66.77,3.44-11.76,2.64-14.9-3l6.58-5.46,5.24,3.3Z"/>
                    <path class="cls-30" d="M461.21,168.68a23.29,23.29,0,0,1,.31-8.13l-12.4-4.79c.17,3.67.15,6.6.06,8.92C452.15,168.21,456.65,169.2,461.21,168.68Z"/>
                  </g>
                  <g>
                    <path class="cls-28" d="M444.72,151.91c0,13.77,18,12.42,18,12.42s4.67-3.33,4.67-10.93,0-18.52-5.32-18.52C450.76,134.88,444.72,134.94,444.72,151.91Z"/>
                    <path class="cls-32" d="M444.35,149.51c-.32-1,1.52,1.65,2.53,1.27a3.11,3.11,0,0,0,1.78-2.53,9.16,9.16,0,0,0-.31-3.21,1.13,1.13,0,0,0,1.44.25,2.56,2.56,0,0,0,1-1.21,7.61,7.61,0,0,0,.57-4.91,5.46,5.46,0,0,0,9.06-1.78,7.29,7.29,0,0,0,5.48,2.4,6.37,6.37,0,0,0,3.86-1,3.65,3.65,0,0,0,1.59-3.5,4.35,4.35,0,0,0-1-1.88c-2-2.55-5.16-4.76-8.29-3.84.12-1.88-1-2.8-2.37-4.09a4.42,4.42,0,0,0-5.21-.68,8.54,8.54,0,0,0-3.32,3.28c-1.21-1.17-7.39-2.08-8.93-1.4a4,4,0,0,0-2.44,4,20.24,20.24,0,0,0,1.13,4.17c-2.13-.42-3.12,1-4.42,2.77a4.44,4.44,0,0,0,.5,5.88,10.51,10.51,0,0,0,2.44,1.27.91.91,0,0,1,.55.48,1,1,0,0,1-.25.78,14,14,0,0,0-2.4,7.45,2.87,2.87,0,0,0,.19,1.32,2.44,2.44,0,0,0,2.17,1.16c.86,0,1.72-.17,2.58-.13a1.43,1.43,0,0,1,.8.21c.46.33.46,1,.42,1.56l-.27,3.67a4.26,4.26,0,0,0,.18,2,3.63,3.63,0,0,0,2.62,1.77c1.45.36,2.12,1.11,3.06-.06,0,0,.87-1.32.08-3.88C448.38,158.36,445.78,154.12,444.35,149.51Z"/>
                    <path class="cls-28" d="M448.12,151.48s-.72-6.71-3.24-5.15-2.36,9.65,3.68,9.43,5-1.71,5-1.71Z"/>
                  </g>
                </g>
              </g>
              <g>
                <g>
                  <polygon class="cls-17" points="391.44 166.19 389.31 194.87 402.52 196.16 404.14 168.53 391.44 166.19"/>
                  <polygon class="cls-13" points="393.23 168.11 391.53 193.34 401.26 194.25 402.82 169.8 393.23 168.11"/>
                </g>
                <polygon class="cls-14" points="392.45 179.74 402.44 169.75 402.82 169.8 402.53 174.34 392.17 184.71 392.45 179.74"/>
                <polygon class="cls-14" points="391.98 186.52 402.42 176.07 402.36 176.58 402.06 181.13 391.7 191.49 391.98 186.52"/>
              </g>
            </g>
          </g>
        </g>
      </g>
    </g>
  </g>
</svg>
