<svg xmlns="http://www.w3.org/2000/svg" xmlns:xlink="http://www.w3.org/1999/xlink" viewBox="0 0 81.04 106.42">
  <defs>
    <style>
      .cls-1 {
        fill: #b3e3ef;
      }

      .cls-2 {
        fill: #d2edf5;
      }

      .cls-3 {
        fill: #e9f4f0;
        opacity: 0.4;
      }

      .cls-4 {
        fill: #33a6d2;
      }

      .cls-5 {
        fill: #292a75;
      }

      .cls-6 {
        fill: #0d66a2;
      }

      .cls-7 {
        fill: #fc412d;
      }

      .cls-8 {
        fill: #f7dde3;
      }

      .cls-9 {
        fill: #fffeff;
      }

      .cls-10 {
        fill: #0e5a98;
      }

      .cls-11 {
        fill: #1a2245;
      }

      .cls-12 {
        fill: #dd0505;
      }

      .cls-13 {
        fill: #f7c139;
      }

      .cls-14 {
        fill: #e2a214;
      }

      .cls-15 {
        fill: #ffc2a4;
      }

      .cls-16 {
        fill: #1a2243;
      }

      .cls-17 {
        fill: url(#linear-gradient);
      }

      .cls-18 {
        fill: #37467c;
      }

      .cls-19 {
        fill: #ffa283;
      }
    </style>
    <linearGradient id="linear-gradient" x1="57.85" y1="10.96" x2="74.49" y2="10.96" gradientUnits="userSpaceOnUse">
      <stop offset="0.01" stop-color="#1a2246"/>
      <stop offset="1" stop-color="#23173b"/>
    </linearGradient>
  </defs>
  <title>transaction-stat</title>
  <g id="Layer_2" data-name="Layer 2">
    <g id="_ëîé_2" data-name="‘ëîé_2">
      <g>
        <g>
          <path class="cls-1" d="M50.93,92.49a.62.62,0,0,1-.62.61H.62A.62.62,0,0,1,0,92.49V4.92A.62.62,0,0,1,.62,4.3H50.31a.62.62,0,0,1,.62.61Z"/>
          <path class="cls-2" d="M3.25,10.66H47.68a.61.61,0,0,1,.61.61v74.3a.62.62,0,0,1-.62.62H3.25a.62.62,0,0,1-.62-.62V11.28A.62.62,0,0,1,3.25,10.66Z"/>
          <path class="cls-3" d="M48.29,11.27V82.84L2.63,24.63V11.27a.62.62,0,0,1,.62-.61H47.68A.62.62,0,0,1,48.29,11.27Z"/>
          <ellipse class="cls-4" cx="25.46" cy="89.58" rx="2.63" ry="2.61"/>
          <ellipse class="cls-4" cx="25.46" cy="6.2" rx="0.52" ry="0.51"/>
          <path class="cls-4" d="M31.68,8.6H19.24a.15.15,0,1,1,0-.31H31.68a.15.15,0,1,1,0,.31Z"/>
          <g>
            <rect class="cls-5" x="7.28" y="22.85" width="36.37" height="49.51"/>
            <rect class="cls-6" x="10.44" y="26.34" width="30.33" height="12.1"/>
            <rect class="cls-7" x="33.22" y="51" width="7.55" height="17.1"/>
            <rect class="cls-4" x="10.44" y="41.39" width="7.3" height="7.3"/>
            <rect class="cls-4" x="21.78" y="41.39" width="7.3" height="7.3"/>
            <rect class="cls-4" x="10.44" y="51.09" width="7.3" height="7.3"/>
            <rect class="cls-4" x="21.78" y="51.09" width="7.3" height="7.3"/>
            <rect class="cls-4" x="10.44" y="60.8" width="7.3" height="7.3"/>
            <rect class="cls-4" x="21.78" y="60.8" width="7.3" height="7.3"/>
            <rect class="cls-4" x="33.12" y="41.39" width="7.3" height="7.3"/>
            <path class="cls-8" d="M12.36,36.51a.25.25,0,0,1-.25-.25V28a.25.25,0,1,1,.5,0v8.27A.25.25,0,0,1,12.36,36.51Z"/>
          </g>
          <path class="cls-9" d="M24.17,34.77h0Z"/>
          <path class="cls-9" d="M24.17,34.77h0Z"/>
          <polygon class="cls-10" points="24.17 34.93 24.16 34.93 24.18 34.93 24.17 34.93"/>
          <path class="cls-11" d="M28.27,30.68h0a.09.09,0,0,1-.08-.09,8.89,8.89,0,0,1,1.76-4.05.09.09,0,0,1,.12,0,.09.09,0,0,1,0,.12,8.94,8.94,0,0,0-1.73,4A.09.09,0,0,1,28.27,30.68Z"/>
        </g>
        <path class="cls-7" d="M80.74,30.48c-.67-4.37-5.5-12.32-7.37-14.95-.07-.1-.16-.21-.24-.31-2-2.35-6.71-2.72-11.48-1a15.07,15.07,0,0,0-1.48.61c-3.84,1.83-5.3,4.8-6.48,8.89a12,12,0,0,1-8.74,8.2c-3.79,1-10.16-1.29-12.2-2.92a7.78,7.78,0,0,0-1.85,4.25,44.21,44.21,0,0,0,7.55,5.08,17.47,17.47,0,0,0,18.42-3.66,1.37,1.37,0,0,0,.1-.13v0l-.88,5h0L55,45.63l1.31.09c2.13.14,6.49.38,10.59.32,2.56,0,4.87-.15,6.62-.26,2.15-.14,3.49-.28,3.49-.28a58.13,58.13,0,0,0-.87-6S81.4,34.85,80.74,30.48ZM75,34.68l-.05.13-.2-.86L73.24,27.4l.13,0a3.78,3.78,0,0,1,1.91,2.91A7.42,7.42,0,0,1,75,34.68Z"/>
        <path class="cls-12" d="M74.49,21.64c-.1.25-2.31,1.12-4.93,1.19a22.45,22.45,0,0,1-6-1c.19-1.06-.84-5.28-.84-5.28a3.26,3.26,0,0,0-2.53-1.72,15.07,15.07,0,0,1,1.48-.61c4.77-1.68,9.46-1.32,11.48,1A33.33,33.33,0,0,1,74.49,21.64Z"/>
        <path class="cls-13" d="M80.8,104.42a13.91,13.91,0,0,1-3.67.77l-.19,0-.52,0S74,98.45,72,91.8h0c-1.07-3.49-2.05-6.95-2.54-9.35-1.28-6.32-3.3-15.83-3.68-17.61h0l-.06-.29s-.15.42-.39,1.28v0q-.13.45-.28,1l-.06.23c-.2.78-.43,1.74-.68,2.89s-.54,2.62-.82,4.25c-1.17,6.66-5.75,31-5.75,31-1.15-.23-2.93-.46-3.93-.58l-.19,0-.55-.06s-1.17-17.4-.58-30.14c.53-11.51,3.28-25.67,3.81-28.29l.07-.34,0-.09c2.13.14,6.49.38,10.59.32L69.4,46c1.56-.05,3-.13,4.14-.2a6.07,6.07,0,0,1,.85,1.38c1.33,2.89,1.12,7.24,1.18,10.54.08,3.91,1.92,19.65,2.5,24.15S80.8,104.42,80.8,104.42Z"/>
        <path class="cls-14" d="M74.39,47.16c-6.67,1.53-16.12-.53-18.15-1l.07-.34,0-.09c2.13.14,6.49.38,10.59.32L69.4,46c1.56-.05,3-.13,4.14-.2A6.07,6.07,0,0,1,74.39,47.16Z"/>
        <path class="cls-14" d="M72,91.79c-1.07-3.49-2.05-6.95-2.54-9.35-1.28-6.32-3.3-15.83-3.68-17.61h0c0-.15,1.5-5.7,1.77-7.37L68.34,54s0,.06,0,.18c0,1.21.12,8.13.59,14.49C69.33,73.94,70.88,84.72,72,91.79Z"/>
        <path class="cls-12" d="M75.21,35.29l-.2-.61a7.42,7.42,0,0,0,.29-4.33,3.78,3.78,0,0,0-1.91-2.91l-.55-2.57s3.29,2,3.48,5.16A9.68,9.68,0,0,1,75.21,35.29Z"/>
        <path class="cls-15" d="M61.16,11.18A27.57,27.57,0,0,0,62.07,14l-.2.09-1.77.84V13a3.75,3.75,0,0,1-3.44-.56,3.17,3.17,0,0,1-1.39-2.13c0-.07,0-.14,0-.21a3.73,3.73,0,0,1,0-1.25A14.91,14.91,0,0,0,54,7.34l2.31-1.91a6.9,6.9,0,0,1,.45-1l.09-.16A19.86,19.86,0,0,1,58,2.4a4.07,4.07,0,0,0-.18.61,11.14,11.14,0,0,0,.88,4.17,4.88,4.88,0,0,0,1.81,1.75c.63-.81,1.62,0,1.53,1A1.36,1.36,0,0,1,61.16,11.18Z"/>
        <path class="cls-15" d="M32.73,29a5.06,5.06,0,0,0-1,1.54A21.33,21.33,0,0,0,31,32.57c-.52-.08-1.56-1.38-1.85-2.22a1.29,1.29,0,0,1,0-1,.42.42,0,0,1,.08-.12l-.06-.17c-.2-.59.08-.81.21-.89l.06,0a.75.75,0,0,1-.06-.25c0-.36.31-.51.53-.57l.19,0a3.27,3.27,0,0,1-.75-.63,1,1,0,0,1-.25-.5c-.08-.58.33-.92,1.29,0A28.73,28.73,0,0,1,32.73,29Z"/>
        <path class="cls-16" d="M58,105.25c.06-.76-2.07-.82-5-.87s-4.44.41-4.48,1.08,3.44.56,5.87.46C56.6,105.83,58,105.84,58,105.25Z"/>
        <path class="cls-16" d="M76.18,104.59c-1.55.44-2.68.83-2.64,1.43s2.62.44,4.37,0,3.14-.85,3.13-1.18a5.41,5.41,0,0,0-.24-.84S77.12,104.33,76.18,104.59Z"/>
        <path class="cls-17" d="M70.9,12.21c-1.22-3.25-4-9.3-5.09-10.74S62.3-.34,60.22.31A3.49,3.49,0,0,0,57.85,3a11.17,11.17,0,0,0,.88,4.17,4.9,4.9,0,0,0,1.81,1.75c.62-.81,1.62,0,1.53,1a1.36,1.36,0,0,1-.91,1.25c.09.62,2.46,8.62,2.37,10.62,0,0,10.21.34,11-.15C74.49,21.64,72.12,15.46,70.9,12.21Z"/>
        <path class="cls-11" d="M31.06,28.32l-.05,0c-.41-.28-1.63-1.47-1.69-1.52a.09.09,0,0,1,0-.13.1.1,0,0,1,.13,0s1.27,1.23,1.66,1.5a.09.09,0,0,1-.05.17Z"/>
        <path class="cls-11" d="M30.45,29.1a.1.1,0,0,1-.08,0l-.05,0a7.41,7.41,0,0,1-1-.94l.06,0a.75.75,0,0,1-.06-.25A8.35,8.35,0,0,0,30.43,29,.1.1,0,0,1,30.45,29.1Z"/>
        <path class="cls-11" d="M30.29,30.41a.09.09,0,0,1-.08,0l-.06,0a6.36,6.36,0,0,1-1.05-1.08.42.42,0,0,1,.08-.12l-.06-.17a6.34,6.34,0,0,0,1.14,1.22A.09.09,0,0,1,30.29,30.41Z"/>
        <path class="cls-11" d="M74,30.71a.1.1,0,0,1-.09-.07c-.35-1.5-1.57-7.21-1.59-7.26a.09.09,0,1,1,.18,0c0,.06,1.24,5.76,1.59,7.26a.09.09,0,0,1-.07.11Z"/>
        <path class="cls-11" d="M75.28,30.45a.09.09,0,0,1-.09-.08,3.92,3.92,0,0,0-2-2.87.09.09,0,0,1,0-.13.09.09,0,0,1,.12,0,4,4,0,0,1,2.06,3,.09.09,0,0,1-.08.11Z"/>
        <path class="cls-11" d="M76.37,40.54a.09.09,0,0,1-.09-.08c-.26-1.64-1.51-6-1.52-6.08a.09.09,0,0,1,.06-.12.09.09,0,0,1,.11.07s1.27,4.46,1.53,6.11a.09.09,0,0,1-.08.11Z"/>
        <path class="cls-11" d="M69.3,45.9c-1.92.1-4.43.07-6.77,0h-.19c-3.44-.1-6.45-.29-6.5-.3a.09.09,0,0,0-.1.09.09.09,0,0,0,.09.1l.47,0,2.33.12h0c-.1.39-.44,1.78-.92,3.93h0c-.75,3.34-1.81,8.53-2.8,14.68a143.56,143.56,0,0,0-2.06,25.18c.11,4.77.53,12.55.7,14.91l.19,0c-.17-2.3-.59-10.13-.71-14.93A143.49,143.49,0,0,1,55.1,64.59c1-6.11,2-11.27,2.79-14.62A9.11,9.11,0,0,0,60,49a5.65,5.65,0,0,0,2.46-2.91c1.26,0,2.58.06,3.83.06,1.08,0,2.1,0,3-.06a.09.09,0,0,0,.09-.1h0A.09.09,0,0,0,69.3,45.9ZM57.93,49.76h0c.48-2.15.82-3.5.9-3.81,1,0,2.2.1,3.46.13C61.44,48.51,58.62,49.54,57.93,49.76Z"/>
        <path class="cls-11" d="M77.12,105.16C75.87,102.56,72.31,91,70.71,82c-1.52-8.56-3.51-22-3.6-22.53l.1-.41c.74-3.15,1.12-5,1.12-5s0,0,0,0A3,3,0,0,1,70,54a.1.1,0,0,0,.12-.06A.09.09,0,0,0,70,53.8c-1.21-.45-3.44.64-3.54.69a.09.09,0,0,0,0,.12.09.09,0,0,0,.08.05h0a10.16,10.16,0,0,1,1.57-.59c-.08.36-.45,2.11-1.11,4.92l-.1.43h0C66.3,62,65,66.75,64.46,68.83c-.2.73-.28,1-.29,1.09a.09.09,0,0,0,.07.11h0a.09.09,0,0,0,.09-.07l.29-1.08c.53-2,1.7-6.28,2.36-8.95.37,2.49,2.15,14.29,3.53,22.09,1.5,8.46,5,20.29,6.42,23.23a.09.09,0,0,0,.08.05h0A.09.09,0,0,0,77.12,105.16Z"/>
        <path class="cls-11" d="M75.28,51a.09.09,0,0,1-.09-.09,10.2,10.2,0,0,0-1.72-5.06.09.09,0,0,1,0-.13.1.1,0,0,1,.13,0,10.41,10.41,0,0,1,1.76,5.17.1.1,0,0,1-.09.1Z"/>
        <path class="cls-11" d="M60.1,10.59h0a.09.09,0,0,1-.06-.12,1.86,1.86,0,0,1,1.21-1,.09.09,0,0,1,0,.19,1.71,1.71,0,0,0-1,.87A.09.09,0,0,1,60.1,10.59Z"/>
        <path class="cls-11" d="M58,6.31a.09.09,0,0,1-.09.09h0a.09.09,0,0,1-.09-.1,1.75,1.75,0,0,0-1.1-1.84l.09-.16A1.93,1.93,0,0,1,58,6.31Z"/>
        <circle class="cls-11" cx="56.84" cy="6.22" r="0.41"/>
        <path class="cls-11" d="M56.72,10.1a1.44,1.44,0,0,1-.84.25,2.09,2.09,0,0,1-.6-.09c0-.07,0-.14,0-.21a1.54,1.54,0,0,0,1.36-.11.09.09,0,0,1,.11.15Z"/>
        <path class="cls-18" d="M68.08,9.88A.1.1,0,0,1,68,9.81a33.48,33.48,0,0,0-1.53-4.13l-.13-.32a.09.09,0,1,1,.17-.07l.13.31a34.06,34.06,0,0,1,1.54,4.16.09.09,0,0,1-.07.11Z"/>
        <path class="cls-18" d="M63.29,14.42a.1.1,0,0,1-.09-.07,11.66,11.66,0,0,1-.16-3,.09.09,0,0,1,.11-.07.09.09,0,0,1,.07.11,11.5,11.5,0,0,0,.17,2.91.09.09,0,0,1-.07.11Z"/>
        <path class="cls-18" d="M60.38,5.17a.09.09,0,0,1-.09-.06A9.29,9.29,0,0,1,60,2.62a.09.09,0,0,1,.09-.09h0a.09.09,0,0,1,.09.09A9.44,9.44,0,0,0,60.47,5a.1.1,0,0,1-.05.12Z"/>
        <path class="cls-18" d="M63.67,3.43a.09.09,0,0,1-.09-.07A4,4,0,0,0,62,.87a.09.09,0,0,1,0-.13.09.09,0,0,1,.13,0,4.1,4.1,0,0,1,1.64,2.6.09.09,0,0,1-.07.11Z"/>
        <path class="cls-18" d="M64.09,9.65A.1.1,0,0,1,64,9.59a18.63,18.63,0,0,1-.63-2.71.09.09,0,0,1,.08-.11.09.09,0,0,1,.11.08,18.8,18.8,0,0,0,.62,2.66.09.09,0,0,1-.05.12Z"/>
        <path class="cls-18" d="M68.08,15.54a.09.09,0,0,1-.09-.09A7.72,7.72,0,0,0,67.17,13a.09.09,0,1,1,.17-.09,7.75,7.75,0,0,1,.84,2.5.09.09,0,0,1-.09.1Z"/>
        <path class="cls-18" d="M72,19.29a.09.09,0,0,1-.09-.05c-.21-.46-.81-2.51-.84-2.59a.1.1,0,0,1,.06-.12.09.09,0,0,1,.11.06s.63,2.12.83,2.57a.09.09,0,0,1,0,.12Z"/>
        <path class="cls-18" d="M65.63,18.21a.09.09,0,0,1-.09-.1c0-.32-.15-1.23-.25-1.83-.06-.36-.09-.54-.09-.59a.09.09,0,0,1,.09-.09h0a.09.09,0,0,1,.09.09s0,.29.09.55a18.3,18.3,0,0,1,.25,1.86A.09.09,0,0,1,65.63,18.21Z"/>
        <path class="cls-12" d="M60,30c0,.2-1.45,6.18-3.92,9.54l.88-5h0A45.84,45.84,0,0,0,60,30Z"/>
        <path class="cls-11" d="M50.9,38.51a.09.09,0,0,1-.09-.06.09.09,0,0,1,.06-.12,17.39,17.39,0,0,0,7.37-5.57c2.88-4,3-6,3-6.05a.09.09,0,0,1,.1-.09.09.09,0,0,1,.09.1c0,.08-.16,2.15-3.08,6.15a17.57,17.57,0,0,1-7.46,5.63Z"/>
        <circle class="cls-19" cx="57.07" cy="8.52" r="0.96"/>
        <path class="cls-19" d="M61.09,11.6s0,2-1,2.64V13A2.75,2.75,0,0,0,61.09,11.6Z"/>
      </g>
    </g>
  </g>
</svg>
