<svg xmlns="http://www.w3.org/2000/svg" viewBox="0 0 2684.6 1832.25">
  <defs>
    <style>
      .cls-1 {
        isolation: isolate;
      }

      .cls-2 {
        fill: #d4deff;
      }

      .cls-3 {
        fill: #fff;
      }

      .cls-4 {
        fill: #e3eaff;
      }

      .cls-5 {
        fill: #95a6db;
      }

      .cls-6 {
        fill: #3f964f;
      }

      .cls-7 {
        fill: #4ead60;
      }

      .cls-8 {
        fill: #193f1e;
        opacity: 0.2;
        mix-blend-mode: color-burn;
      }

      .cls-9 {
        fill: #2c2858;
      }

      .cls-10 {
        fill: #0e6a41;
      }

      .cls-11 {
        fill: #201d40;
      }

      .cls-12 {
        fill: #c4204a;
      }

      .cls-13 {
        fill: #e62552;
      }

      .cls-14 {
        fill: #f37a50;
      }

      .cls-15 {
        fill: #de623c;
      }

      .cls-16 {
        fill: #020205;
      }

      .cls-17 {
        fill: #faba23;
      }

      .cls-18 {
        fill: #fad332;
      }

      .cls-19 {
        fill: #faee6c;
      }

      .cls-20 {
        fill: #f9cd2d;
      }

      .cls-21 {
        fill: #f9f93a;
      }

      .cls-22 {
        fill: #d6224c;
      }

      .cls-23 {
        fill: #fac832;
      }
    </style>
  </defs>
  <title>transactions</title>
  <g class="cls-1">
    <g id="Layer_2" data-name="Layer 2">
      <g id="Слой_1" data-name="Слой 1">
        <g>
          <g>
            <circle class="cls-2" cx="582.52" cy="251.28" r="81.41" transform="translate(-51.87 256.12) rotate(-23.77)"/>
            <path class="cls-3" d="M603.15,311.06l-6.25-14.19c-8.21,3.45-17.76,4.63-24.22,3.29l-.77-10.9a40.94,40.94,0,0,0,22.9-2.87c10-4.39,14.18-13.13,10.66-21.14-3.4-7.73-11-10.09-23.24-9.73-16.81.69-28.51-1.87-33.89-14.1-5.14-11.66-.75-24.17,11.25-32l-6.25-14.19,8.71-3.84,6,13.63c8.55-3.43,15.31-3.72,20.43-3.13l.57,10.82a37.1,37.1,0,0,0-19.81,3c-10.82,4.77-12,13-9.57,18.65,3.22,7.31,10,8.67,24.48,8.34,17.07-.47,27.6,3.62,33.11,16.12,4.89,11.1,1.74,24.9-11.68,33.66L612,307.16Z"/>
          </g>
          <g>
            <path class="cls-2" d="M346.84,675.94,278.16,598.8s25.26-54.15,99.44-56.07c46-1.19,86.59-47.54,86.59-47.54l69,77.55s-44.68,63.55-97.26,64C380.36,637.27,346.84,675.94,346.84,675.94Z"/>
            <ellipse class="cls-4" cx="403.01" cy="584.67" rx="44.65" ry="38.27" transform="translate(-175.13 172.35) rotate(-19.93)"/>
          </g>
          <g>
            <path class="cls-2" d="M2494.67,763.75l-33.21-97.8s-59.56-4.74-97.83,58.83c-23.72,39.4-84.07,51.86-84.07,51.86L2312.95,875s77.32-7.51,103.68-53C2444.5,773.82,2494.67,763.75,2494.67,763.75Z"/>
            <ellipse class="cls-4" cx="2387.57" cy="767.58" rx="44.65" ry="38.27" transform="translate(73.74 1734.97) rotate(-40.51)"/>
          </g>
          <path class="cls-4" d="M2460.64,1832.25c116-185.06,235.55-333.1,223.06-595.43C2673,1012,2419.21,947.08,2351.83,851.42c-82.46-117.07,14.27-339-132-538.84-160.22-218.84-416.91-214-628-103.49-154.18,80.72-312.47,108.52-467.47,60.66-262-80.88-620.91-103.49-656.6,217.68-24.81,223.33-146.31,292.61-339,442.49-259.93,202.17-62.13,601.84,38.08,884.31Z"/>
          <rect class="cls-5" x="23.77" y="1805.84" width="2448.92" height="26.41" rx="12.06" ry="12.06"/>
          <g>
            <circle class="cls-3" cx="1474.85" cy="857.91" r="82.41" transform="translate(-182.26 451.5) rotate(-16.41)"/>
            <path class="cls-4" d="M1487.81,920.6l-4.43-15.06c-8.69,2.4-18.43,2.35-24.74.16l.64-11a41.43,41.43,0,0,0,23.36.09c10.59-3.12,15.94-11.34,13.44-19.84-2.41-8.2-9.72-11.56-22.07-12.78-17-1.49-28.37-5.58-32.2-18.55-3.64-12.37,2.39-24.36,15.45-30.63l-4.43-15.06,9.24-2.72,4.26,14.46c9-2.34,15.85-1.75,20.92-.49l-.83,10.94a37.57,37.57,0,0,0-20.28.46c-11.48,3.38-13.78,11.51-12,17.48,2.28,7.75,8.94,10,23.49,11.55,17.2,1.74,27.24,7.21,31.14,20.48,3.47,11.78-1.48,25.23-16.1,32.28l4.57,15.51Z"/>
          </g>
          <g>
            <polygon class="cls-6" points="1369.13 1029.53 1269.63 1100.06 956.77 1321.85 924.37 1344.81 949.03 1379.9 1085.84 1574.57 1325.08 1404.63 1446.87 1318.12 1448.31 1317.11 1460.64 1159.75 1369.13 1029.53"/>
            <path class="cls-7" d="M1442.15,1215.66l-61.94-88.14a47.28,47.28,0,0,1-65.86-11.49l-290,206.54a47.28,47.28,0,0,1-11.5,65.87l61.95,88.14a47.28,47.28,0,0,1,65.86,11.49l290-206.54A47.28,47.28,0,0,1,1442.15,1215.66Z"/>
            <circle class="cls-6" cx="1240.53" cy="1296" r="78.48" transform="matrix(0.82, -0.57, 0.57, 0.82, -519.61, 948.95)"/>
            <polygon class="cls-6" points="1460.64 1159.75 1372.07 1244.45 1446.87 1318.12 1448.13 1319.36 1448.31 1317.11 1460.64 1159.75"/>
            <g>
              <polygon class="cls-8" points="1415.63 1340.08 1372.07 1244.45 1446.87 1318.12 1415.63 1340.08"/>
              <polygon class="cls-8" points="1460.64 1159.75 1372.07 1244.45 1454.57 1151.12 1460.64 1159.75"/>
            </g>
            <path class="cls-8" d="M1269.64,1100.06,956.77,1321.85,949,1379.9l136.81,194.67,239.24-169.94-12.22-46.29c-4.62-17.49-35.62-25.22-74.88-20.78Z"/>
            <rect class="cls-6" x="760.27" y="1143.2" width="655.75" height="280.82" transform="translate(-327.97 2192.62) rotate(-82.41)"/>
            <path class="cls-7" d="M1178.61,1012.59l-106.78-14.23a47.28,47.28,0,0,1-53.1,40.62l-61.66,462.55a47.28,47.28,0,0,1,40.62,53.11l106.78,14.23a47.28,47.28,0,0,1,53.1-40.61l61.66-462.55A47.28,47.28,0,0,1,1178.61,1012.59Z"/>
            <circle class="cls-6" cx="1093.26" cy="1286.43" r="78.48" transform="translate(-326.33 2200.14) rotate(-82.41)"/>
            <path class="cls-6" d="M1188,1360.06l-267.46,70.59,71.66,271.52,267.46-70.59-50.43-191.08c53.43-14.31,91.92-43.64,86.08-65.74s-53.78-28.62-107.31-14.7Z"/>
            <rect class="cls-7" x="1071.02" y="1354.61" width="197.58" height="310.94" transform="translate(8.25 3026.51) rotate(-104.78)"/>
            <circle class="cls-6" cx="1152.5" cy="1514.65" r="70.1" transform="translate(-348.37 344.26) rotate(-14.79)"/>
            <path class="cls-8" d="M1188,1360.06l-27.4,7.23,71.66,271.52,124.1-32.75-61-231.3c-5.83-22.09-53.78-28.62-107.31-14.7Z"/>
            <path class="cls-6" d="M1295.3,1374.77c5.83,22.09-32.65,51.43-86.08,65.74L1280.88,1712h0c53.43-14.31,91.9-43.64,86.07-65.74Z"/>
            <path class="cls-7" d="M1308.23,1423.77c2.58,9.77-4,20.7-16.1,29.19,3.58,15.08-4.76,30.14-18.9,33.87l-.07,0,36.23,137.28.07,0c13-3.43,26.44,3.87,31.89,16.6,12.26-8.52,19-19.54,16.38-29.39Z"/>
          </g>
          <g>
            <path class="cls-9" d="M977.16,1805.12l-393.48.25a112.37,112.37,0,0,1-112.45-112.3l-.61-962.91a112.38,112.38,0,0,1,112.3-112.45l393.48-.25a112.37,112.37,0,0,1,112.45,112.3l.61,962.91A112.37,112.37,0,0,1,977.16,1805.12Z"/>
            <path class="cls-5" d="M981.21,1785.87l-401.62.25a79,79,0,0,1-79.07-79l-.62-984a79,79,0,0,1,79-79.07l401.62-.25a79,79,0,0,1,79.07,79l.62,984A79,79,0,0,1,981.21,1785.87Z"/>
            <path class="cls-9" d="M467,932.55h0A17.53,17.53,0,0,1,449.44,915V824.1A17.53,17.53,0,0,1,467,806.57h0a17.53,17.53,0,0,1,17.53,17.53V915A17.53,17.53,0,0,1,467,932.55Z"/>
            <path class="cls-9" d="M1092.22,932.55h0A17.53,17.53,0,0,1,1074.69,915V824.1a17.53,17.53,0,0,1,17.53-17.53h0a17.53,17.53,0,0,1,17.53,17.53V915A17.53,17.53,0,0,1,1092.22,932.55Z"/>
          </g>
          <g>
            <path class="cls-9" d="M2042,1805.12l-393.49.25a112.37,112.37,0,0,1-112.45-112.3l-.61-962.91a112.37,112.37,0,0,1,112.3-112.45l393.49-.25a112.37,112.37,0,0,1,112.45,112.3l.61,962.91A112.37,112.37,0,0,1,2042,1805.12Z"/>
            <path class="cls-5" d="M2046.07,1785.87l-401.62.25a79,79,0,0,1-79.07-79l-.62-984a79,79,0,0,1,79-79.07l401.62-.25a79,79,0,0,1,79.07,79l.62,984A79,79,0,0,1,2046.07,1785.87Z"/>
            <path class="cls-9" d="M1531.83,932.55h0A17.53,17.53,0,0,1,1514.3,915V824.1a17.53,17.53,0,0,1,17.53-17.53h0a17.53,17.53,0,0,1,17.53,17.53V915A17.53,17.53,0,0,1,1531.83,932.55Z"/>
            <path class="cls-9" d="M2157.08,932.55h0A17.53,17.53,0,0,1,2139.54,915V824.1a17.53,17.53,0,0,1,17.53-17.53h0a17.53,17.53,0,0,1,17.53,17.53V915A17.53,17.53,0,0,1,2157.08,932.55Z"/>
            <path class="cls-9" d="M1531.83,1067h0a17.53,17.53,0,0,1-17.53-17.53V958.58A17.53,17.53,0,0,1,1531.83,941h0a17.53,17.53,0,0,1,17.53,17.53v90.91A17.53,17.53,0,0,1,1531.83,1067Z"/>
          </g>
          <g>
            <g>
              <path class="cls-10" d="M286.15,1743.92c-13.22,55.52-60.48,25-50.6,60.07a6.28,6.28,0,0,0,5.87,4.42l27.75,1.06a12.49,12.49,0,0,0,7.53-2.18c14.64-10,24.57-24.14,56.19-25.86-.24-13.5.37-32.77-4.09-39.66Z"/>
              <path class="cls-11" d="M359.28,1354.34s-80.7,123.09-91.84,161.37,12.16,103.16,7.95,233.91c25.22,6.55,58.86.92,58.86.92s20.24-164-3.57-202.72C366.35,1493.38,456,1374.54,456,1374.54Z"/>
            </g>
            <g>
              <path class="cls-10" d="M404,1761.82c-20.53,28-71.79,11.42-69.74,48.94,77.69-1.24,110-1.07,110-1.07-.19-8.62-1.92-29.07-3.79-37.06Z"/>
              <path class="cls-9" d="M380,1329.45s-25.73,200.81-19.79,240.24,24.35,70.29,25,201.1c25.45,5.61,64.34,10.64,64.34,10.64s16.4-157.77-17.33-201.21c9.56-64.38,55.12-226.3,55.12-226.3Z"/>
            </g>
            <g>
              <path class="cls-12" d="M248.13,1241.05l-31.37-35.18a3.68,3.68,0,0,0-2.67-1.22l-25.83-.15c-.74,0-3,4.07-2.52,4.62l22.13,19.66a.84.84,0,0,0,.38.24l38,14.08C247,1243.35,248.7,1241.68,248.13,1241.05Z"/>
              <path class="cls-13" d="M245.73,1243.41l-29.89-33.17a3.68,3.68,0,0,0-2.67-1.22l-26.63-.48a.84.84,0,0,0-.64,1.4l21,23.2a.84.84,0,0,0,.38.24l37.54,11.38A.84.84,0,0,0,245.73,1243.41Z"/>
              <path class="cls-14" d="M304.79,1273.66l-21.62-10.6s-21.32-21.58-24.49-26.4c-4.74-2.4-13.72-8.44-15.73-8.67a33.24,33.24,0,0,0-6.15.39l10,11.38s-4.75.94-10.82-2.91-16.78-14.18-22-12.18l-1.86,1.64s-3.31-3.54-6.44-2.22,3.09,16.89,20.71,33.4c1.17,4.41,7,12.13,7,12.13L269,1282.16Z"/>
              <ellipse class="cls-12" cx="212.75" cy="1213.47" rx="2.51" ry="3.24" transform="translate(-795.69 505.78) rotate(-45)"/>
              <path class="cls-14" d="M405.44,1114.71c-6.41,8.31,43.82,17.35,50.56.08s-4.83-64.79-4.83-64.79l-45.8,9.72S413.79,1103.9,405.44,1114.71Z"/>
              <g>
                <ellipse class="cls-14" cx="408.92" cy="1016.7" rx="52.55" ry="66.9" transform="translate(-103.88 48.23) rotate(-5.99)"/>
                <circle cx="368.57" cy="1031.15" r="5.47" transform="translate(-726.47 1029.66) rotate(-70.25)"/>
                <circle cx="404.01" cy="1023.16" r="5.92" transform="translate(-695.49 1057.75) rotate(-70.25)"/>
                <path class="cls-15" d="M384.16,1031.86c-1.16,8.61-2.77,19.21-2.77,19.21s5.66,6,15,1.84c-4.69.15-9.81-.74-10.58-6.74S384.16,1031.86,384.16,1031.86Z"/>
                <path class="cls-16" d="M372.11,1020.51a2.1,2.1,0,0,1-2.08,0,6.11,6.11,0,0,0-4.48-.38c-1.5.57-2.71,2.05-3.58,4.39a2.1,2.1,0,1,1-3.93-1.46c1.32-3.55,3.36-5.86,6.07-6.87a10.35,10.35,0,0,1,7.92.64,2.1,2.1,0,0,1,.07,3.64Z"/>
                <path class="cls-16" d="M399.4,1014.53a2.1,2.1,0,0,0,2-.64,6.11,6.11,0,0,1,4.11-1.84c1.61,0,3.24,1,4.83,3a2.1,2.1,0,0,0,3.23-2.67c-2.41-2.92-5.1-4.43-8-4.49a10.35,10.35,0,0,0-7.27,3.21,2.1,2.1,0,0,0,1.13,3.46Z"/>
                <path class="cls-16" d="M450.45,1034.55c-19-15.92-13.76-40.24-13.76-40.24-9.22.6-11.8,4.55-11.8,4.55-7.41-8.51-5.61-16.53-5.61-16.53-20-2.18-25.83,12-41.09,20.3-20.89,11.42-50.88,9.94-60.82-16.63a4.82,4.82,0,0,1,6.11-6.26,21.27,21.27,0,0,0,13.13.28,22.72,22.72,0,0,1-8.31-11.26,4.82,4.82,0,0,1,6.71-5.7c5.69,2.61,15.29,3.95,29.88-3.07,9.71-4.67,28.71-27.35,44.15-28.09,12.63-.6,24.82,7,32.8,20.43,0,0,30.12-4.86,41.75,26.6,11.42,30.9-31.39,78.65-31.39,78.65S455.48,1039.45,450.45,1034.55Z"/>
                <path class="cls-3" d="M386.49,1067A1.61,1.61,0,0,1,387,1064a114,114,0,0,0,28.36-10.63,1.61,1.61,0,0,1,2.28,1.88c-1.2,4.19-4.36,11.05-12.47,14.09S390.15,1069.34,386.49,1067Z"/>
                <g>
                  <ellipse class="cls-14" cx="445.96" cy="1022.07" rx="15.73" ry="12.87" transform="translate(-589.33 607.72) rotate(-44.61)"/>
                  <path class="cls-15" d="M442.93,1030.52a1.89,1.89,0,0,1-.73-.48c-3-3.17-3.73-7.05-1.89-10.38a9.16,9.16,0,0,1,9.56-4.59,1.9,1.9,0,0,1-.76,3.72,5.42,5.42,0,0,0-5.47,2.71c-1,1.85-.56,4,1.32,5.92a1.9,1.9,0,0,1-2,3.1Z"/>
                </g>
              </g>
              <path class="cls-6" d="M349.61,1369.08c35.83,7.31,100.25,19.93,134.32,6.65,12.89-18.51,16.16-123.18,16.16-123.18,3.73-107.74-9.19-123.73-38.33-159.82-12.23,5.62-42.83,10.41-56.29,10.51,0,0-30.49,42.33-36.44,73.07-6,31.17-6.71,86.58-7.27,118.32C361.14,1329.88,354.17,1346.87,349.61,1369.08Z"/>
              <path class="cls-10" d="M466,1125.43c21,40.8,16.21,86-44.73,174.93-42.68-3.72-51-39.29-51-39.29s11.73-44.16,27-99.71S456.83,1107.57,466,1125.43Z"/>
              <path class="cls-10" d="M279.69,1252.55l91.37,7.29s39.19-7.15,50.21,40.52c-19.61,15.27-70.24,21-153.28-9.83C276.78,1278.56,279.69,1252.55,279.69,1252.55Z"/>
              <polygon class="cls-3" points="405.75 1100.21 404.88 1124.79 466.7 1098.87 459.21 1078.99 405.75 1100.21"/>
            </g>
          </g>
          <g>
            <circle class="cls-17" cx="783.61" cy="468.16" r="91.2" transform="translate(40.44 998.19) rotate(-66.35)"/>
            <path class="cls-18" d="M852.23,498.21c-18,42.26-71.77,58-109.85,32.51a75.08,75.08,0,0,1-32.83-74c7.08-48.57,60.33-77,104.1-57.21C850.91,415.49,869.08,460.44,852.23,498.21Z"/>
            <path class="cls-17" d="M778.48,531.15l0-15.51c-8.91-.13-18.13-2.87-23.51-6.69l3.66-10.3a40.92,40.92,0,0,0,22.13,6.54c10.9,0,18.25-6.35,18.23-15.1,0-8.44-6-13.65-17.4-18.22-15.68-6.1-25.37-13.13-25.41-26.49,0-12.74,9-22.44,23.11-24.79l0-15.51,9.52,0,0,14.89c9.21.28,15.52,2.72,20,5.32l-3.81,10.14a37.11,37.11,0,0,0-19.36-5.17c-11.82,0-16.26,7.11-16.24,13.25,0,8,5.71,12,19.09,17.45,15.83,6.4,23.84,14.37,23.88,28,0,12.13-8.38,23.52-24.19,26.17l0,16Z"/>
          </g>
          <g>
            <circle class="cls-17" cx="947.2" cy="203.6" r="91.2" transform="translate(380.78 989.6) rotate(-66.35)"/>
            <path class="cls-18" d="M1015.83,233.64c-18,42.26-71.77,58-109.85,32.51a75.08,75.08,0,0,1-32.83-74c7.08-48.57,60.33-77,104.1-57.21C1014.51,150.92,1032.68,195.87,1015.83,233.64Z"/>
            <path class="cls-17" d="M942.07,266.58l0-15.51c-8.91-.13-18.13-2.87-23.51-6.69l3.66-10.3a40.93,40.93,0,0,0,22.13,6.54c10.9,0,18.25-6.35,18.23-15.1,0-8.45-6-13.65-17.4-18.22-15.68-6.1-25.37-13.13-25.41-26.49,0-12.74,9-22.44,23.11-24.78l0-15.51,9.52,0,0,14.89c9.21.28,15.51,2.72,20,5.32l-3.81,10.14a37.11,37.11,0,0,0-19.36-5.17c-11.82,0-16.26,7.11-16.24,13.25,0,8,5.71,12,19.09,17.45,15.83,6.4,23.84,14.37,23.88,28,0,12.13-8.38,23.52-24.19,26.17l0,16Z"/>
          </g>
          <g>
            <circle class="cls-17" cx="1643.36" cy="203.6" r="91.2" transform="translate(797.7 1627.3) rotate(-66.35)"/>
            <path class="cls-18" d="M1712,233.64c-18,42.26-71.77,58-109.85,32.51a75.08,75.08,0,0,1-32.83-74c7.08-48.57,60.33-77,104.1-57.21C1710.66,150.92,1728.83,195.87,1712,233.64Z"/>
            <path class="cls-17" d="M1638.23,266.58l0-15.51c-8.91-.13-18.13-2.87-23.51-6.69l3.66-10.3a40.93,40.93,0,0,0,22.13,6.54c10.9,0,18.25-6.35,18.23-15.1,0-8.45-6-13.65-17.4-18.22-15.68-6.1-25.37-13.13-25.41-26.49,0-12.74,9-22.44,23.12-24.78l0-15.51,9.52,0,0,14.89c9.21.28,15.52,2.72,20,5.32l-3.81,10.14a37.11,37.11,0,0,0-19.36-5.17c-11.82,0-16.25,7.11-16.24,13.25,0,8,5.71,12,19.09,17.45,15.83,6.4,23.84,14.37,23.88,28,0,12.13-8.38,23.52-24.19,26.17l0,16Z"/>
          </g>
          <g>
            <circle class="cls-17" cx="1829.21" cy="468.16" r="91.2" transform="translate(666.65 1955.99) rotate(-66.35)"/>
            <path class="cls-18" d="M1897.84,498.21c-18,42.26-71.77,58-109.85,32.51a75.08,75.08,0,0,1-32.83-74c7.08-48.57,60.33-77,104.1-57.21C1896.52,415.49,1914.69,460.44,1897.84,498.21Z"/>
            <path class="cls-17" d="M1824.09,531.15l0-15.51c-8.91-.13-18.13-2.87-23.51-6.69l3.66-10.3a40.92,40.92,0,0,0,22.13,6.54c10.9,0,18.25-6.35,18.23-15.1,0-8.44-6-13.65-17.4-18.22-15.68-6.1-25.37-13.13-25.41-26.49,0-12.74,9-22.44,23.12-24.79l0-15.51,9.52,0,0,14.89c9.21.28,15.52,2.72,20,5.32l-3.81,10.14a37.11,37.11,0,0,0-19.36-5.17c-11.82,0-16.25,7.11-16.24,13.25,0,8,5.71,12,19.09,17.45,15.83,6.4,23.84,14.37,23.88,28,0,12.13-8.38,23.52-24.19,26.17l0,16Z"/>
          </g>
          <g>
            <circle class="cls-17" cx="1322.22" cy="91.22" r="91.2" transform="translate(708.32 1265.83) rotate(-66.35)"/>
            <path class="cls-18" d="M1390.84,121.27c-18,42.26-71.77,58-109.85,32.51a75.08,75.08,0,0,1-32.83-74c7.08-48.57,60.33-77,104.1-57.21C1389.53,38.55,1407.7,83.5,1390.84,121.27Z"/>
            <path class="cls-17" d="M1317.09,154.21l0-15.51c-8.91-.13-18.13-2.87-23.51-6.69l3.66-10.3a40.91,40.91,0,0,0,22.13,6.54c10.9,0,18.25-6.35,18.23-15.1,0-8.44-6-13.65-17.4-18.22-15.68-6.1-25.37-13.13-25.41-26.49,0-12.74,9-22.44,23.11-24.78l0-15.51,9.52,0,0,14.89c9.21.28,15.52,2.72,20,5.32l-3.81,10.14a37.11,37.11,0,0,0-19.36-5.17c-11.82,0-16.26,7.11-16.24,13.25,0,8,5.71,12,19.09,17.45,15.83,6.4,23.84,14.37,23.88,28,0,12.13-8.38,23.52-24.19,26.17l0,16Z"/>
          </g>
          <g>
            <g>
              <path class="cls-5" d="M1683.89,610.77a8,8,0,0,1-8-8c0-6.52-.17-13.1-.5-19.59a8,8,0,1,1,16-.81c.34,6.75.52,13.62.52,20.4A8,8,0,0,1,1683.89,610.77Z"/>
              <path class="cls-5" d="M1679.22,550.51a8,8,0,0,1-7.89-6.76,378.2,378.2,0,0,0-8.18-38.77,8,8,0,1,1,15.46-4.12,394,394,0,0,1,8.52,40.41,8,8,0,0,1-6.67,9.14A8.14,8.14,0,0,1,1679.22,550.51Zm-763.58-.34a8,8,0,0,1-7.91-9.25,394.15,394.15,0,0,1,8.56-40.41,8,8,0,0,1,15.46,4.14,377.74,377.74,0,0,0-8.21,38.76A8,8,0,0,1,915.63,550.18Zm742.76-77.76a8,8,0,0,1-7.47-5.14,377.76,377.76,0,0,0-16.12-36.21,8,8,0,0,1,14.25-7.27,394.08,394.08,0,0,1,16.81,37.75,8,8,0,0,1-7.47,10.87Zm-721.88-.3a8,8,0,0,1-7.47-10.87,393.88,393.88,0,0,1,16.82-37.7,8,8,0,0,1,14.25,7.28A377.81,377.81,0,0,0,944,467,8,8,0,0,1,936.52,472.11Zm685.16-71.72a8,8,0,0,1-6.71-3.64,381.42,381.42,0,0,0-23.31-32.06,8,8,0,0,1,12.43-10.07A397.66,397.66,0,0,1,1628.38,388a8,8,0,0,1-6.7,12.36Zm-648.42-.22a8,8,0,0,1-6.7-12.37,397.42,397.42,0,0,1,24.31-33.38,8,8,0,0,1,12.43,10.08,381.41,381.41,0,0,0-23.32,32A8,8,0,0,1,973.26,400.17Zm597.54-62.59a8,8,0,0,1-5.66-2.35,382.31,382.31,0,0,0-29.43-26.54,8,8,0,0,1,10.08-12.42,398.78,398.78,0,0,1,30.67,27.65,8,8,0,0,1-5.66,13.65Zm-546.62-.17a8,8,0,0,1-5.66-13.66,398.08,398.08,0,0,1,30.69-27.64,8,8,0,0,1,10.07,12.43,382.35,382.35,0,0,0-29.45,26.52A8,8,0,0,1,1024.17,337.4ZM1508,286.66a8,8,0,0,1-4.36-1.3,379.92,379.92,0,0,0-34.28-19.85,8,8,0,0,1,7.28-14.25A396,396,0,0,1,1512.4,272a8,8,0,0,1-4.37,14.71Zm-421-.14a8,8,0,0,1-4.37-14.71,395.73,395.73,0,0,1,35.77-20.68,8,8,0,0,1,7.27,14.25,379.32,379.32,0,0,0-34.31,19.84A8,8,0,0,1,1087,286.52Zm349.12-36.61a8,8,0,0,1-2.87-.54,376.73,376.73,0,0,0-37.68-12.25,8,8,0,0,1,4.14-15.46A393.09,393.09,0,0,1,1439,234.44a8,8,0,0,1-2.87,15.47ZM1159,249.79a8,8,0,0,1-2.87-15.47,393,393,0,0,1,39.31-12.75,8,8,0,1,1,4.13,15.46,376.75,376.75,0,0,0-37.7,12.23A8,8,0,0,1,1159,249.79ZM1358,229a8.06,8.06,0,0,1-1.25-.1,381.58,381.58,0,0,0-39.41-4.11,8,8,0,0,1,.83-16,397.81,397.81,0,0,1,41.07,4.29A8,8,0,0,1,1358,229Zm-121-.05a8,8,0,0,1-1.23-15.9,397.49,397.49,0,0,1,41.08-4.25,8,8,0,1,1,.82,16,381.42,381.42,0,0,0-39.42,4.08A8.11,8.11,0,0,1,1237.08,229Z"/>
              <path class="cls-5" d="M910.9,610.77a8,8,0,0,1-8-8c0-6.78.17-13.65.52-20.4a8,8,0,1,1,16,.81c-.33,6.48-.5,13.07-.5,19.59A8,8,0,0,1,910.9,610.77Z"/>
            </g>
            <g>
              <path class="cls-5" d="M1019.19,610.77a8,8,0,0,1-8-8c0-6.84.24-13.75.73-20.55a8,8,0,1,1,16,1.13c-.46,6.42-.69,13-.69,19.42A8,8,0,0,1,1019.19,610.77Z"/>
              <path class="cls-5" d="M1025.52,551.5a8,8,0,0,1-7.83-9.7,285.09,285.09,0,0,1,11.51-39.19,8,8,0,1,1,15,5.6,269,269,0,0,0-10.86,37A8,8,0,0,1,1025.52,551.5Zm543.7-.21a8,8,0,0,1-7.81-6.3,269.17,269.17,0,0,0-10.88-37,8,8,0,1,1,15-5.61A285.15,285.15,0,0,1,1577,541.59a8,8,0,0,1-7.82,9.7Zm-516-74a8,8,0,0,1-7-11.84,287.53,287.53,0,0,1,22.11-34.32,8,8,0,1,1,12.8,9.6,271.51,271.51,0,0,0-20.88,32.4A8,8,0,0,1,1053.21,477.33Zm488.29-.14a8,8,0,0,1-7-4.16,271.45,271.45,0,0,0-20.88-32.37,8,8,0,1,1,12.79-9.61,287.45,287.45,0,0,1,22.12,34.29,8,8,0,0,1-7,11.85ZM1100.72,414a8,8,0,0,1-5.65-13.66,288.65,288.65,0,0,1,30.84-26.73,8,8,0,0,1,9.6,12.8,272.52,272.52,0,0,0-29.12,25.24A8,8,0,0,1,1100.72,414Zm393.26-.09a8,8,0,0,1-5.65-2.34,272.75,272.75,0,0,0-29.14-25.23,8,8,0,0,1,9.59-12.81,288.65,288.65,0,0,1,30.85,26.72,8,8,0,0,1-5.65,13.66Zm-329.92-47.37a8,8,0,0,1-3.85-15,285.74,285.74,0,0,1,37.1-17,8,8,0,0,1,5.6,15,269.79,269.79,0,0,0-35,16A8,8,0,0,1,1164.06,366.54Zm266.54-.07a8,8,0,0,1-3.83-1,269.81,269.81,0,0,0-35.06-16,8,8,0,1,1,5.59-15,285.79,285.79,0,0,1,37.15,17,8,8,0,0,1-3.84,15Zm-192.43-27.59a8,8,0,0,1-1.69-15.82,287.14,287.14,0,0,1,40.4-5.77,8,8,0,1,1,1.13,16,271,271,0,0,0-38.14,5.45A8,8,0,0,1,1238.18,338.88Zm118.24,0a8.07,8.07,0,0,1-1.7-.18,271.06,271.06,0,0,0-38.14-5.42,8,8,0,1,1,1.12-16,286.92,286.92,0,0,1,40.41,5.74,8,8,0,0,1-1.68,15.82Z"/>
              <path class="cls-5" d="M1575.6,610.77a8,8,0,0,1-8-8c0-6.47-.23-13-.69-19.42a8,8,0,1,1,16-1.13c.48,6.79.73,13.71.73,20.55A8,8,0,0,1,1575.6,610.77Z"/>
            </g>
            <path class="cls-5" d="M1682.48,615.45h-.1a5,5,0,0,1-3.91-2l-51.06-68.67a5,5,0,0,1,8-6l47.21,63.49,47-58.36a5,5,0,0,1,7.78,6.27l-51.06,63.39A5,5,0,0,1,1682.48,615.45Z"/>
            <path class="cls-5" d="M1019,615.45h-.1a5,5,0,0,1-3.91-2L964,544.77a5,5,0,0,1,8-6l47.21,63.49,47-58.36a5,5,0,0,1,7.78,6.27l-51.06,63.39A5,5,0,0,1,1019,615.45Z"/>
          </g>
          <g>
            <g>
              <g>
                <path class="cls-18" d="M2034.25,1692.88v20.26a14.34,14.34,0,0,1-14.33,14.33H1772.65a14.34,14.34,0,0,1-14.33-14.33v-20.26a14.33,14.33,0,0,1,14.33-14.33h247.27a14.33,14.33,0,0,1,14.33,14.33Z"/>
                <rect class="cls-17" x="1772.02" y="1678.54" width="7.18" height="48.93"/>
                <rect class="cls-17" x="1802.14" y="1678.54" width="7.18" height="48.93"/>
                <rect class="cls-17" x="1832.26" y="1678.54" width="7.18" height="48.93"/>
                <rect class="cls-17" x="1862.38" y="1678.54" width="7.18" height="48.93"/>
                <rect class="cls-17" x="1892.5" y="1678.54" width="7.18" height="48.93"/>
                <rect class="cls-17" x="1922.61" y="1678.54" width="7.18" height="48.93"/>
                <rect class="cls-17" x="1952.73" y="1678.54" width="7.18" height="48.93"/>
                <rect class="cls-17" x="1982.85" y="1678.54" width="7.18" height="48.93"/>
                <rect class="cls-17" x="2012.97" y="1678.54" width="7.18" height="48.93"/>
                <path class="cls-17" d="M2030.87,1683.62H1761.7a14.31,14.31,0,0,1,10.95-5.08h247.27A14.31,14.31,0,0,1,2030.87,1683.62Z"/>
                <path class="cls-17" d="M2030.87,1722.39H1761.7a14.31,14.31,0,0,0,10.95,5.08h247.27A14.31,14.31,0,0,0,2030.87,1722.39Z"/>
              </g>
              <g>
                <path class="cls-18" d="M2051.55,1643.95v20.26a14.34,14.34,0,0,1-14.33,14.33H1789.94a14.34,14.34,0,0,1-14.33-14.33v-20.26a14.33,14.33,0,0,1,14.33-14.33h247.27a14.33,14.33,0,0,1,14.33,14.33Z"/>
                <rect class="cls-17" x="1789.31" y="1629.62" width="7.18" height="48.92"/>
                <rect class="cls-17" x="1819.43" y="1629.62" width="7.18" height="48.92"/>
                <rect class="cls-17" x="1849.55" y="1629.62" width="7.18" height="48.92"/>
                <rect class="cls-17" x="1879.67" y="1629.62" width="7.18" height="48.92"/>
                <rect class="cls-17" x="1909.79" y="1629.62" width="7.18" height="48.92"/>
                <rect class="cls-17" x="1939.91" y="1629.62" width="7.18" height="48.92"/>
                <rect class="cls-17" x="1970.03" y="1629.62" width="7.18" height="48.92"/>
                <rect class="cls-17" x="2000.15" y="1629.62" width="7.18" height="48.92"/>
                <rect class="cls-17" x="2030.27" y="1629.62" width="7.18" height="48.92"/>
                <path class="cls-17" d="M2048.16,1634.7H1779a14.31,14.31,0,0,1,10.95-5.08h247.27A14.31,14.31,0,0,1,2048.16,1634.7Z"/>
                <path class="cls-17" d="M2048.16,1673.46H1779a14.31,14.31,0,0,0,10.95,5.08h247.27A14.31,14.31,0,0,0,2048.16,1673.46Z"/>
              </g>
              <g>
                <path class="cls-18" d="M2038.14,1595.11v20.26a14.34,14.34,0,0,1-14.33,14.33H1776.53a14.33,14.33,0,0,1-14.33-14.33v-20.26a14.33,14.33,0,0,1,14.33-14.33H2023.8a14.33,14.33,0,0,1,14.33,14.33Z"/>
                <rect class="cls-17" x="1775.9" y="1580.77" width="7.18" height="48.92"/>
                <rect class="cls-17" x="1806.02" y="1580.77" width="7.18" height="48.92"/>
                <rect class="cls-17" x="1836.14" y="1580.77" width="7.18" height="48.92"/>
                <rect class="cls-17" x="1866.26" y="1580.77" width="7.18" height="48.92"/>
                <rect class="cls-17" x="1896.38" y="1580.77" width="7.18" height="48.92"/>
                <rect class="cls-17" x="1926.5" y="1580.77" width="7.18" height="48.92"/>
                <rect class="cls-17" x="1956.62" y="1580.77" width="7.18" height="48.92"/>
                <rect class="cls-17" x="1986.74" y="1580.77" width="7.18" height="48.92"/>
                <rect class="cls-17" x="2016.86" y="1580.77" width="7.18" height="48.92"/>
                <path class="cls-17" d="M2034.75,1585.85H1765.58a14.31,14.31,0,0,1,10.95-5.08H2023.8A14.31,14.31,0,0,1,2034.75,1585.85Z"/>
                <path class="cls-17" d="M2034.75,1624.62H1765.58a14.31,14.31,0,0,0,10.95,5.08H2023.8A14.31,14.31,0,0,0,2034.75,1624.62Z"/>
              </g>
              <g>
                <path class="cls-18" d="M2043.66,1547.15v20.26a14.34,14.34,0,0,1-14.33,14.33H1782.05a14.34,14.34,0,0,1-14.33-14.33v-20.26a14.33,14.33,0,0,1,14.33-14.33h247.27a14.33,14.33,0,0,1,14.33,14.33Z"/>
                <rect class="cls-17" x="1781.42" y="1532.82" width="7.18" height="48.92"/>
                <rect class="cls-17" x="1811.54" y="1532.82" width="7.18" height="48.92"/>
                <rect class="cls-17" x="1841.66" y="1532.82" width="7.18" height="48.92"/>
                <rect class="cls-17" x="1871.78" y="1532.82" width="7.18" height="48.92"/>
                <rect class="cls-17" x="1901.9" y="1532.82" width="7.18" height="48.92"/>
                <rect class="cls-17" x="1932.02" y="1532.82" width="7.18" height="48.92"/>
                <rect class="cls-17" x="1962.14" y="1532.82" width="7.18" height="48.92"/>
                <rect class="cls-17" x="1992.26" y="1532.82" width="7.18" height="48.92"/>
                <rect class="cls-17" x="2022.38" y="1532.82" width="7.18" height="48.92"/>
                <path class="cls-17" d="M2040.27,1537.9H1771.1a14.31,14.31,0,0,1,10.95-5.08h247.27A14.31,14.31,0,0,1,2040.27,1537.9Z"/>
                <path class="cls-17" d="M2040.27,1576.66H1771.1a14.31,14.31,0,0,0,10.95,5.08h247.27A14.31,14.31,0,0,0,2040.27,1576.66Z"/>
              </g>
              <g>
                <path class="cls-18" d="M2012.83,1497.49v20.26a14.34,14.34,0,0,1-14.33,14.33H1751.23a14.34,14.34,0,0,1-14.33-14.33v-20.26a14.33,14.33,0,0,1,14.33-14.33H1998.5a14.33,14.33,0,0,1,14.33,14.33Z"/>
                <rect class="cls-17" x="1750.6" y="1483.16" width="7.18" height="48.93"/>
                <rect class="cls-17" x="1780.72" y="1483.16" width="7.18" height="48.93"/>
                <rect class="cls-17" x="1810.84" y="1483.16" width="7.18" height="48.93"/>
                <rect class="cls-17" x="1840.96" y="1483.16" width="7.18" height="48.93"/>
                <rect class="cls-17" x="1871.07" y="1483.16" width="7.18" height="48.93"/>
                <rect class="cls-17" x="1901.19" y="1483.16" width="7.18" height="48.93"/>
                <rect class="cls-17" x="1931.31" y="1483.16" width="7.18" height="48.93"/>
                <rect class="cls-17" x="1961.43" y="1483.16" width="7.18" height="48.93"/>
                <rect class="cls-17" x="1991.55" y="1483.16" width="7.18" height="48.93"/>
                <path class="cls-17" d="M2009.45,1488.24H1740.28a14.31,14.31,0,0,1,10.95-5.08H1998.5A14.31,14.31,0,0,1,2009.45,1488.24Z"/>
                <path class="cls-17" d="M2009.45,1527H1740.28a14.31,14.31,0,0,0,10.95,5.08H1998.5A14.31,14.31,0,0,0,2009.45,1527Z"/>
              </g>
              <g>
                <path class="cls-18" d="M2043.16,1449.14v20.26a14.34,14.34,0,0,1-14.33,14.33H1781.56a14.34,14.34,0,0,1-14.33-14.33v-20.26a14.33,14.33,0,0,1,14.33-14.33h247.27a14.33,14.33,0,0,1,14.33,14.33Z"/>
                <rect class="cls-17" x="1780.93" y="1434.8" width="7.18" height="48.92"/>
                <rect class="cls-17" x="1811.05" y="1434.8" width="7.18" height="48.92"/>
                <rect class="cls-17" x="1841.17" y="1434.8" width="7.18" height="48.92"/>
                <rect class="cls-17" x="1871.29" y="1434.8" width="7.18" height="48.92"/>
                <rect class="cls-17" x="1901.41" y="1434.8" width="7.18" height="48.92"/>
                <rect class="cls-17" x="1931.53" y="1434.8" width="7.18" height="48.92"/>
                <rect class="cls-17" x="1961.65" y="1434.8" width="7.18" height="48.92"/>
                <rect class="cls-17" x="1991.76" y="1434.8" width="7.18" height="48.92"/>
                <rect class="cls-17" x="2021.88" y="1434.8" width="7.18" height="48.92"/>
                <path class="cls-17" d="M2039.78,1439.88H1770.61a14.31,14.31,0,0,1,10.95-5.08h247.27A14.31,14.31,0,0,1,2039.78,1439.88Z"/>
                <path class="cls-17" d="M2039.78,1478.65H1770.61a14.31,14.31,0,0,0,10.95,5.08h247.27A14.31,14.31,0,0,0,2039.78,1478.65Z"/>
              </g>
              <g>
                <path class="cls-18" d="M2032.41,1400.06v20.26a14.33,14.33,0,0,1-14.33,14.33H1770.8a14.34,14.34,0,0,1-14.33-14.33v-20.26a14.33,14.33,0,0,1,14.33-14.33h247.27a14.33,14.33,0,0,1,14.33,14.33Z"/>
                <rect class="cls-17" x="1770.17" y="1385.73" width="7.18" height="48.93"/>
                <rect class="cls-17" x="1800.29" y="1385.73" width="7.18" height="48.93"/>
                <rect class="cls-17" x="1830.41" y="1385.73" width="7.18" height="48.93"/>
                <rect class="cls-17" x="1860.53" y="1385.73" width="7.18" height="48.93"/>
                <rect class="cls-17" x="1890.65" y="1385.73" width="7.18" height="48.93"/>
                <rect class="cls-17" x="1920.77" y="1385.73" width="7.18" height="48.93"/>
                <rect class="cls-17" x="1950.89" y="1385.73" width="7.18" height="48.93"/>
                <rect class="cls-17" x="1981.01" y="1385.73" width="7.18" height="48.93"/>
                <rect class="cls-17" x="2011.13" y="1385.73" width="7.18" height="48.93"/>
                <path class="cls-17" d="M2029,1390.81H1759.85a14.31,14.31,0,0,1,10.95-5.08h247.27A14.31,14.31,0,0,1,2029,1390.81Z"/>
                <path class="cls-17" d="M2029,1429.57H1759.85a14.32,14.32,0,0,0,10.95,5.08h247.27A14.32,14.32,0,0,0,2029,1429.57Z"/>
              </g>
              <g>
                <path class="cls-18" d="M2047.18,1351.4v20.26a14.34,14.34,0,0,1-14.33,14.33H1785.58a14.34,14.34,0,0,1-14.33-14.33V1351.4a14.33,14.33,0,0,1,14.33-14.33h247.27a14.33,14.33,0,0,1,14.33,14.33Z"/>
                <rect class="cls-17" x="1784.95" y="1337.07" width="7.18" height="48.93"/>
                <rect class="cls-17" x="1815.07" y="1337.07" width="7.18" height="48.93"/>
                <rect class="cls-17" x="1845.19" y="1337.07" width="7.18" height="48.93"/>
                <rect class="cls-17" x="1875.31" y="1337.07" width="7.18" height="48.93"/>
                <rect class="cls-17" x="1905.43" y="1337.07" width="7.18" height="48.93"/>
                <rect class="cls-17" x="1935.55" y="1337.07" width="7.18" height="48.93"/>
                <rect class="cls-17" x="1965.67" y="1337.07" width="7.18" height="48.93"/>
                <rect class="cls-17" x="1995.78" y="1337.07" width="7.18" height="48.93"/>
                <rect class="cls-17" x="2025.9" y="1337.07" width="7.18" height="48.93"/>
                <path class="cls-17" d="M2043.8,1342.15H1774.63a14.31,14.31,0,0,1,10.95-5.08h247.27A14.31,14.31,0,0,1,2043.8,1342.15Z"/>
                <path class="cls-17" d="M2043.8,1380.92H1774.63a14.31,14.31,0,0,0,10.95,5.08h247.27A14.31,14.31,0,0,0,2043.8,1380.92Z"/>
              </g>
            </g>
            <g>
              <circle class="cls-17" cx="1763.7" cy="1582.16" r="147.57" transform="translate(-283.9 2774.31) rotate(-72.1)"/>
              <path class="cls-18" d="M1879,1619.42a121.26,121.26,0,0,1-198.91,50.6,123.29,123.29,0,0,1-8.63-9.12,121.25,121.25,0,0,1,167-174.11A119,119,0,0,1,1848,1495a121.43,121.43,0,0,1,31,124.38Z"/>
              <path class="cls-19" d="M1838.54,1486.78l-167,174.11a121.47,121.47,0,0,1-28.89-85.09l109.7-114.35a121.65,121.65,0,0,1,86.22,25.33Z"/>
              <path class="cls-19" d="M1868.66,1521.54l-161.19,168a120.21,120.21,0,0,1-27.33-19.54L1848,1495A121.05,121.05,0,0,1,1868.66,1521.54Z"/>
              <path class="cls-3" d="M1771.83,1467c-14.32-1.5-16.94-.09-23.37,12.61,1.6-14.15.19-16.76-12.61-23.37,14.32,1.5,16.94.09,23.37-12.61C1757.72,1457.9,1759.13,1460.52,1771.83,1467Z"/>
              <path class="cls-3" d="M1721.15,1694.63c-12.08-1.27-14.29-.08-19.72,10.64,1.35-11.94.16-14.14-10.64-19.72,12.08,1.27,14.29.08,19.72-10.64C1709.24,1687,1710.43,1689.2,1721.15,1694.63Z"/>
            </g>
          </g>
          <g>
            <path class="cls-4" d="M1859.35,1092.26c-89.31,0-162-72.66-162-162s72.66-162,162-162,162,72.66,162,162S1948.65,1092.26,1859.35,1092.26Zm0-315.92c-84.9,0-154,69.07-154,154s69.07,154,154,154,154-69.07,154-154S1944.24,776.34,1859.35,776.34Z"/>
            <path class="cls-4" d="M1859.35,1022.22a21.5,21.5,0,0,1-21.5-21.5V703.55a21.5,21.5,0,0,1,43,0v297.17A21.5,21.5,0,0,1,1859.35,1022.22Z"/>
          </g>
          <g>
            <path class="cls-4" d="M1859.35,1092.26c-89.31,0-162-72.66-162-162s72.66-162,162-162,162,72.66,162,162S1948.65,1092.26,1859.35,1092.26Zm0-315.92c-84.9,0-154,69.07-154,154s69.07,154,154,154,154-69.07,154-154S1944.24,776.34,1859.35,776.34Z"/>
            <g>
              <path class="cls-4" d="M1859.35,1022.22a21.5,21.5,0,0,1-21.5-21.5V703.55a21.5,21.5,0,0,1,43,0v297.17A21.5,21.5,0,0,1,1859.35,1022.22Z"/>
              <path class="cls-4" d="M1860.82,1039.87l-.84,0a21.5,21.5,0,0,1-16.55-8.83l-89.28-114.4a21.5,21.5,0,1,1,34.76-25.31l73.25,92.38L1930.81,890a21.5,21.5,0,1,1,32.69,27.93l-86.33,114.4A21.51,21.51,0,0,1,1860.82,1039.87Z"/>
            </g>
          </g>
          <g>
            <path class="cls-4" d="M786,1075.8c-89.31,0-162-72.66-162-162s72.66-162,162-162,162,72.66,162,162S875.33,1075.8,786,1075.8Zm0-315.92c-84.9,0-154,69.07-154,154s69.07,154,154,154,154-69.07,154-154S870.92,759.87,786,759.87Z"/>
            <g>
              <circle class="cls-4" cx="786.03" cy="913.83" r="117.21"/>
              <path class="cls-5" d="M874.8,963a101.27,101.27,0,0,1-177.55,0,102.14,102.14,0,0,1,48.48-43.68,54.44,54.44,0,1,1,80.59,0A102.14,102.14,0,0,1,874.8,963Z"/>
            </g>
          </g>
          <g>
            <path class="cls-17" d="M2028.3,1191.55l-68-36.54-5.75,10.69h0c-2.78,5.17,10.27,17.58,29.14,27.73s36.42,14.19,39.2,9C2023.19,1202,2028.3,1191.55,2028.3,1191.55Z"/>
            <ellipse class="cls-18" cx="1994.2" cy="1173.95" rx="10.62" ry="38.8" transform="translate(15.75 2374.25) rotate(-61.73)"/>
          </g>
          <g>
            <path class="cls-17" d="M1726.33,1328.88l-68.77,11.17,1.76,10.82h0c.85,5.23,17,7,36.12,3.85s33.89-9.85,33-15.08C1728.4,1339.16,1726.33,1328.88,1726.33,1328.88Z"/>
            <ellipse class="cls-18" cx="1692.23" cy="1335.02" rx="35.03" ry="9.59" transform="translate(-192.13 288.55) rotate(-9.22)"/>
          </g>
          <g>
            <path class="cls-17" d="M1808.5,1208.23,1746,1177.44l-4.84,9.83h0c-2.34,4.75,9.83,15.53,27.19,24.08s33.33,11.63,35.67,6.88C1804.22,1217.8,1808.5,1208.23,1808.5,1208.23Z"/>
            <ellipse class="cls-18" cx="1777.16" cy="1193.45" rx="9.59" ry="35.03" transform="translate(-78.71 2260.39) rotate(-63.78)"/>
          </g>
          <g>
            <path class="cls-17" d="M1715.33,1092.1l-72,11.69,1.84,11.32h0c.89,5.47,17.81,7.28,37.8,4s35.48-10.31,34.59-15.79C1717.49,1102.86,1715.33,1092.1,1715.33,1092.1Z"/>
            <ellipse class="cls-18" cx="1679.63" cy="1098.52" rx="36.67" ry="10.04" transform="translate(-154.39 283.49) rotate(-9.23)"/>
          </g>
          <g>
            <rect class="cls-4" x="528.84" y="1171.32" width="506.8" height="162.58" rx="35.12" ry="35.12"/>
            <g>
              <path class="cls-17" d="M686.27,1229.74v45.74a22.32,22.32,0,0,1-22.32,22.32h-86.5a22.32,22.32,0,0,1-22.31-22.32v-45.74a22.31,22.31,0,0,1,22.31-22.32h86.5a22.34,22.34,0,0,1,22.32,22.32Z"/>
              <path class="cls-5" d="M862.58,1271.22H719a18.61,18.61,0,0,1-18.61-18.61h0A18.61,18.61,0,0,1,719,1234H862.58a18.61,18.61,0,0,1,18.61,18.61h0A18.61,18.61,0,0,1,862.58,1271.22Z"/>
              <path class="cls-7" d="M990.74,1271.22H918.81a18.61,18.61,0,0,1-18.61-18.61h0A18.61,18.61,0,0,1,918.81,1234h71.93a18.6,18.6,0,0,1,18.61,18.61h0A18.61,18.61,0,0,1,990.74,1271.22Z"/>
            </g>
            <path class="cls-18" d="M677.36,1211.91,565.15,1294.1a22.29,22.29,0,0,1-10-18.62v-45.74a22.31,22.31,0,0,1,22.31-22.32h86.5A22.17,22.17,0,0,1,677.36,1211.91Z"/>
            <circle class="cls-13" cx="642.24" cy="1272.08" r="15.01"/>
            <circle class="cls-5" cx="660.06" cy="1272.08" r="15.01"/>
          </g>
          <g>
            <path class="cls-16" d="M2264.67,1067.25c8.72-27.32,6.59-53.81-12.58-71.65-19.43-18.08-50.57-12.41-50.57-12.41h0s-21.79-14.2-49.1,4.39-16,43.46-29,58.69c-7.7,9-34.81,4.74-36,39.86-.34,10.13,9.71,19.41,19.39,22.42,17,5.29,35.84,1.84,40.09,10.83,14.63,30.92,70.83,31.88,82.83,13.47,3.72-5.71,46.81,17.42,52.44-26.19C2285,1084.56,2256.87,1091.66,2264.67,1067.25Z"/>
            <g>
              <ellipse class="cls-14" cx="2201.19" cy="1061.54" rx="61.22" ry="48.08" transform="translate(915.16 3139.58) rotate(-83.99)"/>
              <circle cx="2239.3" cy="1070.12" r="4.62" transform="translate(-113.83 281.18) rotate(-7.01)"/>
              <circle cx="2202.5" cy="1066.42" r="5" transform="translate(-113.72 276.87) rotate(-7.01)"/>
              <path class="cls-16" d="M2193.7,1061.28a1.74,1.74,0,0,0,1-.51c4.16-4.26,10.9-3,11-3a1.74,1.74,0,0,0,.68-3.41c-.35-.07-8.63-1.67-14.13,4a1.74,1.74,0,0,0,1.46,2.94Z"/>
              <path class="cls-16" d="M2246.44,1067.73a1.76,1.76,0,0,0,.55-.16,1.74,1.74,0,0,0,.81-2.32,12.21,12.21,0,0,0-10.43-6.84,1.74,1.74,0,0,0,0,3.48,8.72,8.72,0,0,1,7.34,4.88A1.74,1.74,0,0,0,2246.44,1067.73Z"/>
              <path class="cls-15" d="M2228.57,1079.16c1.52,3.3,2.72,6.58,4.49,8.82a1.83,1.83,0,0,1-.24,2.5c-3,2.62-9.33,3.4-13.12,3.64a.49.49,0,0,1-.21-.94,23.72,23.72,0,0,0,7.57-4.35,2.18,2.18,0,0,0,.65-1.87c-.21-1.59-.59-4.82-.71-7.42A.82.82,0,0,1,2228.57,1079.16Z"/>
              <path class="cls-3" d="M2192.91,1094.36a1.38,1.38,0,0,1,1.93-1.66,98.28,98.28,0,0,0,24.61,8.7,1.39,1.39,0,0,1,.46,2.51,17.3,17.3,0,0,1-27-9.55Z"/>
            </g>
            <path class="cls-16" d="M2153.74,1053.56c30.44,6.38,81.57-8.85,90.28-22.87.83-20.24-25.87-40-45.78-37.53S2149.55,1026.24,2153.74,1053.56Z"/>
            <path class="cls-15" d="M2243.33,1144.45c31.33,7.82,84.87,81,89.88,135.89-17.19,3.56-36.83-10.14-36.83-10.14L2253.83,1209Z"/>
            <g>
              <path class="cls-14" d="M2273.62,1772.35l16.78-66.08-41.63-5.73c-1.43,31.25-3.77,62-3.56,70.36Z"/>
              <path class="cls-14" d="M2174.29,1700.16h-43.46c1.43,10.42,7.13,66.81,7.13,66.81,3.67,8.33,36.06,6.43,36.06,1.74C2171.57,1758.56,2174.09,1701.46,2174.29,1700.16Z"/>
              <path class="cls-12" d="M2245.36,1726l42.86,6.33,29.72-177.74c-6.12-67.45-65.5-211-65.5-211l-66.93,23.44-1.63,63.29,80.6,136.47C2254,1593.2,2246.79,1678.53,2245.36,1726Z"/>
              <path class="cls-13" d="M2212.23,1348.37c-.61-4.17-.82-5.47-4.29-7.55l-64.28-18.23-15.3,15.1c-14.49,52.61-5.51,125.79,5.92,183.87-16.73,50.27-10.19,153.88-3.45,202.59h45.71c2.65-32.55,1.82-92.94,2-122.11h0c5.92-23.44,11.63-48.44,16.73-74.75,6.53-33.6,14.69-66.15,16.94-96.62C2214.27,1401.76,2214.88,1370.77,2212.23,1348.37Z"/>
            </g>
            <path class="cls-14" d="M2131.15,1136.43c-15.11,9.91-78.8,92.78-43.7,161,1.62.9,29.74-46.73,29.74-46.73l33.18-65.69Z"/>
            <path class="cls-14" d="M2163.13,1093.32,2203,1116s3.54,16.16,5.31,21.4c3.65,10.82-10.33,15.54-22.14,8.81a80.38,80.38,0,0,1-19.46-15.74Z"/>
            <path class="cls-6" d="M2262.38,1354.12s-16.47,19.5-19.25,21l-14.75-16.1-.1.28-3.5,9.21-4.09,10.76c-3.42,0-106.25-23-106.25-23,.21-9.27,8.93-39.3,23-71.27-3.42-27.07-.13-55.22-1.21-70.83,8.3-41.87,2.38-57.94-5.11-77.67l26.09-7.7,47,16.56,3.49-11.32s29.44,7.06,35.64,10.48l11.13,46.43-2.41,98.64S2255.74,1329.23,2262.38,1354.12Z"/>
            <path class="cls-10" d="M2166.31,1123.51l-18.4,7.81c1.94,22.09,51.38,35.3,51.38,35.3l4.91-21.33Z"/>
            <path class="cls-10" d="M2204.2,1145.29l14.56,16.17s12.59-13,8-21.06-21.24-13.47-21.24-13.47Z"/>
            <g>
              <path class="cls-9" d="M2263.49,1771.28c4.35-11.43,13.66-12.7,13.66-12.7,18.09,24.13,62.51,9.32,61,42-67.55-.42-95.63,0-95.63,0,.09-7.5,1.43-25.29,3-32.25l3.52.63Z"/>
              <path class="cls-9" d="M2242.57,1799.64h95.66a0,0,0,0,1,0,0v5.67a3.94,3.94,0,0,1-3.94,3.94h-87.77a3.95,3.95,0,0,1-3.95-3.95v-5.66A0,0,0,0,1,2242.57,1799.64Z"/>
            </g>
            <path class="cls-10" d="M2228.28,1359.25l-3.5,9.21c-3.17-21.2-15-109.9-8.32-134.4,6.26-23-1.57-47.26-9.15-70.71-1.84-5.73-3.77-11.66-5.41-17.4l2.3-.66,2.29-.66c1.62,5.67,3.53,11.55,5.36,17.25,7.79,24.12,15.84,49.06,9.2,73.44C2215.31,1256.47,2224.13,1329.29,2228.28,1359.25Z"/>
            <g>
              <path class="cls-9" d="M2181.76,1800.85s-5.42-20.23-5.9-22.83c-.54-3-2.14-9.94-2.46-13.53-.08-.88-9.39-6.58-16.5-6.57-9.63,0-18.41,5.59-18.59,6.65-1.14,6.75-1.17,14.69-3,21.26-1.37,4.89-5.09,16.29-5.09,16.29Z"/>
              <path class="cls-9" d="M2181.76,1799.28c-1.26,4-16.86-.62-28.24-.61-9.55,0-21.91,3.7-23.32,2.26-2.39,4.22-.42,13-.42,13s10,.51,21.9,0,25.74.25,30.94-1.3C2185.9,1807.11,2181.76,1799.28,2181.76,1799.28Z"/>
            </g>
            <g>
              <path class="cls-14" d="M2201.72,1229.3s-82.29,82.5-114.27,68.16c-10.54-14.25,11.84-42.85,32.81-52.43s55.93-24.58,55.93-24.58Z"/>
              <path class="cls-20" d="M2217.31,1201.27l34.19-26.38a3.38,3.38,0,0,1,2.61-.65l23.29,4.22c.66.11,2,4.18,1.49,4.58l-23.25,14a.76.76,0,0,1-.38.15l-36.56,6.27C2217.93,1203.53,2216.69,1201.75,2217.31,1201.27Z"/>
              <path class="cls-21" d="M2219.06,1203.8l32.52-24.82a3.38,3.38,0,0,1,2.61-.65l24.06,4.07a.77.77,0,0,1,.34,1.37l-22.87,17.34a.76.76,0,0,1-.38.15l-35.73,3.91A.77.77,0,0,1,2219.06,1203.8Z"/>
              <path class="cls-14" d="M2175.3,1220.89l19.21-9.62s12.18-13.26,16-17.22c4.87-1.41,14.33-5.5,16.27-5.36A27,27,0,0,1,2232,1190l-11.12,8.7s4.53,2.09,10.89-.45,18.21-10.34,22.78-7.54l1.46,1.87s4-3.1,6.42-1c7.46,6.65-40.63,35.3-40.63,35.3l-20,2.4Z"/>
              <ellipse class="cls-20" cx="2253.83" cy="1182.41" rx="2.97" ry="2.3" transform="translate(-273.92 1479.65) rotate(-34.39)"/>
            </g>
            <path class="cls-15" d="M2333.21,1280.34s-42.66,48.78-72.35,55.67c-1.77-9.78-3.39-17.26-3.39-17.26l40.48-53.29Z"/>
            <path id="c" class="cls-15" d="M2255.46,1338.7a4.14,4.14,0,0,1,.61-1.13l-.21-.06c-4.21-1.4-6.82-5-5.81-8a4.23,4.23,0,0,1,.75-1.34c-2.23-1.73-3.36-4.17-2.64-6.33a4.47,4.47,0,0,1,1.56-2.13c-2.34-1.58-3.54-4.23-2.74-6.65,1-3,4.74-4.5,8.33-3.31s5.7,4.61,4.69,7.63a5,5,0,0,1-1.24,2c3.52,1.62,5.56,4.81,4.65,7.54a4.24,4.24,0,0,1-.75,1.34c2.23,1.73,3.36,4.17,2.64,6.33a4.41,4.41,0,0,1-1.41,2c2.14,1.31,3.27,3.65,2.56,5.78-.85,2.55-4,3.8-7,2.79S2254.61,1341.25,2255.46,1338.7Z"/>
            <g>
              <ellipse class="cls-14" cx="2151.89" cy="1065.9" rx="13.6" ry="16.62" transform="translate(-235.03 1329.27) rotate(-32.65)"/>
              <path class="cls-15" d="M2153,1075.31a2,2,0,0,0,.86-.32c3.86-2.56,5.49-6.4,4.37-10.25a9.67,9.67,0,0,0-8.78-7,2,2,0,0,0-.08,4,5.73,5.73,0,0,1,5,4.07c.63,2.15-.35,4.21-2.73,5.79a2,2,0,0,0,1.36,3.66Z"/>
            </g>
          </g>
          <g>
            <circle class="cls-3" cx="161.8" cy="1412.16" r="73.92" transform="translate(-657.67 250.77) rotate(-28.67)"/>
            <path class="cls-4" d="M185.1,1464.64l-6.76-12.35c-7.16,3.76-15.7,5.57-21.66,4.85l-1.55-9.8a37.18,37.18,0,0,0,20.49-4.37c8.68-4.75,11.81-13,8-19.95-3.68-6.73-10.72-8.28-21.78-7-15.15,1.93-25.93.52-31.75-10.12-5.55-10.15-2.55-21.8,7.7-29.79L131,1363.75l7.58-4.15,6.49,11.87a37.17,37.17,0,0,1,18.24-4.41l1.36,9.74a33.7,33.7,0,0,0-17.69,4.27c-9.42,5.15-9.89,12.71-7.21,17.61,3.48,6.36,9.74,7.07,22.79,5.65,15.41-1.75,25.25,1.13,31.2,12,5.28,9.66,3.51,22.39-8,31.36l7,12.72Z"/>
          </g>
          <g>
            <circle class="cls-3" cx="2486.63" cy="1119.75" r="73.92" transform="translate(407.05 2883.98) rotate(-64.55)"/>
            <path class="cls-4" d="M2457.76,1169.39l6.05-12.71c-7.24-3.6-13.72-9.46-16.62-14.7l7-7a37.15,37.15,0,0,0,15.55,14c8.94,4.25,17.44,2,20.85-5.21,3.29-6.92.42-13.54-7.1-21.75-10.44-11.15-15.62-20.71-10.41-31.66,5-10.45,16.17-14.84,28.65-11.22l6.05-12.71,7.8,3.71-5.81,12.21a37.17,37.17,0,0,1,14.27,12.19l-7.1,6.81a33.71,33.71,0,0,0-13.82-11.83c-9.69-4.61-16.1-.56-18.5,4.48-3.11,6.55,0,12,8.78,21.78,10.45,11.46,13.88,21.12,8.55,32.32-4.73,9.94-16.09,16-30.07,11.94l-6.23,13.09Z"/>
          </g>
          <g>
            <circle class="cls-2" cx="2251.42" cy="430.28" r="73.92" transform="translate(17.57 944.05) rotate(-23.77)"/>
            <path class="cls-3" d="M2270.15,484.56l-5.67-12.89c-7.46,3.13-16.12,4.21-22,3l-.7-9.9a37.14,37.14,0,0,0,20.79-2.61c9.06-4,12.88-11.92,9.67-19.19-3.09-7-10-9.16-21.1-8.83-15.26.63-25.88-1.7-30.77-12.8-4.66-10.59-.68-21.94,10.22-29l-5.67-12.89,7.91-3.48,5.45,12.38a37.19,37.19,0,0,1,18.55-2.84l.52,9.82a33.7,33.7,0,0,0-18,2.74c-9.82,4.33-10.94,11.82-8.69,16.93,2.92,6.63,9.1,7.87,22.22,7.58,15.5-.43,25.06,3.28,30.06,14.64,4.44,10.08,1.58,22.61-10.6,30.57l5.84,13.27Z"/>
          </g>
          <g>
            <path class="cls-2" d="M24.34,860l48.8-91s59.53,5.09,86.86,74.07C176.93,885.85,234.42,908,234.42,908l-49.06,91.51s-75-20.09-93.58-69.29C72.18,878.22,24.34,860,24.34,860Z"/>
            <ellipse class="cls-4" cx="129.36" cy="881.39" rx="38.27" ry="44.65" transform="translate(-536.8 289.94) rotate(-40.05)"/>
          </g>
          <g>
            <path class="cls-2" d="M1959.79,269.14,1891.1,192s25.26-54.15,99.44-56.07c46-1.19,86.59-47.54,86.59-47.54l69,77.55s-44.68,63.55-97.26,64C1993.3,230.47,1959.79,269.14,1959.79,269.14Z"/>
            <ellipse class="cls-4" cx="2015.96" cy="177.87" rx="44.65" ry="38.27" transform="translate(60.07 697.68) rotate(-19.93)"/>
          </g>
          <g>
            <path class="cls-2" d="M2411,1425.67l11.21-83.52s46.94-13.16,87.57,31.72c25.19,27.82,75.46,28.3,75.46,28.3l-11.27,84s-63.09,6.15-91.34-26.14C2452.71,1425.85,2411,1425.67,2411,1425.67Z"/>
            <ellipse class="cls-4" cx="2497.31" cy="1411.9" rx="31.22" ry="36.43" transform="translate(41.24 2894.38) rotate(-60.6)"/>
          </g>
          <g>
            <path class="cls-2" d="M1331.25,656.46l-11.58-86.26s-48.48-13.59-90.44,32.76c-26,28.73-77.94,29.23-77.94,29.23l11.64,86.72s65.16,6.35,94.34-27C1288.13,656.65,1331.25,656.46,1331.25,656.46Z"/>
            <ellipse class="cls-4" cx="1242.08" cy="642.24" rx="37.62" ry="32.25" transform="translate(-155.31 692.52) rotate(-29.4)"/>
          </g>
          <g>
            <rect class="cls-4" x="528.84" y="1368.3" width="506.8" height="162.58" rx="35.12" ry="35.12"/>
            <g>
              <path class="cls-22" d="M686.27,1426.72v45.74a22.32,22.32,0,0,1-22.32,22.32h-86.5a22.32,22.32,0,0,1-22.31-22.32v-45.74a22.31,22.31,0,0,1,22.31-22.32h86.5a22.34,22.34,0,0,1,22.32,22.32Z"/>
              <path class="cls-5" d="M862.58,1468.2H719a18.61,18.61,0,0,1-18.61-18.61h0A18.61,18.61,0,0,1,719,1431H862.58a18.61,18.61,0,0,1,18.61,18.61h0A18.61,18.61,0,0,1,862.58,1468.2Z"/>
              <path class="cls-7" d="M990.74,1468.2H918.81a18.61,18.61,0,0,1-18.61-18.61h0A18.61,18.61,0,0,1,918.81,1431h71.93a18.61,18.61,0,0,1,18.61,18.61h0A18.61,18.61,0,0,1,990.74,1468.2Z"/>
            </g>
            <path class="cls-13" d="M677.36,1408.89l-112.21,82.19a22.29,22.29,0,0,1-10-18.62v-45.74a22.31,22.31,0,0,1,22.31-22.32h86.5A22.17,22.17,0,0,1,677.36,1408.89Z"/>
            <circle class="cls-23" cx="642.24" cy="1469.06" r="15.01"/>
            <circle class="cls-5" cx="660.06" cy="1469.06" r="15.01"/>
          </g>
          <g>
            <rect class="cls-4" x="528.84" y="1565.29" width="506.8" height="162.58" rx="35.12" ry="35.12"/>
            <g>
              <path class="cls-17" d="M686.27,1623.71v45.74a22.32,22.32,0,0,1-22.32,22.32h-86.5a22.32,22.32,0,0,1-22.31-22.32v-45.74a22.31,22.31,0,0,1,22.31-22.32h86.5a22.34,22.34,0,0,1,22.32,22.32Z"/>
              <path class="cls-5" d="M862.58,1665.18H719a18.61,18.61,0,0,1-18.61-18.61h0A18.61,18.61,0,0,1,719,1628H862.58a18.61,18.61,0,0,1,18.61,18.61h0A18.61,18.61,0,0,1,862.58,1665.18Z"/>
              <path class="cls-7" d="M990.74,1665.18H918.81a18.61,18.61,0,0,1-18.61-18.61h0A18.61,18.61,0,0,1,918.81,1628h71.93a18.61,18.61,0,0,1,18.61,18.61h0A18.61,18.61,0,0,1,990.74,1665.18Z"/>
            </g>
            <path class="cls-18" d="M677.36,1605.88l-112.21,82.19a22.29,22.29,0,0,1-10-18.62v-45.74a22.31,22.31,0,0,1,22.31-22.32h86.5A22.17,22.17,0,0,1,677.36,1605.88Z"/>
            <circle class="cls-13" cx="642.24" cy="1666.05" r="15.01"/>
            <circle class="cls-5" cx="660.06" cy="1666.05" r="15.01"/>
          </g>
        </g>
      </g>
    </g>
  </g>
</svg>
