<svg xmlns="http://www.w3.org/2000/svg" viewBox="0 0 84.83 112.84">
  <defs>
    <style>
      .cls-1 {
        fill: #ffc2a4;
      }

      .cls-2 {
        fill: #ffa283;
      }

      .cls-3 {
        fill: #f7c139;
      }

      .cls-4 {
        fill: #0e5a98;
      }

      .cls-5 {
        fill: #fc412d;
      }

      .cls-6 {
        fill: #182142;
      }

      .cls-7 {
        fill: #b3e3ef;
      }

      .cls-8 {
        fill: #d2edf5;
      }

      .cls-9 {
        fill: #e9f4f0;
        opacity: 0.4;
      }

      .cls-10 {
        fill: #33a6d2;
      }

      .cls-11 {
        fill: #292a75;
      }

      .cls-12 {
        fill: #f9f3f5;
      }
    </style>
  </defs>
  <title>transaction-volume</title>
  <g id="Layer_2" data-name="Layer 2">
    <g id="_ëîé_2" data-name="‘ëîé_2">
      <g>
        <path class="cls-1" d="M14.12,88.24l-.25,1.13c-.58,2.71-1.84,8.75-2.28,12A71,71,0,0,1,9,111.83a7.9,7.9,0,0,0-1.7-.89S7,105.37,7,100.69c-.08-3.86,0-10.16,0-12.26,0-.45,0-.71,0-.71h.3c.76.11,1.6.21,2.51.3C11.07,88.16,12.57,88.21,14.12,88.24Z"/>
        <path class="cls-1" d="M25.54,96.14c-.31,4.55-1.43,15.07-1.43,15.07l-2.23.94s-1.07-5.8-1.43-9.94c-.27-3.17-1.17-9.68-1.56-12.65-.08-.6-.14-1.05-.16-1.3,1.4,0,2.73,0,3.86,0s2.13,0,3.17,0c0,.19,0,.51,0,.95C25.78,90.58,25.75,93.15,25.54,96.14Z"/>
        <path class="cls-2" d="M9.77,88c1.3.12,2.8.18,4.36.21l-.25,1.13a56.05,56.05,0,0,1-6.93-.94c0-.45,0-.71,0-.71h.3C8,87.84,8.86,87.95,9.77,88Z"/>
        <path class="cls-2" d="M25.78,89.18a62.35,62.35,0,0,1-6.87.38c-.08-.6-.14-1.05-.16-1.3,1.4,0,2.73,0,3.86,0s2.13,0,3.17,0C25.77,88.42,25.78,88.74,25.78,89.18Z"/>
        <path class="cls-3" d="M31.25,40.21c-.22-3.3,0-11.94-3.39-15.47-2.54-2.64-7.48-4.65-10.63-5.33v.07c-.07,1.07-.38,1.65-1.36,1.69s-1.29-.74-1.23-1.8v-.11c-2.09.5-7.07,2.39-9.35,5.55-1.89,2.62-3.7,8.57-4.4,11-1.92,6.73-.54,11.95,2,13a9.61,9.61,0,0,0,4.81.62l.09,0c.78.22,6.58,1.84,9.94,1.72a12.8,12.8,0,0,0,6.24-2c-.27,2.18-.94,9.76-.94,9.76.67.31,2.58,1,2.58,1a35.43,35.43,0,0,1,1.95-4.49c.25-.49.52-1,.82-1.57C30.45,50.24,31.47,43.51,31.25,40.21Zm-8.91-1.52a2.64,2.64,0,0,0,1.87-1.25s.09,2,.22,5.15a26.13,26.13,0,0,1-.22,5.15s-2.59-2.63-2.66-4.32A20.44,20.44,0,0,1,22.33,38.69ZM6.64,41.86c-.31-1.52.89-4.15.89-4.15s-.1.24.68.94,1.23.67,1.23.67a5.89,5.89,0,0,1-.27,4.9A3,3,0,0,1,6.64,41.86Z"/>
        <path class="cls-4" d="M29.47,66.42A55.22,55.22,0,0,0,27.62,55.5,35.43,35.43,0,0,0,25.68,60s-1.92-.71-2.58-1c0,0,.67-7.58.94-9.76a12.8,12.8,0,0,1-6.24,2c-3.36.12-9.15-1.5-9.94-1.72h-.4c-.14,0-3.16,3.76-4,10.53s-.71,25.14-.27,27c0,0,1.6.41,4,.77.76.11,1.61.22,2.51.3,1.3.12,2.8.18,4.36.21s3.12,0,4.62,0,2.73,0,3.86,0,2.14,0,3.17,0c2.51-.06,4.63-.2,4.63-.2S29.91,73.46,29.47,66.42Z"/>
        <path class="cls-5" d="M.81,22.16a4,4,0,0,0,5.79,1.2c2.45-1.69,3.79-3.74,6-4.23s6.64-1.53,8.33-4.51a8.81,8.81,0,0,0,0-8.73A6,6,0,0,0,12.66,4C9.72,6,9.94,7.76,7.4,9.36S-2.31,15.78.81,22.16Z"/>
        <path class="cls-1" d="M23.09,59s-1.29,1.92-1.16,2.09,1.16-.76,1.16-.76-.71,2.9-.27,2.94,1-1.92,1-1.92-.53,2.45-.18,2.58,1.11-2.63,1.11-2.47-.45,2.07,0,2.16,1.16-2,.89-3.61Z"/>
        <path class="cls-1" d="M21.87,12.35a2,2,0,0,1-1.69.94c-.44,2.12-2.36,3.16-2.56,3.5a9.88,9.88,0,0,0-.37,2.63s0,0,0,.07c-.07,1.07-.38,1.65-1.36,1.69s-1.21-.56-1.23-1.43a3.67,3.67,0,0,1,0-.38s0-.08,0-.11a9.4,9.4,0,0,0-.22-2.14v0a2.36,2.36,0,0,1-.69-.27h0c-1.73-1-2.15-4-2.15-4-1,.16-1.47-.94-1.23-1.76s1.27-.25,1.27-.18A3.16,3.16,0,0,1,12.8,8.32c1.34-1.23,2.43-1.25,4-1.18s2-.69,2-.69a6.06,6.06,0,0,1,1.33,2,8.25,8.25,0,0,1,.23,3.07,8.17,8.17,0,0,1,1.2-.65C22,10.68,22.42,11.37,21.87,12.35Z"/>
        <path class="cls-5" d="M9.19,112.32c.31-.31-.7-1.47-2.27-1.6s-3.93.86-4,1.6S9.19,112.32,9.19,112.32Z"/>
        <path class="cls-5" d="M21.93,112.66l0-.51a5.36,5.36,0,0,1,3.85-1c2.36.27,2.57,1.08,2.21,1.49S21.93,112.66,21.93,112.66Z"/>
        <path class="cls-5" d="M17.44,40.56c-.45.14-2.07,4.81-2,5s1.83,1.24,2.23,1.06a36.39,36.39,0,0,0,3.88-4.83C21.74,41.33,18.71,40.16,17.44,40.56Z"/>
        <path class="cls-1" d="M14.31,43.68s2.09-1.65,2.27-1.34-.85,1.78-.85,1.78,2.14-1.52,2.5-1.16S17,44.71,17,44.71s1.74-.89,2.05-.58-1.69,1.6-1.69,1.6,1.54-.71,1.73-.18-2.4,1.74-4,1.78a9,9,0,0,1-.8-2A2.67,2.67,0,0,1,14.31,43.68Z"/>
        <circle class="cls-6" cx="19.08" cy="41.94" r="0.47"/>
        <path class="cls-6" d="M12.36,10.15a.1.1,0,0,1,0-.19,3.19,3.19,0,0,1,2.6-.27.1.1,0,1,1-.09.18,3.06,3.06,0,0,0-2.41.27Z"/>
        <path class="cls-6" d="M19.45,9.92a.1.1,0,0,1-.07,0c-.88-1-2.4,0-2.41,0a.1.1,0,0,1-.11-.17s1.68-1.06,2.67,0a.1.1,0,0,1,0,.14Z"/>
        <path class="cls-6" d="M20.55,12.59h0a.1.1,0,0,1,0-.13,2,2,0,0,1,.82-.71.1.1,0,0,1,.09.18,1.79,1.79,0,0,0-.72.62A.1.1,0,0,1,20.55,12.59Z"/>
        <path class="cls-6" d="M11.22,11.92a.1.1,0,0,1-.1-.08.63.63,0,0,0-.28-.46.1.1,0,0,1,0-.13.1.1,0,0,1,.13,0,.82.82,0,0,1,.39.61.1.1,0,0,1-.08.12Z"/>
        <path class="cls-6" d="M14.87,14.69h0a.1.1,0,0,1-.1-.13c.13-.48.23-4,.23-4a.1.1,0,0,1,.1-.1.1.1,0,0,1,.1.1c0,.13-.09,3.1-.21,3.9a1.06,1.06,0,0,0,.92-.7.1.1,0,0,1,.19.06A1.32,1.32,0,0,1,14.87,14.69Z"/>
        <path class="cls-6" d="M15.39,16a2.4,2.4,0,0,1-.87-.19.1.1,0,0,1,.08-.18s.86.37,1.34,0a.1.1,0,1,1,.12.16A1.1,1.1,0,0,1,15.39,16Z"/>
        <path class="cls-6" d="M10.69,17.63a.1.1,0,0,1-.07,0,.1.1,0,0,1,0-.14A6,6,0,0,0,11.4,16a.1.1,0,1,1,.19.07,6.06,6.06,0,0,1-.82,1.5A.1.1,0,0,1,10.69,17.63Z"/>
        <path class="cls-6" d="M6.59,18.17a.1.1,0,0,1,0-.2,10.29,10.29,0,0,0,1.75-1,.1.1,0,1,1,.11.17,10.28,10.28,0,0,1-1.83,1Z"/>
        <path class="cls-6" d="M2.13,18.5a.1.1,0,0,1-.1-.09c-.07-1,2.23-4,2.33-4.11a.1.1,0,0,1,.16.12s-2.35,3-2.29,4a.1.1,0,0,1-.09.11Z"/>
        <path class="cls-6" d="M3.28,22.31a.1.1,0,0,1-.09-.06,4,4,0,0,1,0-1.7.1.1,0,0,1,.2,0,3.9,3.9,0,0,0,0,1.58.1.1,0,0,1,0,.13Z"/>
        <path class="cls-6" d="M7.18,21.28a.1.1,0,0,1-.06-.18,9.35,9.35,0,0,0,1.7-1.37.1.1,0,0,1,.18.09,9.86,9.86,0,0,1-1.77,1.44Z"/>
        <path class="cls-6" d="M7.18,13.15h0a.1.1,0,0,1,0-.13c0-.08,1.44-2.23,1.74-2.69a.1.1,0,1,1,.17.11C8.65,11,7.32,13,7.27,13.1A.1.1,0,0,1,7.18,13.15Z"/>
        <path class="cls-6" d="M12.16,7.54l-.06,0a.1.1,0,0,1,0-.14c.07-.09,1.67-2.14,2.48-2.21a.1.1,0,0,1,0,.2c-.6.05-1.89,1.56-2.34,2.13A.1.1,0,0,1,12.16,7.54Z"/>
        <path class="cls-6" d="M18.18,7a.1.1,0,0,1-.07,0,.1.1,0,0,1,0-.14A16.81,16.81,0,0,0,19.37,5.4a.1.1,0,1,1,.16.12A17,17,0,0,1,18.25,7,.1.1,0,0,1,18.18,7Z"/>
        <path class="cls-6" d="M10.26,39.58a3,3,0,0,1-2.88-2.68A10.85,10.85,0,0,1,8.5,31.69a.1.1,0,0,1,.14,0,.1.1,0,0,1,0,.14,10.56,10.56,0,0,0-1.09,5.08,2.76,2.76,0,0,0,3.07,2.49.1.1,0,0,1,.11.09.1.1,0,0,1-.09.11Z"/>
        <path class="cls-6" d="M21.54,39a.1.1,0,0,1,0-.2,4.67,4.67,0,0,0,2.84-1.69c.8-1.39,1.15-4.4-.15-5.8a.1.1,0,1,1,.15-.14c1.36,1.46,1,4.6.18,6S21.56,39,21.54,39Z"/>
        <path class="cls-6" d="M9.19,44.32h0a.1.1,0,0,1,0-.13,5.93,5.93,0,0,0,.26-4.71.1.1,0,0,1,.18-.08,6.15,6.15,0,0,1-.27,4.88A.1.1,0,0,1,9.19,44.32Z"/>
        <path class="cls-6" d="M10.5,44.42a5.26,5.26,0,0,1-2.63-.58.1.1,0,0,1,.1-.17c2.18,1.27,6.27-.06,6.31-.07a.1.1,0,0,1,.13.06.1.1,0,0,1-.06.13A13.8,13.8,0,0,1,10.5,44.42Z"/>
        <path class="cls-6" d="M6.68,49.61H6.34a.1.1,0,0,1-.1-.1.1.1,0,0,1,.1-.1c3.61.14,8.67-2.13,8.72-2.16a.1.1,0,0,1,.08.18S10.31,49.61,6.68,49.61Z"/>
        <path class="cls-6" d="M23.87,50.79h0a.1.1,0,0,1-.09-.11c.08-.83.24-2.17.36-3.24.09-.8.16-1.43.17-1.55a.1.1,0,0,1,.11-.09.1.1,0,0,1,.09.11c0,.12-.08.76-.17,1.56C24.2,48.53,24,49.87,24,50.7A.1.1,0,0,1,23.87,50.79Z"/>
        <circle class="cls-6" cx="13.48" cy="11.55" r="0.45"/>
        <circle class="cls-6" cx="17.36" cy="11.28" r="0.45"/>
        <path class="cls-2" d="M13.72,16.8h0Z"/>
        <path class="cls-2" d="M16.21,17.1a4,4,0,0,1-1.57,2.65,3.67,3.67,0,0,1,0-.38s0-.08,0-.11a9.4,9.4,0,0,0-.22-2.14A5.25,5.25,0,0,0,16.21,17.1Z"/>
        <circle class="cls-2" cx="13.03" cy="13.81" r="0.76"/>
        <circle class="cls-2" cx="17.94" cy="13.6" r="0.76"/>
        <path class="cls-6" d="M15.39,17.29a4.1,4.1,0,0,1-1.22-.18.1.1,0,1,1,.06-.19,4.07,4.07,0,0,0,2.27,0,.1.1,0,1,1,.06.19A3.9,3.9,0,0,1,15.39,17.29Z"/>
        <g>
          <rect class="cls-7" x="35.71" width="49.12" height="86.35" rx="0.6" ry="0.6"/>
          <rect class="cls-8" x="38.25" y="6.18" width="44.04" height="73.45" rx="0.6" ry="0.6"/>
          <path class="cls-9" d="M82.29,6.78V76.37l-44-56.6v-13a.6.6,0,0,1,.6-.6H81.7A.6.6,0,0,1,82.29,6.78Z"/>
          <circle class="cls-10" cx="60.27" cy="82.92" r="2.54"/>
          <circle class="cls-10" cx="60.27" cy="1.85" r="0.5"/>
          <path class="cls-10" d="M66.27,4.18h-12a.15.15,0,1,1,0-.3h12a.15.15,0,1,1,0,.3Z"/>
          <g>
            <path class="cls-11" d="M44.91,45.57h0l-4.4-.49a.09.09,0,0,1-.08-.1.09.09,0,0,1,.1-.08l4.35.48,2.33-3.09a.09.09,0,0,1,.06,0l.07,0,2,1.5.82-1.94a.09.09,0,0,1,.06-.05.09.09,0,0,1,.08,0L51.77,43l9-3.43a.09.09,0,0,1,.09,0A7,7,0,0,0,62.64,41c.23-.17,3.71-1.2,4.11-1.31a.09.09,0,0,1,.09,0l1.48,1.86.73-1.75a.09.09,0,0,1,.08-.05l8.73-.18a.09.09,0,0,1,.08,0L79,41.71a.09.09,0,0,1,0,.12.09.09,0,0,1-.12,0l-1.08-2-8.62.17-.76,1.84a.09.09,0,0,1-.07.05.09.09,0,0,1-.08,0l-1.53-1.93c-1.49.44-3.85,1.15-4,1.27s-1.2-.63-2-1.36l-9,3.43a.09.09,0,0,1-.09,0L50.21,42l-.82,1.94a.09.09,0,0,1-.14,0l-2-1.51L45,45.53A.09.09,0,0,1,44.91,45.57Z"/>
            <path class="cls-12" d="M79,42.44a.09.09,0,0,1-.06,0l-1.26-1.27a.09.09,0,0,1,0-.12.09.09,0,0,1,.12,0l1.15,1.17.59-2a.09.09,0,1,1,.17.05l-.63,2.13a.09.09,0,0,1-.06.06Z"/>
          </g>
          <rect class="cls-5" x="40.19" y="11.3" width="3.65" height="27.01"/>
          <rect class="cls-5" x="47.05" y="13.53" width="3.65" height="24.78"/>
          <rect class="cls-5" x="53.91" y="16.83" width="3.65" height="21.47"/>
          <rect class="cls-5" x="60.77" y="13.05" width="3.65" height="25.26"/>
          <rect class="cls-5" x="67.63" y="15.01" width="3.65" height="23.29"/>
          <rect class="cls-5" x="74.49" y="11.15" width="3.65" height="27.01"/>
          <path class="cls-3" d="M57.56,46s2.72,14,2.72,14.32,7.36-12.28,7.36-12.28S62.58,44.68,57.56,46Z"/>
          <path class="cls-11" d="M60.27,60.33,51.36,49.16S52.51,47,57.56,46Z"/>
          <path class="cls-5" d="M60.27,60.33l-11.12-8.1a11.15,11.15,0,0,1,2.2-3.07Z"/>
          <path class="cls-4" d="M60.27,60.33,49.55,64.11s-3.68-7.68-.39-11.88Z"/>
          <path class="cls-4" d="M60.27,60.33l13-3.73a13.88,13.88,0,0,0-5.6-8.54Z"/>
          <path class="cls-3" d="M60.27,60.33l-1.6,9.83s-4.8-.47-9.12-6.06Z"/>
          <path class="cls-5" d="M60.27,60.33,68.58,68S64,71.66,58.67,70.16Z"/>
          <path class="cls-11" d="M60.27,60.33l13-3.73S74.56,64.11,68.58,68Z"/>
          <path class="cls-11" d="M79,38.39H39.32a.09.09,0,1,1,0-.18H79a.09.09,0,0,1,0,.18Z"/>
          <rect class="cls-3" x="40.19" y="11.3" width="3.65" height="10.82"/>
          <rect class="cls-3" x="47.05" y="13.53" width="3.65" height="7.06"/>
          <rect class="cls-3" x="53.91" y="16.83" width="3.65" height="9.09"/>
          <rect class="cls-3" x="60.77" y="13.05" width="3.65" height="6.83"/>
          <rect class="cls-3" x="67.63" y="15.01" width="3.65" height="7.11"/>
          <rect class="cls-3" x="74.49" y="11.15" width="3.65" height="6.04"/>
          <rect class="cls-11" x="40.19" y="11.3" width="3.65" height="4.45"/>
          <rect class="cls-11" x="47.05" y="13.53" width="3.65" height="2.18"/>
          <rect class="cls-11" x="53.91" y="16.83" width="3.65" height="2.68"/>
          <rect class="cls-11" x="60.77" y="13.05" width="3.65" height="2.4"/>
          <rect class="cls-11" x="67.63" y="15.01" width="3.65" height="2.17"/>
          <rect class="cls-11" x="74.49" y="11.15" width="3.65" height="2.8"/>
        </g>
      </g>
    </g>
  </g>
</svg>
