<svg width="56" height="56" viewBox="0 0 56 56" fill="none" xmlns="http://www.w3.org/2000/svg">
<path d="M36.985 0H7.963C7.155 0 6.5 0.655 6.5 1.926V55C6.5 55.345 7.155 56 7.963 56H48.037C48.845 56 49.5 55.345 49.5 55V12.978C49.5 12.282 49.407 12.058 49.243 11.893L37.607 0.257C37.442 0.093 37.218 0 36.985 0Z" fill="#E9E9E0"/>
<path d="M37.5 0.151001V12H49.349L37.5 0.151001Z" fill="#D9D7CA"/>
<path d="M48.037 56H7.963C7.155 56 6.5 55.345 6.5 54.537V39H49.5V54.537C49.5 55.345 48.845 56 48.037 56Z" fill="#C8BDB8"/>
<path d="M18.5 50C20.1569 50 21.5 48.6569 21.5 47C21.5 45.3431 20.1569 44 18.5 44C16.8431 44 15.5 45.3431 15.5 47C15.5 48.6569 16.8431 50 18.5 50Z" fill="white"/>
<path d="M28.5 50C30.1569 50 31.5 48.6569 31.5 47C31.5 45.3431 30.1569 44 28.5 44C26.8431 44 25.5 45.3431 25.5 47C25.5 48.6569 26.8431 50 28.5 50Z" fill="white"/>
<path d="M38.5 50C40.1569 50 41.5 48.6569 41.5 47C41.5 45.3431 40.1569 44 38.5 44C36.8431 44 35.5 45.3431 35.5 47C35.5 48.6569 36.8431 50 38.5 50Z" fill="white"/>
</svg>
